<?xml version="1.0" encoding="utf-8"?>
<!-- Generator: Adobe Illustrator 23.0.6, SVG Export Plug-In . SVG Version: 6.00 Build 0)  -->
<svg version="1.1" id="Layer_1" xmlns="http://www.w3.org/2000/svg" xmlns:xlink="http://www.w3.org/1999/xlink" x="0px" y="0px"
	 viewBox="0 0 3000 3000" style="enable-background:new 0 0 3000 3000;" xml:space="preserve">
<style type="text/css">
	.st0{fill:#FFFFFF;}
	.st1{font-family:'DMSans-Bold';}
	.st2{font-size:90.9841px;}
	.st3{fill:#77665C;}
	.st4{fill:#AEA6A0;}
	.st5{fill:#91837A;}
	.st6{fill:#CBC9C7;}
	.st7{fill:#936037;}
	.st8{fill:#683C11;}
	.st9{fill:#CA9E67;}
	.st10{fill:#A9805F;}
	.st11{fill:#DDBD9E;}
	.st12{fill:#432918;}
	.st13{fill:#2B180D;}
	.st14{fill:#FEFEFE;}
	.st15{fill:#D4BFAF;}
	.st16{fill:#E9DFD7;}
	.st17{fill:#BEA087;}
	.st18{font-family:'DMSans-Medium';}
	.st19{font-size:56px;}
</style>
<rect x="-0.4" width="3000.79" height="3000.79"/>
<text transform="matrix(1 0 0 1 184.9756 250.884)" class="st0 st1 st2">Coffee</text>
<g>
	<g>
		<path class="st3" d="M2099.84,730.43c0,42.93-40.7,80.3-100.75,99.59c-27.64,8.88-59.37,13.95-93.14,13.95
			c-57.86,0-109.81-14.84-145.33-38.42c-30.22-20.03-48.53-46.29-48.53-75.12c0-62.7,86.79-113.53,193.86-113.53
			c12.57,0,24.86,0.71,36.76,2.05c56.14,6.3,103.64,26.74,131.25,54.79C2090.41,690.41,2099.84,709.76,2099.84,730.43z"/>
		<path class="st4" d="M2198.57,377.97c0,0-56.35,206.68-56.35,281.08c0,64.28-86.14,129.71-187.29,146.38
			c-16.01,2.66-32.45,4.09-48.94,4.09c-42.19,0-83.1-9.31-118.49-24.56c-65.85-28.41-112.51-77.49-112.51-125.91
			c0-74.4-61.62-281.08-61.62-281.08H2198.57z"/>
		<path class="st5" d="M2198.57,377.97c0,0-56.35,206.68-56.35,281.08c0,45.61-43.33,91.75-104.62,120.68
			c-38.39,18.15-82.67-9.55-82.67-52.03v-64.28c0-19.1,3.04-37.68,7.89-55.21c9.46-33.92,25.89-64.05,40.96-86.76
			c17.82-26.94,33.69-43.43,33.69-43.43l-2.19-100.06H2198.57z"/>
		<path class="st6" d="M2204.94,348.13c0,54.69-62.76,102.29-155.36,126.86c-42.62,11.31-91.55,17.77-143.63,17.77
			c-89.23,0-169.33-18.91-224.11-48.94c-46.61-25.51-74.83-58.96-74.83-95.69c0-79.87,133.84-144.63,298.94-144.63
			c19.38,0,38.34,0.9,56.68,2.61c86.57,8.03,159.83,34.07,202.4,69.79C2190.4,297.15,2204.94,321.81,2204.94,348.13z"/>
		<path class="st6" d="M1721.36,744c-28.79-25.28-46.37-55.26-46.37-84.95c0-74.4-61.62-281.08-61.62-281.08h44.71
			c0,0,33.21,41.15,66.61,126c8.84,22.43,17.67,47.89,25.85,76.45c11.12,38.44,21.1,82.48,28.51,132.27
			C1783.89,745.04,1745.93,765.57,1721.36,744z"/>
		<path class="st0" d="M2204.94,348.13c0,48.18-48.72,90.87-123.64,117.14c-21.44,7.52-45.6-0.07-57.97-19.12
			c-8.89-13.69-13.67-28.26-13.67-43.38c0-48.18,48.71-90.86,123.62-117.13c21.43-7.52,45.59,0.07,57.96,19.12
			C2200.14,318.44,2204.94,333.01,2204.94,348.13z"/>
		<path class="st4" d="M2037.46,301.8c0,79.87-133.84,144.63-298.94,144.63c-5.54,0-11.04-0.07-16.5-0.22
			c-34.64-0.92-68.05-15.27-91.02-41.21c-15.45-17.45-23.99-36.66-23.99-56.87c0-79.87,133.84-144.63,298.94-144.63
			c5.46,0,10.9,0.07,16.29,0.21c36.88,0.97,72.29,17.19,95.29,46.04C2030.4,265.91,2037.46,283.46,2037.46,301.8z"/>
		<path class="st7" d="M2144.69,348.13c0,35.97-38.25,67.89-97.16,87.71c-39.62,13.35-88.56,21.24-141.58,21.24
			c-59.91,0-114.65-10.07-156.55-26.75c-50.31-19.96-82.15-49.36-82.15-82.2c0-31.6,29.5-60.05,76.59-79.91
			c42.57-18.01,99.54-29.03,162.11-29.03c75.12,0,142.11,15.82,185.87,40.62C2124.88,298.48,2144.69,322.23,2144.69,348.13z"/>
		<path class="st8" d="M2144.69,348.13c0,31.62-29.57,60.13-76.76,80.02c-13.16,5.55-28.46,3.67-39.8-5.02
			c-21.26-16.28-33.48-35.33-33.48-55.66c0-31.6,29.5-60.05,76.59-79.91c0.07-0.03,0.13-0.06,0.2-0.08
			c13.14-5.55,28.42-3.65,39.75,5.02C2132.46,308.76,2144.69,327.78,2144.69,348.13z"/>
		<path class="st9" d="M1825.89,350.41c0,23.72-16.66,45.7-44.92,63.61c-19.32,12.24-44.12,12.34-63.83,0.74
			c-31.27-18.41-49.89-41.52-49.89-66.63c0-23.77,16.7-45.76,45.01-63.65c19.32-12.21,44.11-12.3,63.8-0.69
			C1807.29,302.19,1825.89,325.3,1825.89,350.41z"/>
		<path class="st10" d="M2121.46,323.28c0,54.31-96.5,98.35-215.51,98.35c-100.44,0-184.82-31.36-208.67-73.83
			c-4.47-7.84-6.79-16.06-6.79-24.52c0-51.88,87.99-94.36,199.55-98.02c5.23-0.24,10.55-0.33,15.92-0.33
			C2024.96,224.93,2121.46,268.97,2121.46,323.28z"/>
		<path class="st11" d="M1896.82,249.78c0,48.89-78.14,89.43-180.5,97c-13.6,1.01-25.77-9.61-25.84-23.25c0-0.08,0-0.17,0-0.25
			c0-48.89,78.14-89.43,180.5-97c13.6-1.01,25.77,9.61,25.84,23.25C1896.82,249.61,1896.82,249.69,1896.82,249.78z"/>
		<ellipse class="st12" cx="1905.18" cy="278.47" rx="119.06" ry="54.34"/>
		<ellipse class="st12" cx="1779.46" cy="278.47" rx="21.16" ry="9.66"/>
		<ellipse class="st12" cx="1773.53" cy="315.31" rx="21.16" ry="9.66"/>
		<ellipse class="st12" cx="1828.96" cy="320.45" rx="21.16" ry="9.66"/>
		<ellipse class="st12" cx="1830.94" cy="338.47" rx="21.16" ry="9.66"/>
		<ellipse class="st12" cx="1856.67" cy="332.81" rx="21.16" ry="9.66"/>
		<ellipse class="st12" cx="1884.01" cy="357.79" rx="21.16" ry="9.66"/>
		<ellipse class="st12" cx="1926.34" cy="332.81" rx="21.16" ry="9.66"/>
		<ellipse class="st12" cx="1978.59" cy="340.73" rx="21.16" ry="9.66"/>
		<ellipse class="st12" cx="2007.88" cy="315.31" rx="21.16" ry="9.66"/>
		<ellipse class="st12" cx="2019.37" cy="324.97" rx="21.16" ry="9.66"/>
		<ellipse class="st12" cx="2024.24" cy="303.98" rx="21.16" ry="9.66"/>
		<ellipse class="st12" cx="2074.52" cy="301.13" rx="21.16" ry="9.66"/>
		<ellipse class="st12" cx="2019.37" cy="268.81" rx="21.16" ry="9.66"/>
		<ellipse class="st12" cx="2005.11" cy="254.16" rx="21.16" ry="9.66"/>
		<ellipse class="st12" cx="1797.25" cy="268.81" rx="21.16" ry="9.66"/>
		<ellipse class="st12" cx="1748.26" cy="296.55" rx="10.04" ry="4.58"/>
		<ellipse class="st12" cx="1746.67" cy="331.07" rx="10.04" ry="4.58"/>
		<ellipse class="st12" cx="1828.96" cy="372.03" rx="10.04" ry="4.58"/>
		<ellipse class="st12" cx="1900.62" cy="402.91" rx="10.04" ry="4.58"/>
		<ellipse class="st12" cx="1936.38" cy="372.03" rx="10.04" ry="4.58"/>
		<ellipse class="st12" cx="1993.99" cy="357.79" rx="10.04" ry="4.58"/>
		<ellipse class="st12" cx="2045.4" cy="284.97" rx="10.04" ry="4.58"/>
		<ellipse class="st12" cx="2063.4" cy="326.49" rx="10.04" ry="4.58"/>
		<path class="st5" d="M2100.51,499.65c-41.68,14.38-104.58,27.71-194.54,27.71s-152.86-13.33-194.54-27.71
			c-22.61-7.8-40.25,20.28-23.41,37.26c81.31,82,217.95,74.22,217.95,74.22s136.63,7.77,217.95-74.22
			C2140.76,519.93,2123.12,491.85,2100.51,499.65z"/>
		<path class="st4" d="M1750.54,580.41c-22.24-10.55-43.85-24.66-62.53-43.52c-16.82-16.96,0.81-45.04,23.42-37.25
			c4.18,1.47,8.6,2.9,13.26,4.32C1733.53,526.39,1742.36,551.86,1750.54,580.41z"/>
		<path class="st3" d="M2123.93,536.89c-47.61,47.99-114.12,65.23-161.11,71.32c9.46-33.92,25.89-64.05,40.96-86.76
			c40.39-5.27,72.22-13.35,96.73-21.81C2123.12,491.85,2140.75,519.93,2123.93,536.89z"/>
		<path class="st6" d="M2195.38,588.16c-11.76,93.05-67.56,121.21-103,155c-5.37,5.07-10.24,10.27-14.43,15.86
			c-8.96,11.92-27.94,7.97-31.49-6.51c-0.56-2.42-1.06-5.13-1.47-8.19c-4.8-36.17,43.63-64.16,43.63-64.16s66.06-50.51,58.28-109.15
			c-5.44-41.02-39.33-32.74-52.49-33.63c-4.79-0.32-9.04,2.64-10.76,7.08c-2.21,5.71-8.4,13.67-25.38,17.84
			c-3.44,0.84-6.5,1.25-9.21,1.41c-19.75,0.7-22.11-15.66-22.11-15.66s-7.86-38.31,29.84-57.25c25.2-12.69,85.21-17.39,117.86,15.9
			c0,0,0.01,0.05,0.01,0.09C2190.89,523.29,2200.32,549.21,2195.38,588.16z"/>
		<path class="st4" d="M2146.9,571.01c-5.44-41.02-39.33-32.74-52.49-33.63c-4.79-0.32-9.04,2.64-10.76,7.08
			c-2.21,5.71-8.4,13.67-25.38,17.84c-0.03,0.01-0.07,0.02-0.1,0.03c-4.6,1.12-8.71-3.12-7.67-7.74
			c2.77-12.25,10.7-32.84,32.92-35.79C2115.31,514.57,2139.77,517.22,2146.9,571.01z"/>
		<path class="st4" d="M2195.38,588.16c-7.08,56.01-30.12,88.51-55.06,112.88c-10.82,10.57-27.67-3.56-19.15-16.06
			c22.56-33.1,51.32-70.73,58.93-93.16c4.07-12.08,5.45-24.05,5.31-35.02c-0.08-6.79,10.06-7.29,10.72-0.53
			C2197.05,565.77,2196.87,576.37,2195.38,588.16z"/>
	</g>
	<g>
		<path class="st5" d="M2818.59,802.06l-22.24,157.64c-1.57,11.4-5.7,22.28-12.07,31.83c-5.42,8.08-9.12,17.15-10.93,26.7
			l-30.22,157.74c0,18.24-4.75,35.63-13.45,51.55c-22.19,40.77-69.94,71.89-128.52,82.43c-12.16,2.23-24.75,3.56-37.72,3.9
			c-2.23,0.05-4.42,0.09-6.65,0.09c-4.13,0-8.27-0.09-12.35-0.33c-11.5-0.52-22.76-1.85-33.59-3.9
			c-18.67-3.52-36.2-9.12-52.17-16.44c-1.14-0.52-2.28-1.05-3.42-1.66c-31.88-15.25-57.06-37.68-71.41-64.09
			c-4.32-7.98-7.7-16.3-9.98-24.9c-2.28-8.65-3.47-17.53-3.47-26.65l-30.22-157.74c-1.81-9.55-5.51-18.62-10.93-26.7
			c-6.32-9.55-10.5-20.43-12.07-31.83l-22.24-157.64l61.72-0.43l200.12-1.33l61.91,0.43L2818.59,802.06z"/>
		<path class="st4" d="M2445.63,1225.08c5.29,27.65-29.85,44.63-47.82,22.96c-5.39-6.5-10.07-13.36-13.96-20.51
			c-4.32-7.98-7.7-16.3-9.98-24.9c-2.09-7.93-3.27-16.07-3.44-24.4c-0.03-1.49-0.17-2.99-0.45-4.45l-29.8-155.54
			c-1.81-9.55-5.51-18.62-10.93-26.7c-6.32-9.55-10.5-20.43-12.07-31.83l-17.86-126.61c-2.32-16.43,10.37-31.14,26.96-31.25
			l12.49-0.09c10.87-0.08,20.76,6.28,25.21,16.19l5.1,11.36c0.87,1.94,1.51,3.98,1.91,6.07L2445.63,1225.08z"/>
		<path class="st3" d="M2818.59,802.06l-22.24,157.64c-1.57,11.4-5.7,22.28-12.07,31.83c-5.42,8.08-9.12,17.15-10.93,26.7
			l-30.22,157.74c0,18.24-4.75,35.63-13.45,51.55c-18.24,33.5-53.73,60.49-98.31,74.92c-32.49,10.52-64.92-16.58-61.26-50.54
			l48.58-451.18L2818.59,802.06z"/>
		<path class="st12" d="M2781.91,801.78l-19.1,135.6c-1.38,9.79-4.94,19.15-10.41,27.37c-2.57,3.9-4.7,8.03-6.37,12.35
			c-1.33,3.42-2.33,6.98-3.04,10.6l-25.94,135.65c0,0,0,0,0,0.05c0,15.63-4.13,30.6-11.59,44.28
			c-18.34,33.73-57.01,59.77-104.76,69.79c-13.97,2.95-28.7,4.51-43.9,4.51c-67.37,0-125-30.74-148.71-74.31
			c-7.46-13.68-11.59-28.65-11.59-44.28c0-0.05,0-0.05,0-0.05l-25.94-135.65c-0.71-3.61-1.71-7.13-3.04-10.55
			c-1.62-4.32-3.75-8.5-6.37-12.4c-5.46-8.22-9.03-17.58-10.41-27.37l-19.1-135.6l225.16-1.47l140.82,0.9L2781.91,801.78z"/>
		<path class="st8" d="M2781.91,801.78l-19.19,136.17c-1.38,9.83-5.32,19-10.69,27.37c-0.05,0.1-0.1,0.14-0.14,0.24
			c-5.37,8.41-12.21,15.87-20.86,20.86c-30.03,17.39-65.14,30.41-103.48,37.63c-22.62,4.28-46.32,6.56-70.75,6.56
			c-64.9,0-124.67-16.01-172.09-42.9c-8.88-5.04-16.77-11.88-22.09-20.62c-0.57-0.95-1.19-1.9-1.85-2.85
			c-5.46-7.98-8.69-17.29-10.02-26.84l-19.1-135.6l225.16-1.47l140.82,0.9L2781.91,801.78z"/>
		<path class="st13" d="M2781.91,801.78l-19.18,136.16c-1.39,9.84-5.32,19.03-10.7,27.39c-2.4,3.73-4.41,7.67-5.99,11.78
			c-1.33,3.42-2.33,6.98-3.04,10.6l-25.94,135.65c0,0,0,0,0,0.05c0,15.63-4.13,30.6-11.59,44.28
			c-11.16,20.53-29.85,38.21-53.54,51.16c-21.87,11.96-48.09-6.32-44.98-31.06l44.06-350.22l46.61-36.35L2781.91,801.78z"/>
		<path class="st12" d="M2781.91,801.78l-19.19,136.17c-1.38,9.83-5.32,19-10.69,27.37c-0.05,0.1-0.1,0.14-0.14,0.24
			c-5.37,8.41-12.21,15.87-20.86,20.86c-30.03,17.39-65.14,30.41-103.48,37.63l23.47-186.48l46.61-36.35L2781.91,801.78z"/>
		<path class="st14" d="M2820.49,783.29c0,84.1-110.37,152.8-249.25,157.26c-4.8,0.14-9.6,0.24-14.44,0.24
			c-145.67,0-263.69-70.51-263.69-157.5c0-87.04,118.02-157.55,263.69-157.55c136.41,0,248.63,61.86,262.27,141.25
			C2820.01,772.37,2820.49,777.78,2820.49,783.29z"/>
		<path class="st6" d="M2820.49,783.29c0,80.94-102.25,147.63-233.76,156.49c-8.96,0.6-16.9-6.34-16.92-15.31c0-0.06,0-0.11,0-0.17
			c0-80.94,102.25-147.67,233.75-156.54c8.96-0.6,16.9,6.34,16.92,15.31C2820.49,783.15,2820.49,783.22,2820.49,783.29z"/>
		<path class="st6" d="M2776.11,783.29c0,11.5-2.47,22.62-7.13,33.21c-2.33,5.37-5.23,10.64-8.69,15.73
			c-32.45,48.13-111.32,82.1-203.49,82.1c-92.17,0-171.09-33.97-203.54-82.1c-0.57-0.86-1.09-1.66-1.62-2.52
			c-2.76-4.28-5.13-8.69-7.08-13.21c-4.66-10.6-7.13-21.71-7.13-33.21c0-72.41,98.21-131.08,219.36-131.08
			c2.99,0,5.99,0.05,8.93,0.14C2682.7,655.11,2776.11,712.69,2776.11,783.29z"/>
		<path class="st4" d="M2579.89,698.77c0,11.5-2.47,22.62-7.13,33.21c-2.33,5.37-5.23,10.64-8.69,15.73
			c-32.45,48.13-111.32,82.1-203.49,82.1c-0.03,0-0.06,0-0.09,0c-5.63,0-10.9-3.09-13.47-8.11c-0.88-1.72-1.7-3.45-2.45-5.2
			c-4.66-10.6-7.13-21.71-7.13-33.21c0-72.41,98.21-131.08,219.36-131.08c0.03,0,0.06,0,0.09,0c5.64,0,10.88,3.17,13.45,8.19
			C2576.56,672.54,2579.89,685.42,2579.89,698.77z"/>
		<path class="st8" d="M2760.38,832.09c-0.05,0.05-0.05,0.1-0.1,0.14c-25.28,37.49-78.77,66.42-144.72,77.35
			c-18.72,3.09-38.44,4.75-58.77,4.75c-62,0-118.02-15.39-157.93-40.15c-19.43-11.97-35.02-26.23-45.61-41.95
			c-0.05-0.1-0.1-0.14-0.14-0.24c-6.18-9.22-6.32-21.48-0.14-30.74c32.26-48.37,111.37-82.53,203.83-82.53
			c18.43,0,36.3,1.38,53.36,3.94c59.15,8.79,108.75,31.98,137.88,62.95c4.75,5.04,8.93,10.21,12.54,15.63
			C2766.8,810.52,2766.66,822.87,2760.38,832.09z"/>
		<path class="st7" d="M2760.38,832.09c-0.05,0.05-0.05,0.1-0.1,0.14c-18.14,26.9-50.82,49.4-92.2,64
			c-18.53,6.54-33.51-15.95-20.61-30.77c15.54-17.86,33.88-34.99,54.7-50.57c9.74-7.3,19.63-13.96,29.57-19.99
			c9.66-5.86,22.43-3.2,28.71,6.19c0.04,0.05,0.07,0.11,0.11,0.16C2766.8,810.52,2766.66,822.87,2760.38,832.09z"/>
		<path class="st12" d="M2557.35,718.73c26.4,0.04,40.67,31.17,23.76,51.44c-28.15,33.73-70.81,64.6-122.75,85.68
			c-5.86,2.39-11.73,4.6-17.59,6.63c-29.93,10.41-63.33,1.16-82.83-23.81c-1.65-2.12-3.21-4.26-4.68-6.44
			c-0.33-0.65-0.65,0.94-0.98-26.14c-0.03-2.41,0.64-4.8,2.02-6.77c33.06-47.34,111.28-80.59,202.5-80.59
			C2556.98,718.73,2557.17,718.73,2557.35,718.73z"/>
		<path class="st14" d="M2404.32,940.64l10.06,47.39c2.2,10.35,6.92,19.99,13.74,28.07l0,0c4.92,5.83,8.26,12.82,9.69,20.31
			l2.42,12.63c1.15,5.98,8.24,8.6,13,4.79l0,0c5.52-4.42,7.45-11.95,4.73-18.48l-12.84-30.78c-1.57-3.77-2.85-7.65-3.82-11.61
			l-8.81-35.93c-2.52-10.29-9.49-18.92-19.01-23.56v0C2408.63,931.14,2403.21,935.38,2404.32,940.64z"/>
		<path class="st14" d="M2489.66,1283.29c-4.07-1.14-8.07-2.38-12-3.73c-12.3-4.2-20.72-15.59-21.57-28.56l-9.92-151.82
			c-0.29-6.37,8.27-8.65,11.17-2.99l3.28,6.37c1.52,2.95,2.66,5.99,3.52,9.17l40.48,156.89
			C2506.93,1277.62,2498.61,1285.8,2489.66,1283.29z"/>
	</g>
	<g>
		<path class="st6" d="M772.94,816.36c0,0-39.96,263.74-103.29,364.13c-0.33,0.62-0.71,1.19-1.05,1.76
			c-3.09,4.7-6.18,9.03-9.31,12.92c-32.74,39.62-97.68,67.18-173.23,69.08c-2.8,0.09-5.65,0.14-8.46,0.14
			c-54.26,0-103.62-13.21-140.21-34.83c-16.72-9.83-30.84-21.48-41.53-34.4c-3.23-4.04-6.41-8.5-9.55-13.4
			c-0.33-0.47-0.62-0.95-0.9-1.43c-31.36-49.89-57.01-139.92-74.93-217.98c-18.1-79.15-28.27-146-28.27-146H772.94z"/>
		<path class="st14" d="M286.32,1181.78c3.14,4.89,6.32,9.36,9.55,13.4C292.26,1190.85,289.08,1186.38,286.32,1181.78z"/>
		<path class="st14" d="M668.6,1182.25c-2.71,4.42-5.84,8.74-9.31,12.92C662.43,1191.28,665.51,1186.95,668.6,1182.25z"/>
		<path class="st4" d="M772.94,816.36c0,0-39.96,263.74-103.29,364.13c-0.33,0.62-0.71,1.19-1.05,1.76
			c-3.09,4.7-6.18,9.03-9.31,12.92c-20.15,24.39-52.5,44.2-92.01,56.28c-29.69,9.07-56.35-20.72-43.63-49.04
			c48.22-107.35,51.73-253.83,51.73-253.83s-74.83-10.69-55.83-77.73c8.08-28.46,17.39-42.9,30.45-54.5H772.94z"/>
		<path class="st14" d="M772.94,810.38c0,97.16-120.01,176.79-272.38,184.16c-7.55,0.33-15.2,0.52-22.95,0.52
			c-124.62,0-231.19-48.22-274.62-116.5c-13.4-21.1-20.76-44.09-20.76-68.18c0-93.27,110.61-170.38,254.28-182.83
			c13.45-1.19,27.13-1.81,41.1-1.81c87.04,0,165.34,23.57,219.36,61.01C744.19,719.49,772.94,762.82,772.94,810.38z"/>
		<path class="st6" d="M772.94,810.38c0,90.67-104.51,166.07-242.29,181.73c-20.17,2.29-40.57-4.07-55.48-17.85
			c-31.95-29.52-50.63-65.09-50.63-103.39c0-90.63,104.52-166.03,242.36-181.68c20.16-2.29,40.56,4.07,55.46,17.84
			C754.29,736.51,772.94,772.07,772.94,810.38z"/>
		<path class="st6" d="M712.79,810.38c0,10.98-1.9,21.67-5.61,31.93c-16.2,45.85-66.71,83.67-133.84,102.39
			c-29.27,8.22-61.62,12.73-95.74,12.73c-90.98,0-169.9-32.31-208.96-79.58c-9.22-11.07-16.2-23-20.62-35.54
			c-3.71-10.26-5.61-20.95-5.61-31.93c0-59.01,55.59-109.89,135.84-133.27c30.17-8.84,63.86-13.73,99.35-13.73
			c37.91,0,73.69,5.61,105.38,15.54C659.95,703.09,712.79,752.89,712.79,810.38z"/>
		<path class="st4" d="M404.53,744.57c0,10.98-1.9,21.67-5.61,31.93c-13,36.79-48.06,68.38-96.09,89.1
			c-21.44,9.25-46.83-0.93-54.67-22.92c-0.04-0.13-0.09-0.25-0.13-0.38c-3.71-10.26-5.61-20.95-5.61-31.93
			c0-50.14,40.14-94.42,101.43-120.93c21.77-9.42,47.29,1.03,55.18,23.4C402.64,723.06,404.53,733.68,404.53,744.57z"/>
		<path class="st14" d="M712.79,810.38c0,10.98-1.9,21.67-5.61,31.93c-16.2,45.85-66.71,83.67-133.84,102.39
			c-62.29-19.53-108.75-55.87-124.2-99.54c-3.71-10.26-5.61-20.95-5.61-31.93c0-49.87,39.73-93.97,100.52-120.55
			c24.56-10.74,52.77-10.47,76.92,1.17C676.81,720.74,712.79,762.94,712.79,810.38z"/>
		<path class="st7" d="M687.57,807.97c16.16,19.99,16.16,48.68,0,68.67c-38.74,47.92-118.24,80.78-209.97,80.78
			c-91.77,0-171.25-32.87-209.98-80.79c-16.15-19.99-16.15-48.68,0-68.66c38.73-47.91,118.21-80.74,209.98-80.74
			C569.33,727.23,648.83,760.06,687.57,807.97z"/>
		<path class="st9" d="M641.54,832.34c12.62,15.6,12.62,38.01,0,53.62c-30.25,37.41-92.32,63.07-163.94,63.07
			c-71.65,0-133.71-25.66-163.95-63.08c-12.61-15.61-12.61-38.01,0-53.61c30.24-37.41,92.29-63.04,163.94-63.04
			C549.22,769.31,611.29,794.94,641.54,832.34z"/>
		<path class="st14" d="M330.41,1190.29c3.28,14.83-14.87,25.21-25.67,14.54c-3.17-3.13-6.13-6.35-8.86-9.66
			c-3.23-4.04-6.41-8.5-9.55-13.4c-0.33-0.47-0.62-0.95-0.9-1.43c-22.41-35.64-41.9-91.79-57.74-149.41
			c-4.59-16.69,17.72-27.17,27.52-12.9C283.49,1059.21,314.25,1117.23,330.41,1190.29z"/>
		<g>
			<path class="st14" d="M618.96,800.35c-23.25-11.79-51.75-0.55-51.75-0.55s18.08-16.53-5.16-28.32
				c-23.25-11.79-99.14,26.81-41.42,56.09C578.34,856.84,642.21,812.14,618.96,800.35z"/>
			<path class="st14" d="M581.7,852.7c-44.46-17.99-81.9-10.75-88.11-9.34c2.05-3.52,12.17-24.62-24.03-47.54
				c-6.34-4.02-17.74-3.95-24.07,0.07c-18.91,12.01-47.04,38.76,11.7,68.84l-0.01,0.01c0.1,0.05,0.2,0.1,0.3,0.15
				c0.1,0.05,0.19,0.1,0.29,0.16l0.01-0.01c59.25,29.77,105.49,12.2,125.73,0.87C590.3,862.1,589.49,855.85,581.7,852.7z"/>
			<path class="st14" d="M538.85,900.52c-58.99-25.36-101.35-20.61-108.31-19.59c1.3-3.9,6.5-27.49-44.23-57.78
				c-8.89-5.31-22.49-6.36-28.74-2.3c-16.35,10.62-37.48,33.74,11.31,66.78l-0.01,0c0.02,0.01,0.03,0.02,0.06,0.03
				c1.75,1.18,3.58,2.38,5.51,3.58c11.09,9.27,4.32,21.01,4.32,21.01s22.05-4.92,40.07,1.23c1.25,0.5,2.5,1.01,3.73,1.48
				c0.54,0.24,1.1,0.46,1.63,0.73l-0.08-0.15c63.38,23.69,103.35,10.33,121.22,0.55C552.19,912.33,549.19,904.97,538.85,900.52z"/>
		</g>
		<path class="st14" d="M783.59,1047.69c-11.76,93.05-67.56,121.21-103,155c-5.37,5.07-10.24,10.27-14.43,15.86
			c-8.96,11.92-27.94,7.97-31.49-6.51c-0.56-2.42-1.06-5.13-1.47-8.19c-4.8-36.17,43.63-64.16,43.63-64.16s66.06-50.51,58.28-109.15
			c-5.44-41.02-39.33-32.74-52.49-33.63c-4.79-0.32-9.04,2.64-10.76,7.08c-2.21,5.71-8.4,13.67-25.38,17.84
			c-3.44,0.84-6.5,1.25-9.21,1.41c-19.75,0.7-22.11-15.66-22.11-15.66s-7.86-38.31,29.84-57.25c25.2-12.69,85.21-17.39,117.86,15.9
			c0,0,0.01,0.05,0.01,0.09C779.11,982.82,788.54,1008.74,783.59,1047.69z"/>
		<path class="st6" d="M735.11,1030.54c-5.44-41.02-39.33-32.74-52.49-33.63c-4.79-0.32-9.04,2.64-10.76,7.08
			c-2.21,5.71-8.4,13.67-25.38,17.84c-0.03,0.01-0.07,0.02-0.1,0.03c-4.6,1.12-8.71-3.12-7.67-7.74
			c2.77-12.25,10.7-32.84,32.92-35.79C703.52,974.1,727.98,976.75,735.11,1030.54z"/>
		<path class="st6" d="M783.59,1047.69c-7.08,56.01-30.12,88.51-55.06,112.88c-10.82,10.57-27.67-3.56-19.15-16.06
			c22.56-33.1,51.32-70.73,58.93-93.16c4.07-12.08,5.45-24.05,5.31-35.02c-0.08-6.79,10.06-7.29,10.72-0.53
			C785.27,1025.3,785.09,1035.9,783.59,1047.69z"/>
	</g>
	<g>
		<path class="st15" d="M745.36,1701.45l-22.24,157.64c-1.57,11.4-5.7,22.28-12.07,31.83c-5.42,8.08-9.12,17.15-10.93,26.7
			l-30.22,157.74c0,18.24-4.75,35.63-13.45,51.55c-22.19,40.77-69.94,71.89-128.52,82.43c-12.16,2.23-24.75,3.56-37.72,3.9
			c-2.23,0.05-4.42,0.09-6.65,0.09c-4.13,0-8.27-0.09-12.35-0.33c-11.5-0.52-22.76-1.85-33.59-3.9
			c-18.67-3.52-36.2-9.12-52.17-16.44c-1.14-0.52-2.28-1.05-3.42-1.66c-31.88-15.25-57.06-37.68-71.41-64.09
			c-4.32-7.98-7.7-16.3-9.98-24.9c-2.28-8.65-3.47-17.53-3.47-26.65l-30.22-157.74c-1.81-9.55-5.51-18.62-10.93-26.7
			c-6.32-9.55-10.5-20.43-12.07-31.83l-22.24-157.64l61.72-0.43l200.12-1.33l61.91,0.43L745.36,1701.45z"/>
		<path class="st16" d="M372.4,2124.47c5.29,27.65-29.85,44.63-47.82,22.96c-5.39-6.5-10.07-13.36-13.95-20.51
			c-4.32-7.98-7.7-16.3-9.98-24.9c-2.09-7.93-3.27-16.07-3.44-24.4c-0.03-1.49-0.17-2.99-0.45-4.45l-29.8-155.54
			c-1.81-9.55-5.51-18.62-10.93-26.7c-6.32-9.55-10.5-20.43-12.07-31.83l-17.86-126.61c-2.32-16.43,10.37-31.14,26.96-31.25
			l12.49-0.09c10.87-0.08,20.76,6.28,25.21,16.19l5.1,11.36c0.87,1.94,1.51,3.98,1.91,6.07L372.4,2124.47z"/>
		<path class="st17" d="M745.36,1701.45l-22.24,157.64c-1.57,11.4-5.7,22.28-12.07,31.83c-5.42,8.08-9.12,17.15-10.93,26.7
			l-30.22,157.74c0,18.24-4.75,35.63-13.45,51.55c-18.24,33.5-53.73,60.49-98.31,74.92c-32.49,10.52-64.92-16.58-61.26-50.54
			l48.59-451.18L745.36,1701.45z"/>
		<path class="st8" d="M708.68,1701.17l-19.1,135.6c-1.38,9.79-4.94,19.15-10.41,27.37c-2.57,3.9-4.7,8.03-6.37,12.35
			c-1.33,3.42-2.33,6.98-3.04,10.6l-25.94,135.65c0,0,0,0,0,0.05c0,15.63-4.13,30.6-11.59,44.28
			c-18.34,33.73-57.01,59.77-104.76,69.79c-13.97,2.95-28.7,4.51-43.9,4.51c-67.37,0-125-30.74-148.71-74.31
			c-7.46-13.68-11.59-28.65-11.59-44.28c0-0.05,0-0.05,0-0.05l-25.94-135.65c-0.71-3.61-1.71-7.13-3.04-10.55
			c-1.62-4.32-3.75-8.5-6.37-12.4c-5.46-8.22-9.03-17.58-10.41-27.37l-19.1-135.6l225.16-1.47l140.82,0.9L708.68,1701.17z"/>
		<path class="st7" d="M708.68,1701.17l-19.19,136.17c-1.38,9.83-5.32,19-10.69,27.37c-0.05,0.1-0.1,0.14-0.14,0.24
			c-5.37,8.41-12.21,15.87-20.86,20.86c-30.03,17.39-65.14,30.41-103.48,37.63c-22.62,4.28-46.32,6.56-70.75,6.56
			c-64.9,0-124.67-16.01-172.09-42.9c-8.88-5.04-16.77-11.88-22.09-20.62c-0.57-0.95-1.19-1.9-1.85-2.85
			c-5.46-7.98-8.69-17.29-10.02-26.84l-19.1-135.6l225.16-1.47l140.82,0.9L708.68,1701.17z"/>
		<path class="st12" d="M708.68,1701.17l-19.18,136.16c-1.39,9.84-5.32,19.03-10.7,27.39c-2.4,3.73-4.41,7.67-5.99,11.78
			c-1.33,3.42-2.33,6.98-3.04,10.6l-25.94,135.65c0,0,0,0,0,0.05c0,15.63-4.13,30.6-11.59,44.28
			c-11.16,20.53-29.85,38.21-53.54,51.16c-21.87,11.96-48.09-6.32-44.98-31.06l44.06-350.22l46.61-36.35L708.68,1701.17z"/>
		<path class="st8" d="M708.68,1701.17l-19.19,136.17c-1.38,9.83-5.32,19-10.69,27.37c-0.05,0.1-0.1,0.14-0.14,0.24
			c-5.37,8.41-12.21,15.87-20.86,20.86c-30.03,17.39-65.14,30.41-103.48,37.63l23.47-186.48l46.61-36.35L708.68,1701.17z"/>
		<path class="st14" d="M747.26,1682.68c0,84.1-110.37,152.8-249.25,157.26c-4.8,0.14-9.6,0.24-14.44,0.24
			c-145.67,0-263.69-70.51-263.69-157.5c0-87.04,118.02-157.55,263.69-157.55c136.41,0,248.63,61.86,262.26,141.25
			C746.78,1671.76,747.26,1677.17,747.26,1682.68z"/>
		<path class="st16" d="M747.26,1682.68c0,80.94-102.25,147.63-233.76,156.49c-8.96,0.6-16.9-6.34-16.92-15.31c0-0.06,0-0.11,0-0.17
			c0-80.94,102.25-147.67,233.75-156.54c8.96-0.6,16.9,6.34,16.92,15.31C747.26,1682.54,747.26,1682.61,747.26,1682.68z"/>
		<path class="st7" d="M702.87,1682.67c0,11.5-2.47,22.62-7.13,33.21c-2.33,5.37-5.23,10.64-8.69,15.73
			c-29.08,43.09-95.36,74.88-175.13,80.96c-9.26,0.76-18.77,1.14-28.36,1.14c-92.17,0-171.09-33.97-203.54-82.1
			c-0.57-0.86-1.09-1.66-1.62-2.52c-2.76-4.28-5.13-8.69-7.08-13.21c-4.66-10.6-7.13-21.71-7.13-33.21
			c0-72.41,98.21-131.09,219.36-131.09c2.99,0,5.99,0.05,8.93,0.14c86.71,2.04,160.45,34.21,192.85,79.49
			C696.6,1646.99,702.87,1664.37,702.87,1682.67z"/>
		<path class="st8" d="M702.87,1682.67c0,11.5-2.47,22.62-7.13,33.21c-2.33,5.37-5.23,10.64-8.69,15.73
			c-27.07,40.12-86.38,70.43-158.8,79.34c-10.61,1.3-21.32-3.23-27.35-12.06c-0.03-0.05-0.06-0.09-0.1-0.14
			c-0.57-0.81-1.05-1.52-1.52-2.33c-2.57-3.99-4.8-8.08-6.6-12.31c-4.32-9.88-6.6-20.19-6.6-30.93
			c0-66.37,88.75-120.39,199.26-121.96C696.6,1646.99,702.87,1664.37,702.87,1682.67z"/>
		<path class="st14" d="M331.09,1840.03l10.06,47.39c2.2,10.35,6.92,19.99,13.74,28.07l0,0c4.92,5.83,8.25,12.82,9.69,20.31
			l2.42,12.63c1.15,5.98,8.24,8.6,13,4.79l0,0c5.52-4.42,7.45-11.95,4.73-18.48l-12.84-30.78c-1.57-3.77-2.85-7.65-3.82-11.61
			l-8.81-35.93c-2.52-10.29-9.49-18.92-19.01-23.56h0C335.4,1830.53,329.97,1834.77,331.09,1840.03z"/>
		<path class="st14" d="M416.43,2182.68c-4.07-1.14-8.07-2.38-12-3.73c-12.3-4.2-20.72-15.59-21.57-28.56l-9.92-151.82
			c-0.29-6.37,8.27-8.65,11.17-2.99l3.28,6.37c1.52,2.95,2.66,5.99,3.52,9.17L431.38,2168
			C433.7,2177.01,425.38,2185.19,416.43,2182.68z"/>
		<path class="st9" d="M687.73,1660.56c0,10.7-2.3,21.05-6.63,30.92c-2.17,5-4.87,9.91-8.09,14.64
			c-30.21,44.81-103.63,76.43-189.44,76.43c-85.81,0-159.27-31.62-189.48-76.43c-0.53-0.8-1.02-1.55-1.5-2.34
			c-2.57-3.98-4.78-8.09-6.59-12.3c-4.33-9.86-6.63-20.21-6.63-30.92c0-67.41,91.42-122.03,204.21-122.03
			c2.79,0,5.57,0.04,8.32,0.13C600.77,1541.23,687.73,1594.84,687.73,1660.56z"/>
		<path class="st7" d="M543.81,1606.38c0,4.25-0.91,8.37-2.64,12.29c-0.86,1.99-1.93,3.94-3.22,5.82
			c-12.01,17.81-41.19,30.38-75.29,30.38c-34.1,0-63.3-12.57-75.31-30.38c-0.21-0.32-0.4-0.62-0.6-0.93
			c-1.02-1.58-1.9-3.22-2.62-4.89c-1.72-3.92-2.64-8.03-2.64-12.29c0-26.79,36.34-48.5,81.16-48.5c1.11,0,2.22,0.02,3.3,0.05
			C509.25,1558.95,543.81,1580.26,543.81,1606.38z"/>
		<path class="st7" d="M590.38,1715.62c0,2.66-0.57,5.23-1.65,7.69c-0.54,1.24-1.21,2.46-2.01,3.64c-7.51,11.14-25.76,19-47.09,19
			s-39.6-7.86-47.11-19c-0.13-0.2-0.25-0.38-0.37-0.58c-0.64-0.99-1.19-2.01-1.64-3.06c-1.08-2.45-1.65-5.03-1.65-7.69
			c0-16.76,22.73-30.34,50.77-30.34c0.69,0,1.39,0.01,2.07,0.03C568.77,1685.95,590.38,1699.28,590.38,1715.62z"/>
		<g>
			<path class="st14" d="M634.37,1603.21c-26.1-12.56-58.1-0.59-58.1-0.59s20.3-17.6-5.8-30.17
				c-26.1-12.56-111.31,28.56-46.51,59.74C588.76,1663.38,660.47,1615.77,634.37,1603.21z"/>
			<path class="st14" d="M592.53,1658.97c-49.92-19.17-91.96-11.45-98.93-9.95c2.3-3.75,13.67-26.22-26.98-50.64
				c-7.12-4.28-19.92-4.21-27.03,0.07c-21.23,12.79-52.82,41.29,13.13,73.33l-0.01,0.01c0.11,0.06,0.23,0.1,0.34,0.16
				c0.11,0.06,0.21,0.11,0.33,0.17l0.01-0.01c66.53,31.72,118.44,12.99,141.17,0.93C602.18,1668.98,601.28,1662.32,592.53,1658.97z"
				/>
			<path class="st14" d="M544.42,1709.91c-66.23-27.02-113.79-21.96-121.61-20.86c1.46-4.15,7.3-29.29-49.66-61.55
				c-9.98-5.65-25.25-6.77-32.27-2.45c-18.36,11.32-42.08,35.94,12.69,71.13l-0.01,0c0.02,0.01,0.04,0.02,0.06,0.03
				c1.96,1.26,4.02,2.53,6.19,3.82c12.45,9.87,4.85,22.38,4.85,22.38s24.76-5.24,44.99,1.32c1.4,0.53,2.81,1.07,4.19,1.57
				c0.61,0.26,1.23,0.49,1.83,0.77l-0.09-0.16c71.16,25.24,116.04,11.01,136.11,0.59C559.4,1722.49,556.03,1714.65,544.42,1709.91z"
				/>
		</g>
	</g>
	<g>
		<path class="st7" d="M2143.16,2090.81c-15.74-15.39-47.09-19.29-70.01-8.73l-13.4,6.17c-22.93,10.56-28.75,31.6-13.01,46.99h0
			c15.74,15.39,47.09,19.29,70.01,8.73l13.4-6.17c3-1.38,5.69-2.95,8.09-4.66l-34.34,295.81c0,0,82.39-53.19,82.39-184.1
			C2186.29,2113.94,2143.16,2090.81,2143.16,2090.81z"/>
		<path class="st8" d="M2167.76,2218.4v268.2h-1.26c0,0-1.26,62.66-61.52,129.54c-34.31,45.7-105.95,78.31-190.37,82.36
			c-5.89,0.26-11.86,0.44-17.88,0.44c-84.81,0-158.84-28.69-198.74-71.42l-0.13-0.13h-0.04c-70.81-70.94-72.16-140.79-72.16-140.79
			v-268.2H2167.76z"/>
		<path class="st7" d="M2167.76,2218.4v217.4c0,30.57-10.9,60.3-31.31,83.02l-0.39,0.44c-33.18,44.21-96.71,77.7-173.8,90.04
			c-14.56,2.35-29.61,3.92-45,4.67c-6.76,0.26-13.6,0.44-20.54,0.44c-97.45,0-182.56-32.92-228.39-82.02
			c-0.04-0.04-0.13-0.09-0.17-0.17c-3.05-3.05-6.02-6.15-8.85-9.2c-21.63-23.28-33.66-53.85-33.66-85.63V2218.4H2167.76z"/>
		<path class="st8" d="M2167.76,2218.4v218.87c0,30.12-11.15,59.17-31.31,81.55l-0.39,0.44c-20.9,27.85-53.85,51.45-94.65,68.19
			c-37.78,15.49-79.15-12.86-79.15-53.69V2218.4H2167.76z"/>
		<path class="st11" d="M2167.76,2211.03c0,89.17-110.14,162.24-249.97,169c-6.93,0.31-13.95,0.48-21.06,0.48
			c-71.86,0-137.17-17.48-185.7-46c-15.35-9.03-29.04-19.18-40.68-30.26c-10.12-9.55-18.75-19.84-25.64-30.65
			c-12.3-19.36-19.05-40.46-19.05-62.57c0-85.59,101.51-156.36,233.36-167.78c12.34-1.09,24.9-1.66,37.72-1.66
			c79.88,0,151.74,21.63,201.31,55.99C2141.38,2127.62,2167.76,2167.38,2167.76,2211.03z"/>
		<path class="st9" d="M2167.76,2211.05c0,83.21-95.91,152.4-222.35,166.77c-18.51,2.1-37.23-3.74-50.92-16.38
			c-29.32-27.09-46.47-59.73-46.47-94.89c0-83.17,95.92-152.37,222.42-166.73c18.5-2.1,37.22,3.74,50.9,16.37
			C2150.65,2143.26,2167.76,2175.9,2167.76,2211.05z"/>
		<path class="st9" d="M2112.56,2211.05c0,10.07-1.74,19.88-5.15,29.3c-14.87,42.08-61.22,76.78-122.83,93.96
			c-26.86,7.54-56.55,11.69-87.86,11.69c-83.5,0-155.92-29.65-191.76-73.03c-8.46-10.16-14.87-21.1-18.92-32.61
			c-3.4-9.42-5.15-19.23-5.15-29.3c0-54.15,51.01-100.85,124.66-122.3c27.69-8.11,58.6-12.6,91.17-12.6
			c34.79,0,67.63,5.15,96.71,14.26C2064.08,2112.6,2112.56,2158.29,2112.56,2211.05z"/>
		<path class="st8" d="M1829.67,2150.66c0,10.07-1.74,19.88-5.15,29.3c-11.93,33.76-44.1,62.75-88.18,81.77
			c-19.68,8.49-42.98-0.85-50.18-21.03c-0.04-0.11-0.08-0.23-0.12-0.35c-3.4-9.42-5.15-19.23-5.15-29.3
			c0-46.02,36.83-86.65,93.09-110.98c19.98-8.64,43.4,0.95,50.64,21.47C1827.93,2130.92,1829.67,2140.66,1829.67,2150.66z"/>
		<path class="st11" d="M2112.56,2211.05c0,10.07-1.74,19.88-5.15,29.3c-14.87,42.08-61.22,76.78-122.83,93.96
			c-57.16-17.92-99.81-51.28-113.98-91.35c-3.4-9.42-5.15-19.23-5.15-29.3c0-45.77,36.46-86.24,92.25-110.63
			c22.54-9.85,48.43-9.61,70.59,1.07C2079.55,2128.79,2112.56,2167.51,2112.56,2211.05z"/>
		<path class="st7" d="M2089.42,2208.84c14.83,18.34,14.83,44.68,0,63.02c-35.55,43.98-108.51,74.14-192.7,74.14
			c-84.22,0-157.16-30.16-192.7-74.14c-14.82-18.34-14.82-44.67,0-63.01c35.55-43.97,108.48-74.1,192.7-74.1
			C1980.91,2134.75,2053.87,2164.88,2089.42,2208.84z"/>
		<path class="st13" d="M2061.76,2213.37c12.7,15.71,12.71,38.26,0,53.98c-30.45,37.66-92.93,63.49-165.03,63.49
			c-72.13,0-134.6-25.83-165.04-63.5c-12.7-15.71-12.7-38.26,0-53.97c30.44-37.66,92.91-63.46,165.03-63.46
			C1968.83,2149.91,2031.31,2175.71,2061.76,2213.37z"/>
		<path class="st13" d="M2069.92,2216.51c13.33,16.49,13.33,40.16,0,56.65c-31.96,39.53-97.53,66.64-173.2,66.64
			c-75.7,0-141.26-27.11-173.2-66.64c-13.32-16.49-13.32-40.15,0-56.64c31.95-39.52,97.5-66.6,173.2-66.6
			C1972.39,2149.91,2037.97,2176.99,2069.92,2216.51z"/>
		<path class="st14" d="M1711.02,2334.51v153.48c0,11.25-9.11,16.22-20.36,11.12c-11.21-5.1-20.32-18.31-20.32-29.56v-165.3
			C1681.99,2315.33,1695.68,2325.48,1711.02,2334.51z"/>
	</g>
	<g>
		<path class="st7" d="M1367.65,2091.54c-15.88-15.52-47.5-19.46-70.62-8.8l-13.51,6.23c-23.13,10.66-29,31.88-13.12,47.4h0
			c15.88,15.52,47.5,19.46,70.62,8.8l13.51-6.23c3.03-1.39,5.74-2.98,8.16-4.7l-34.64,298.39c0,0,83.11-53.65,83.11-185.71
			C1411.16,2114.87,1367.65,2091.54,1367.65,2091.54z"/>
		<path class="st12" d="M1377.85,2580.45c0,57.4-78.51,106.07-187.36,123.27c-27.16,4.28-56.22,6.6-86.42,6.6
			c-99.3,0-186.27-25.06-234.26-62.64c-25.06-19.6-39.53-42.58-39.53-67.23c0-35.84,30.66-68.32,80.24-91.79
			c49.53-23.52,117.99-38.03,193.54-38.03c80.83,0,153.47,16.6,203.55,42.98C1351.29,2516.67,1377.85,2547.06,1377.85,2580.45z"/>
		<path class="st8" d="M950.05,2555.84c0,25.35-15.3,48.98-41.76,68.96c-25.05,18.92-61.09,9.59-72.99-19.46
			c-3.29-8.05-5.02-16.36-5.02-24.88c0-25.74,15.81-49.75,43.09-69.93c23.72-17.54,58.21-9.11,70.47,17.72
			C947.91,2537.13,950.05,2546.36,950.05,2555.84z"/>
		<path class="st13" d="M1377.85,2580.45c0,51.76-63.83,96.42-156.18,117.31c-21.87,4.95-44.77-0.17-62.38-14.05
			c-24.78-19.53-39.02-42.38-39.02-66.87c0-57.36,78.51-106.03,187.36-123.22C1351.29,2516.67,1377.85,2547.06,1377.85,2580.45z"/>
		<path class="st8" d="M1362.98,2548.83c0,22.56-12.78,43.67-35.16,61.82c-44.9,36.48-128.27,61-223.75,61
			c-54.22,0-104.57-7.91-146.19-21.42c-68.09-22.15-112.76-59.31-112.76-101.39c0-42.12,44.71-79.28,112.85-101.39
			c20.51-6.69,43.12-12.01,67.27-15.65c24.84-3.73,51.35-5.78,78.83-5.78C1247.08,2426.02,1362.98,2481.01,1362.98,2548.83z"/>
		<path class="st7" d="M1070.73,2548.83c0,22.56-12.78,43.67-35.16,61.82c-9.84,7.99-21.52,15.41-34.77,22.11
			c-27.25,13.79-59.68,13.39-86.86-0.55c-42.72-21.91-68.83-51.21-68.83-83.37c0-32.2,26.13-61.5,68.89-83.4
			c27.55-14.11,60.38-14.11,87.93,0.01C1044.63,2487.34,1070.73,2516.64,1070.73,2548.83z"/>
		<path class="st12" d="M1362.98,2548.83c0,7.05-1.25,13.96-3.65,20.68c-8.94,25.05-32.52,41.98-59,44.5
			c-16.56,1.58-33.7,2.41-51.26,2.41c-143.01,0-258.95-54.99-258.95-122.81c0-22.56,12.78-43.62,35.12-61.82
			c24.84-3.73,51.35-5.78,78.83-5.78C1247.08,2426.02,1362.98,2481.01,1362.98,2548.83z"/>
		<path class="st12" d="M1273.51,2548.83c0,39.44-59.81,72.19-138.73,79.06c-9.96,0.86-20.24,1.32-30.7,1.32
			c-93.57,0-169.44-35.98-169.44-80.37s75.87-80.37,169.44-80.37c10.46,0,20.74,0.46,30.7,1.32
			C1213.69,2476.65,1273.51,2509.4,1273.51,2548.83z"/>
		<path class="st13" d="M1273.51,2548.83c0,26.76-27.54,50.44-69.91,65.05c-44.48,15.34-93.17,15.34-137.65,0
			c-42.36-14.61-69.91-38.29-69.91-65.05c0-39.44,59.81-72.19,138.73-79.06C1213.69,2476.65,1273.51,2509.4,1273.51,2548.83z"/>
		<path class="st15" d="M1271.91,2543.19c-20.33,23.06-62.77,40.98-115.26,48.22c-16.51,2.32-33.98,3.55-52.13,3.55
			c-31.2,0-60.5-3.64-86.11-10.01c-25.56-6.37-47.44-15.47-63.64-26.52c-1-0.68-2-1.36-2.96-2.05c-3.59-2.64-6.91-5.32-9.87-8.14
			c-136.91-116.54-114.99-356.07-114.99-356.07h554.21C1381.17,2192.17,1402.46,2424.93,1271.91,2543.19z"/>
		<path class="st17" d="M1271.91,2543.19c-10.69,12.12-27.48,22.82-48.63,31.3c-26.06,10.44-52.98-13.62-45.25-40.6
			c33.24-116.07,36.07-279.22,36.07-279.22s-8.01-13.28,33.71-62.5h133.37C1381.17,2192.17,1402.46,2424.93,1271.91,2543.19z"/>
		<path class="st16" d="M892.04,2491.16c-81.12-123.63-65.07-298.98-65.07-298.98h97.89c-7.41,22.11-15.78,34.39-15.78,34.39
			l25.54,249.78C937.09,2500.62,905.43,2511.56,892.04,2491.16z"/>
		<ellipse class="st14" cx="1104.51" cy="2185.19" rx="277.56" ry="127.23"/>
		<ellipse class="st9" cx="1104.51" cy="2185.19" rx="235.49" ry="97.7"/>
		<ellipse class="st16" cx="1104.51" cy="2164.37" rx="217.7" ry="90.32"/>
		<ellipse class="st7" cx="1104.05" cy="2118.76" rx="88.58" ry="31.27"/>
		<ellipse class="st7" cx="1022.89" cy="2160.48" rx="29.6" ry="10.45"/>
		<ellipse class="st7" cx="1008.11" cy="2115.85" rx="29.6" ry="10.45"/>
		<ellipse class="st7" cx="1030.57" cy="2130.63" rx="29.6" ry="10.45"/>
		<ellipse class="st7" cx="1043.36" cy="2105.4" rx="29.6" ry="10.45"/>
		<ellipse class="st7" cx="1165.89" cy="2108.31" rx="29.6" ry="10.45"/>
		<ellipse class="st7" cx="1194.32" cy="2129.21" rx="29.6" ry="10.45"/>
		<ellipse class="st7" cx="1188.63" cy="2115.85" rx="29.6" ry="10.45"/>
		<ellipse class="st7" cx="1159.03" cy="2139.66" rx="29.6" ry="10.45"/>
		<ellipse class="st7" cx="1087.68" cy="2143.92" rx="29.6" ry="10.45"/>
		<ellipse class="st7" cx="1054.7" cy="2143.92" rx="29.6" ry="10.45"/>
		<ellipse class="st7" cx="1124.51" cy="2146.2" rx="29.6" ry="10.45"/>
		<ellipse class="st7" cx="1097.22" cy="2170.93" rx="29.6" ry="10.45"/>
		<ellipse class="st7" cx="1168.29" cy="2154.37" rx="29.6" ry="10.45"/>
		<ellipse class="st7" cx="1206.28" cy="2125.3" rx="29.6" ry="10.45"/>
		<ellipse class="st7" cx="1000.97" cy="2124.45" rx="29.6" ry="10.45"/>
		<ellipse class="st7" cx="1155.53" cy="2177.72" rx="19.24" ry="6.79"/>
		<ellipse class="st7" cx="1195.49" cy="2164.82" rx="19.24" ry="6.79"/>
		<ellipse class="st7" cx="1225.52" cy="2141.08" rx="19.24" ry="6.79"/>
		<ellipse class="st7" cx="1090.48" cy="2184.51" rx="19.24" ry="6.79"/>
		<ellipse class="st7" cx="1046.13" cy="2173.27" rx="19.24" ry="6.79"/>
		<ellipse class="st7" cx="994.52" cy="2154.37" rx="19.24" ry="6.79"/>
		<ellipse class="st7" cx="981.73" cy="2118.76" rx="19.24" ry="6.79"/>
		<ellipse class="st7" cx="966.38" cy="2134.9" rx="19.24" ry="6.79"/>
		<ellipse class="st7" cx="1231.91" cy="2124.45" rx="19.24" ry="6.79"/>
		<ellipse class="st7" cx="1262.45" cy="2137.47" rx="11.31" ry="3.99"/>
		<ellipse class="st7" cx="1251.14" cy="2160.48" rx="11.31" ry="3.99"/>
		<ellipse class="st7" cx="1223.91" cy="2193.98" rx="11.31" ry="3.99"/>
		<ellipse class="st7" cx="1165.89" cy="2194.62" rx="11.31" ry="3.99"/>
		<ellipse class="st7" cx="1130.64" cy="2204.85" rx="11.31" ry="3.99"/>
		<ellipse class="st7" cx="1111.87" cy="2188.51" rx="11.31" ry="3.99"/>
		<ellipse class="st7" cx="1052.49" cy="2181.38" rx="11.31" ry="3.99"/>
		<ellipse class="st7" cx="1009.28" cy="2184.51" rx="11.31" ry="3.99"/>
		<ellipse class="st7" cx="1046.77" cy="2212.83" rx="11.31" ry="3.99"/>
		<ellipse class="st7" cx="963.98" cy="2180.06" rx="11.31" ry="3.99"/>
		<ellipse class="st7" cx="975.29" cy="2158.88" rx="11.31" ry="3.99"/>
		<ellipse class="st7" cx="935.83" cy="2146.2" rx="11.31" ry="3.99"/>
	</g>
	<g>
		<g>
			<path class="st5" d="M1427.35,1281.84l-22.24,157.64c-1.57,11.4-5.7,22.28-12.07,31.83c-5.42,8.08-9.12,17.15-10.93,26.7
				l-30.22,157.74c0,18.24-4.75,35.63-13.45,51.55c-22.19,40.77-69.94,71.89-128.52,82.43c-12.16,2.23-24.75,3.56-37.72,3.9
				c-2.23,0.05-4.42,0.09-6.65,0.09c-4.13,0-8.27-0.09-12.35-0.33c-11.5-0.52-22.76-1.85-33.59-3.9
				c-18.67-3.52-36.2-9.12-52.17-16.44c-1.14-0.52-2.28-1.05-3.42-1.66c-31.88-15.25-57.06-37.68-71.41-64.09
				c-4.32-7.98-7.7-16.3-9.98-24.9c-2.28-8.65-3.47-17.53-3.47-26.65l-30.22-157.74c-1.81-9.55-5.51-18.62-10.93-26.7
				c-6.32-9.55-10.5-20.43-12.07-31.83l-22.24-157.64l61.72-0.43l200.12-1.33l61.91,0.43L1427.35,1281.84z"/>
			<path class="st4" d="M1054.39,1704.87c5.29,27.65-29.85,44.63-47.82,22.96c-5.39-6.5-10.07-13.36-13.95-20.51
				c-4.32-7.98-7.7-16.3-9.98-24.9c-2.09-7.93-3.27-16.07-3.44-24.4c-0.03-1.49-0.17-2.99-0.45-4.45l-29.8-155.54
				c-1.81-9.55-5.51-18.62-10.93-26.7c-6.32-9.55-10.5-20.43-12.07-31.83l-17.86-126.61c-2.32-16.43,10.37-31.14,26.96-31.25
				l12.49-0.09c10.87-0.08,20.76,6.28,25.21,16.19l5.1,11.36c0.87,1.94,1.51,3.98,1.91,6.07L1054.39,1704.87z"/>
			<path class="st3" d="M1427.35,1281.84l-22.24,157.64c-1.57,11.4-5.7,22.28-12.07,31.83c-5.42,8.08-9.12,17.15-10.93,26.7
				l-30.22,157.74c0,18.24-4.75,35.63-13.45,51.55c-18.24,33.5-53.73,60.49-98.31,74.92c-32.49,10.52-64.92-16.58-61.26-50.54
				l48.59-451.18L1427.35,1281.84z"/>
			<path class="st8" d="M1390.67,1281.56l-19.1,135.6c-1.38,9.79-4.94,19.15-10.41,27.37c-2.57,3.9-4.7,8.03-6.37,12.35
				c-1.33,3.42-2.33,6.98-3.04,10.59l-25.94,135.65c0,0,0,0,0,0.05c0,15.63-4.13,30.6-11.59,44.28
				c-18.34,33.73-57.01,59.77-104.76,69.79c-13.97,2.95-28.7,4.51-43.9,4.51c-67.37,0-125-30.74-148.71-74.31
				c-7.46-13.68-11.59-28.65-11.59-44.28c0-0.05,0-0.05,0-0.05l-25.94-135.65c-0.71-3.61-1.71-7.13-3.04-10.55
				c-1.62-4.32-3.75-8.5-6.37-12.4c-5.46-8.22-9.03-17.58-10.41-27.37l-19.1-135.6l225.16-1.47l140.82,0.9L1390.67,1281.56z"/>
			<path class="st7" d="M1390.67,1281.56l-19.19,136.17c-1.38,9.83-5.32,19-10.69,27.37c-0.05,0.1-0.1,0.14-0.14,0.24
				c-5.37,8.41-12.21,15.87-20.86,20.86c-30.03,17.39-65.14,30.41-103.48,37.63c-22.62,4.28-46.32,6.56-70.74,6.56
				c-64.9,0-124.67-16.01-172.09-42.9c-8.88-5.04-16.77-11.88-22.09-20.62c-0.57-0.95-1.19-1.9-1.85-2.85
				c-5.46-7.98-8.69-17.29-10.02-26.84l-19.1-135.6l225.16-1.47l140.82,0.9L1390.67,1281.56z"/>
			<path class="st12" d="M1390.67,1281.56l-19.18,136.16c-1.39,9.84-5.32,19.03-10.7,27.39c-2.4,3.73-4.41,7.67-5.99,11.78
				c-1.33,3.42-2.33,6.98-3.04,10.59l-25.94,135.65c0,0,0,0,0,0.05c0,15.63-4.13,30.6-11.59,44.28
				c-11.16,20.53-29.85,38.21-53.54,51.16c-21.87,11.96-48.09-6.32-44.98-31.06l44.06-350.22l46.61-36.35L1390.67,1281.56z"/>
			<path class="st8" d="M1390.67,1281.56l-19.19,136.17c-1.38,9.83-5.32,19-10.69,27.37c-0.05,0.1-0.1,0.14-0.14,0.24
				c-5.37,8.41-12.21,15.87-20.86,20.86c-30.03,17.39-65.14,30.41-103.48,37.63l23.47-186.48l46.61-36.35L1390.67,1281.56z"/>
			<path class="st14" d="M1429.25,1263.08c0,84.1-110.37,152.8-249.25,157.26c-4.8,0.14-9.6,0.24-14.44,0.24
				c-145.67,0-263.69-70.51-263.69-157.5c0-87.04,118.02-157.55,263.69-157.55c136.41,0,248.63,61.86,262.26,141.25
				C1428.78,1252.15,1429.25,1257.57,1429.25,1263.08z"/>
			<path class="st6" d="M1429.25,1263.08c0,80.94-102.25,147.63-233.76,156.49c-8.96,0.6-16.9-6.34-16.92-15.31
				c0-0.06,0-0.11,0-0.17c0-80.94,102.25-147.67,233.75-156.54c8.96-0.6,16.9,6.34,16.92,15.31
				C1429.25,1262.93,1429.25,1263.01,1429.25,1263.08z"/>
			<path class="st3" d="M1384.88,1263.08c0,11.5-2.47,22.62-7.13,33.21c-2.33,5.37-5.23,10.64-8.69,15.73
				c-32.45,48.13-111.32,82.1-203.49,82.1c-92.17,0-171.09-33.97-203.54-82.1c-0.57-0.86-1.09-1.66-1.62-2.52
				c-2.76-4.28-5.13-8.69-7.08-13.21c-4.66-10.6-7.13-21.71-7.13-33.21c0-72.41,98.21-131.08,219.36-131.08
				c2.99,0,5.99,0.05,8.93,0.14C1291.47,1134.89,1384.88,1192.47,1384.88,1263.08z"/>
			<path class="st4" d="M1188.65,1178.55c0,11.5-2.47,22.62-7.13,33.21c-2.33,5.37-5.23,10.64-8.69,15.73
				c-32.45,48.13-111.32,82.1-203.49,82.1c-0.03,0-0.06,0-0.09,0c-5.63,0-10.9-3.09-13.47-8.1c-0.88-1.72-1.7-3.45-2.45-5.2
				c-4.66-10.6-7.13-21.71-7.13-33.21c0-72.41,98.21-131.08,219.36-131.08c0.03,0,0.06,0,0.09,0c5.64,0,10.88,3.17,13.45,8.19
				C1185.32,1152.32,1188.65,1165.2,1188.65,1178.55z"/>
			<path class="st8" d="M1369.15,1311.87c-0.05,0.05-0.05,0.1-0.1,0.14c-25.28,37.49-78.77,66.42-144.72,77.35
				c-18.72,3.09-38.44,4.75-58.77,4.75c-62,0-118.02-15.39-157.93-40.15c-19.43-11.97-35.02-26.23-45.61-41.95
				c-0.05-0.1-0.1-0.14-0.14-0.24c-6.18-9.22-6.32-21.48-0.14-30.74c32.26-48.37,111.37-82.53,203.83-82.53
				c18.43,0,36.3,1.38,53.36,3.94c59.15,8.79,108.75,31.98,137.88,62.95c4.75,5.04,8.93,10.21,12.54,15.63
				C1375.56,1290.3,1375.42,1302.65,1369.15,1311.87z"/>
			<path class="st7" d="M1369.15,1311.87c-0.05,0.05-0.05,0.1-0.1,0.14c-18.14,26.9-50.82,49.4-92.2,64
				c-18.53,6.54-33.51-15.95-20.61-30.77c15.54-17.86,33.88-34.99,54.7-50.57c9.74-7.3,19.63-13.96,29.57-19.99
				c9.66-5.86,22.43-3.2,28.71,6.19c0.04,0.05,0.07,0.11,0.11,0.16C1375.56,1290.3,1375.42,1302.65,1369.15,1311.87z"/>
			<path class="st12" d="M1166.11,1198.51c26.4,0.04,40.67,31.17,23.76,51.44c-28.15,33.73-70.82,64.6-122.75,85.68
				c-5.86,2.39-11.73,4.6-17.59,6.63c-29.93,10.41-63.33,1.16-82.83-23.81c-1.65-2.12-3.21-4.26-4.68-6.44
				c-0.33-0.65-0.65,0.94-0.98-26.14c-0.03-2.41,0.64-4.8,2.02-6.77c33.06-47.34,111.28-80.59,202.5-80.59
				C1165.75,1198.51,1165.93,1198.51,1166.11,1198.51z"/>
			<path class="st14" d="M1013.09,1420.42l10.06,47.39c2.2,10.35,6.92,19.99,13.74,28.07v0c4.92,5.83,8.25,12.82,9.69,20.31
				l2.42,12.63c1.15,5.98,8.24,8.6,13,4.79l0,0c5.52-4.42,7.45-11.95,4.73-18.48l-12.84-30.78c-1.57-3.77-2.85-7.65-3.82-11.61
				l-8.81-35.93c-2.52-10.29-9.49-18.92-19.01-23.56l0,0C1017.4,1410.92,1011.97,1415.16,1013.09,1420.42z"/>
			<path class="st14" d="M1098.42,1763.07c-4.07-1.14-8.07-2.38-12-3.73c-12.3-4.2-20.72-15.59-21.57-28.56l-9.92-151.82
				c-0.29-6.37,8.27-8.65,11.17-2.99l3.28,6.37c1.52,2.95,2.66,5.99,3.52,9.17l40.48,156.89
				C1115.7,1757.4,1107.38,1765.58,1098.42,1763.07z"/>
		</g>
		<g>
			<path class="st17" d="M1375.39,1290.11c0,51.79-74.5,94.86-172.66,103.67h-0.04c-12.05,1.09-24.47,1.65-37.15,1.65
				c-72.97,0-137.25-18.7-174.85-47.07c-22.11-16.68-35-36.71-35-58.25c0-13.07,4.74-25.58,13.41-37.13
				c2.87-3.82,6.17-7.53,9.87-11.13c3.82-3.71,5.94-8.94,5.93-14.37v-0.09c0-17.93,7.29-34.85,20.21-49.74
				c11.03-12.75,26.18-24.01,44.4-33.17c4.07-2.04,6.98-6,7.83-10.63c8.07-43.52,26.14-69.23,47.31-83.42
				c30.65-20.57,67.81-17.04,90.64-8.52c0.02,0.01,0.03,0.01,0.05,0.02c11.29,4.21,12.93,20.3,2.58,26.57
				c-1.33,0.81-2.52,1.66-3.57,2.54c-8.65,7.2-3.83,22.38,7.25,22.38c8.22,0,15.48,0.59,21.9,1.63h0.01
				c36.78,5.92,45.93,26.7,48.17,37.87c0.91,4.53,3.86,8.31,7.98,10.08c18.62,8.01,66.49,33.56,66.49,84.38v0.09
				c0,5.44,2.12,10.66,5.92,14.37C1366.97,1256.3,1375.39,1272.72,1375.39,1290.11z"/>
			<path class="st7" d="M1339.74,1270.17c0,0-0.32,2.29-3.56,5.69C1338.64,1272.31,1339.74,1270.17,1339.74,1270.17z"/>
			<path class="st10" d="M1352.09,1241.85c-3.81-3.71-5.92-8.94-5.92-14.37v-0.09c0-50.81-47.88-76.37-66.49-84.38
				c-4.12-1.78-7.06-5.55-7.98-10.08c-1.66-8.32-7.16-21.97-25.06-30.84c-6.79-3.37-14.04,3.63-10.85,10.5
				c0.02,0.03,0.03,0.07,0.05,0.1c4.91,10.6,1.76,23.27-7.45,30.46c-9.6,7.5-23.81,12.58-36.29,15.87
				c-6.74,1.78-6.4,11.51,0.45,12.78c19.96,3.69,36.06,2.45,46.85,0.44c7.98-1.49,16.05,2.29,19.95,9.41
				c4.45,8.11,7.72,19.05,7.72,33.66c0,2.64-0.09,5.16-0.24,7.57c-0.84,12.71-3.78,22.43-7.35,29.77c-1.33,2.73-2.74,5.13-4.18,7.23
				c-4.79,7-3.27,16.57,3.47,21.75c5.07,3.91,10.23,9.46,13.86,17.2c3.01,6.39,4.96,14.31,4.96,24.03c0,14.59-5.95,27.84-15.57,38.9
				c-7.55,8.69,0.9,21.88,11.92,18.54c60.81-18.44,101.47-51.94,101.47-90.2C1375.39,1272.72,1366.97,1256.3,1352.09,1241.85z"/>
			<path class="st15" d="M1281.04,1247.77c-71.74,17.97-209.77,35.46-229.69-87.47c-1.2-7.39,0.3-14.96,4.11-21.4
				c0.9-1.53,1.55-3.23,1.88-5.04c3.99-21.48,10.4-38.62,18.43-52.18c5.54-9.37,19.92-4.36,18.36,6.41
				c-5.08,35.05,0.98,84.89,67.62,105.5c52.24,16.15,91.99,26.39,119.08,32.62C1292.19,1228.82,1292.35,1244.93,1281.04,1247.77z"/>
			<path class="st17" d="M1281.04,1247.76c-6.67,1.67-13.91,3.34-21.58,4.89c3.57-7.34,6.51-17.06,7.35-29.77
				c5,1.21,9.67,2.32,14.02,3.32C1292.19,1228.82,1292.35,1244.93,1281.04,1247.76z"/>
			<path class="st15" d="M1282.82,1297.05c11.58-2.22,17.36,13.49,7.13,19.35c-27.06,15.51-67.05,28.94-124.41,28.94
				c-93.43,0-157.69-37.32-188.65-80.23c-5.14-7.13-4.32-17.02,1.97-23.15c0.04-0.04,0.07-0.07,0.11-0.11
				c3.82-3.71,5.94-8.94,5.93-14.37v-0.09c0-10.05,2.29-19.78,6.58-29.02c3.56-7.67,14.87-6.43,16.66,1.83
				c8.72,40.47,40.88,105.42,157.41,105.42C1219.74,1305.63,1257.09,1301.99,1282.82,1297.05z"/>
			<path class="st17" d="M1289.96,1316.39c-3.86,2.21-7.99,4.38-12.39,6.48c0-9.72-1.95-17.64-4.96-24.03
				c3.58-0.57,6.99-1.17,10.21-1.79C1294.4,1294.82,1300.18,1310.53,1289.96,1316.39z"/>
			<path class="st15" d="M1171.35,1058.2c5.88-0.94,10.21,5.56,6.84,10.48c-4.27,6.24-7.99,16.12-7.99,31.64
				c0,16.69,8.89,25.53,18.54,30.21c3.91,1.9,2.44,7.81-1.91,7.75c-20.88-0.3-46.77-7-46.77-38.32
				C1140.06,1069.61,1157.04,1060.49,1171.35,1058.2z"/>
			<path class="st15" d="M1326.1,1215.67c-5.99,4.96-17.46,1.24-27.11-8.23c-1.26-1.25-2.5-2.59-3.69-4.03
				c-10.23-12.38-13.03-26.95-6.25-32.55c2.32-1.91,5.45-2.54,8.98-2.02c6.8,0.97,15.09,6.13,21.82,14.28
				C1330.08,1195.49,1332.88,1210.07,1326.1,1215.67z"/>
			
				<ellipse transform="matrix(0.8479 -0.5301 0.5301 0.8479 -473.5863 904.6995)" class="st15" cx="1340" cy="1277.76" rx="19.5" ry="35.6"/>
			<path class="st15" d="M1151.86,1057.11c-13.47,6.58-26.14,15.05-36.21,25.89c-12.79,13.75-18.59,29.88-20.7,45.18
				c-2.03,14.83-0.6,28.87,1.36,39.21c1.67,8.82-4.05,17.37-12.85,19.12c-8.74,1.73-16.12,4.37-22.32,7.65
				c-25.9,13.63-31.56,38.16-32.41,53.26c-0.01,0.22-0.03,0.45-0.05,0.67c-0.62,7.42-4.58,14.22-10.88,18.24
				c-9.47,6.04-16.04,13.59-20.52,21.66c-5.8,10.4-8.13,21.66-8.8,31.6c-0.72,10.71-14.45,14.66-20.66,5.9
				c-7.86-11.05-12.14-22.97-12.14-35.38c0-13.07,4.74-25.58,13.41-37.13c2.84-3.79,6.11-7.46,9.77-11.02
				c0.03-0.03,0.07-0.07,0.11-0.11c3.82-3.71,5.94-8.94,5.93-14.37v-0.09c0-0.63,0.01-1.26,0.03-1.88c0.02-0.77,0.05-1.53,0.11-2.3
				c0.02-0.48,0.06-0.95,0.11-1.41c-0.01-0.01,0-0.03,0-0.05c0.04-0.48,0.09-0.96,0.14-1.44c0.04-0.37,0.09-0.76,0.14-1.13
				c0-0.09,0.01-0.17,0.03-0.26c0.04-0.4,0.1-0.82,0.16-1.22c0.04-0.27,0.09-0.53,0.13-0.81c0.05-0.37,0.12-0.74,0.19-1.12
				c0.1-0.54,0.19-1.09,0.31-1.63c0.45-2.17,0.99-4.32,1.65-6.45c0.09-0.29,0.17-0.57,0.27-0.85c0.16-0.49,0.32-0.98,0.49-1.46
				c0.2-0.6,0.41-1.19,0.64-1.78c0.21-0.59,0.45-1.17,0.68-1.76s0.48-1.17,0.73-1.76c0.24-0.57,0.51-1.16,0.78-1.73
				c0.01-0.03,0.03-0.06,0.04-0.1c3.36-7.21,7.95-14.11,13.59-20.63c11.03-12.75,26.18-24.01,44.4-33.17
				c2.48-1.24,4.52-3.19,5.94-5.57c0-0.01,0.01-0.01,0.01-0.02c0.08-0.13,0.16-0.27,0.22-0.39c0.27-0.48,0.51-0.97,0.71-1.48
				c0.1-0.21,0.18-0.41,0.26-0.64c0.1-0.27,0.19-0.53,0.28-0.81c0.17-0.56,0.31-1.13,0.42-1.71c0.88-4.77,1.88-9.31,3-13.65
				c0.3-1.17,0.61-2.33,0.93-3.47c0.66-2.38,1.35-4.7,2.08-6.97c0.18-0.56,0.36-1.13,0.55-1.68c0.18-0.55,0.37-1.11,0.56-1.66
				c1.03-2.98,2.12-5.85,3.27-8.61c0.18-0.43,0.36-0.85,0.54-1.28c1.08-2.54,2.21-4.99,3.39-7.34c0.23-0.47,0.47-0.94,0.71-1.39
				c0.17-0.35,0.35-0.68,0.52-1.02c0.22-0.4,0.44-0.81,0.66-1.21c0.48-0.89,0.97-1.77,1.47-2.63c0.24-0.44,0.49-0.86,0.74-1.29
				c8.23-13.9,18.16-24.05,28.88-31.23c13.07-8.78,27.34-13.17,41.17-14.66C1158.3,1034.44,1163.13,1051.6,1151.86,1057.11z"/>
			<path class="st16" d="M1028.68,1248.08c-0.62,7.42-4.58,14.22-10.88,18.24c-9.47,6.04-16.04,13.59-20.52,21.66
				c-7.9-7.31-14.71-15-20.39-22.88c-5.14-7.13-4.32-17.02,1.98-23.15c0.03-0.03,0.07-0.07,0.11-0.11
				c3.82-3.71,5.94-8.94,5.93-14.37v-0.09c0-0.63,0.01-1.26,0.03-1.88c0.02-0.77,0.05-1.53,0.11-2.3c0.02-0.48,0.06-0.95,0.11-1.41
				c-0.01-0.01,0-0.03,0-0.05c0.04-0.48,0.09-0.96,0.14-1.44c0.04-0.37,0.09-0.76,0.14-1.13c0-0.09,0.01-0.17,0.03-0.26
				c0.04-0.4,0.1-0.82,0.16-1.22c0.04-0.27,0.09-0.53,0.13-0.81c0.05-0.37,0.12-0.74,0.19-1.12c0.1-0.54,0.19-1.09,0.31-1.63
				c0.45-2.17,0.99-4.32,1.65-6.45c0.09-0.29,0.17-0.57,0.27-0.85c0.16-0.49,0.32-0.98,0.49-1.46c0.2-0.6,0.41-1.19,0.64-1.78
				c0.21-0.59,0.45-1.17,0.68-1.76s0.48-1.17,0.73-1.76c0.24-0.57,0.51-1.16,0.78-1.73c0.01-0.03,0.03-0.06,0.04-0.1
				c3.62-7.56,14.85-6.31,16.62,1.94C1011.2,1214.43,1017.16,1231.69,1028.68,1248.08z"/>
			<path class="st16" d="M1083.47,1186.5c-8.74,1.73-16.12,4.37-22.32,7.65c-4.39-9.88-7.73-21.11-9.8-33.86
				c-1.2-7.38,0.3-14.93,4.1-21.38c0-0.01,0.01-0.01,0.01-0.02c0.07-0.13,0.15-0.27,0.22-0.39c0.27-0.48,0.51-0.97,0.71-1.48
				c0.1-0.21,0.18-0.43,0.26-0.64c0.11-0.27,0.19-0.54,0.28-0.81c0.17-0.56,0.31-1.13,0.42-1.71c0.88-4.77,1.88-9.31,3-13.65
				c0.3-1.17,0.61-2.33,0.93-3.47c0.66-2.38,1.35-4.7,2.08-6.97c0.18-0.56,0.36-1.13,0.55-1.68c0.18-0.55,0.37-1.11,0.56-1.66
				c1.03-2.98,2.12-5.85,3.27-8.61c0.18-0.43,0.36-0.85,0.54-1.28c1.08-2.54,2.21-4.99,3.39-7.34c0.23-0.47,0.47-0.94,0.71-1.39
				c0.17-0.35,0.35-0.68,0.52-1.02c0.22-0.4,0.44-0.81,0.66-1.21c0.48-0.89,0.97-1.77,1.47-2.63c0.24-0.44,0.49-0.86,0.74-1.29
				c5.54-9.36,19.91-4.35,18.35,6.41c-1.77,12.19-2.19,26.18,0.83,40.09c-2.03,14.83-0.6,28.87,1.36,39.21
				C1097.99,1176.2,1092.26,1184.76,1083.47,1186.5z"/>
			<path class="st0" d="M1121.9,1097.64c-8.99,19.91-22.84,33.08-30.93,29.43c-8.09-3.65-7.35-22.75,1.64-42.66
				s29.72-29.12,37.81-25.46C1138.5,1062.6,1130.89,1077.74,1121.9,1097.64z"/>
			<path class="st0" d="M1047.61,1197.46c-13.56,11.66-28.4,16.64-33.14,11.13c-4.74-5.51,2.42-19.43,15.98-31.09
				c13.56-11.66,32.13-11.32,36.87-5.81S1061.17,1185.8,1047.61,1197.46z"/>
		</g>
		<ellipse class="st8" cx="1056.95" cy="1220.79" rx="18.65" ry="13.41"/>
		<ellipse class="st8" cx="1178.58" cy="1127.68" rx="18.65" ry="13.41"/>
		<ellipse class="st8" cx="1265.28" cy="1215.31" rx="18.65" ry="13.41"/>
		<ellipse class="st8" cx="1178.6" cy="1301.39" rx="18.65" ry="13.41"/>
		<ellipse class="st8" cx="1158.2" cy="1300.6" rx="7.74" ry="5.57"/>
		<ellipse class="st8" cx="1153.65" cy="1280.51" rx="7.74" ry="5.57"/>
		<ellipse class="st8" cx="1203.54" cy="1286.08" rx="7.74" ry="5.57"/>
		<ellipse class="st8" cx="1095.05" cy="1220.79" rx="7.74" ry="5.57"/>
		<ellipse class="st8" cx="1180.91" cy="1168.66" rx="7.74" ry="5.57"/>
		<ellipse class="st8" cx="1212.54" cy="1137.56" rx="7.74" ry="5.57"/>
		<ellipse class="st8" cx="1198.76" cy="1122.63" rx="7.74" ry="5.57"/>
		<ellipse class="st8" cx="1181.51" cy="1140.6" rx="7.74" ry="5.57"/>
		<ellipse class="st8" cx="1159.09" cy="1129.47" rx="7.74" ry="5.57"/>
		<ellipse class="st8" cx="1128.21" cy="1143.12" rx="7.74" ry="5.57"/>
		<ellipse class="st8" cx="1239.71" cy="1160.81" rx="7.74" ry="5.57"/>
		<ellipse class="st8" cx="1197.99" cy="1223.43" rx="7.74" ry="5.57"/>
		<ellipse class="st8" cx="1286.19" cy="1185.42" rx="7.74" ry="5.57"/>
		<ellipse class="st8" cx="1288.41" cy="1214.23" rx="7.74" ry="5.57"/>
		<ellipse class="st8" cx="1282.19" cy="1221.93" rx="7.74" ry="5.57"/>
		<ellipse class="st8" cx="1245.82" cy="1215.31" rx="7.74" ry="5.57"/>
		<ellipse class="st8" cx="1251.72" cy="1209.74" rx="7.74" ry="5.57"/>
		<ellipse class="st8" cx="1251.72" cy="1236.32" rx="7.74" ry="5.57"/>
		<ellipse class="st8" cx="1333.53" cy="1249.76" rx="7.74" ry="5.57"/>
		<ellipse class="st8" cx="1289.44" cy="1291.65" rx="7.74" ry="5.57"/>
		<ellipse class="st8" cx="1087.31" cy="1141.09" rx="7.74" ry="5.57"/>
		<ellipse class="st8" cx="1071.37" cy="1233.07" rx="7.74" ry="5.57"/>
		<ellipse class="st8" cx="1047.19" cy="1209.66" rx="7.74" ry="5.57"/>
		<ellipse class="st8" cx="1019.08" cy="1240.62" rx="7.74" ry="5.57"/>
		<ellipse class="st8" cx="1075.6" cy="1266.03" rx="7.74" ry="5.57"/>
		
			<ellipse transform="matrix(0.9611 -0.2763 0.2763 0.9611 -270.4968 367.8588)" class="st8" cx="1170.19" cy="1143.86" rx="7.74" ry="5.57"/>
	</g>
	<g>
		<path class="st16" d="M1373.3,239.48c-17.01-16.63-50.89-20.85-75.66-9.43l-14.48,6.67c-24.78,11.42-31.07,34.15-14.06,50.78h0
			c17.01,16.63,50.89,20.85,75.66,9.43l14.48-6.67c3.24-1.49,6.15-3.19,8.74-5.03l-37.11,319.68c0,0,89.04-57.48,89.04-198.96
			S1373.3,239.48,1373.3,239.48z"/>
		<path class="st15" d="M1270.74,723.36c-21.78,24.71-67.25,43.91-123.49,51.66c-17.69,2.49-36.4,3.8-55.85,3.8
			c-33.43,0-64.81-3.9-92.25-10.72c-27.39-6.82-50.83-16.57-68.18-28.41c-1.07-0.73-2.14-1.46-3.17-2.19
			c-3.85-2.83-7.41-5.7-10.57-8.72C770.55,603.92,794.04,347.3,794.04,347.3h593.75C1387.79,347.3,1410.6,596.66,1270.74,723.36z"/>
		<path class="st17" d="M1270.74,723.36c-11.45,12.99-29.44,24.45-52.1,33.53c-27.92,11.19-56.76-14.59-48.48-43.5
			c35.61-124.35,38.64-299.14,38.64-299.14s-8.58-14.23,36.11-66.96h142.88C1387.79,347.3,1410.6,596.66,1270.74,723.36z"/>
		<path class="st13" d="M1241.29,661.78c-18.23,20.66-56.24,36.7-103.26,43.18c-14.81,2.1-30.46,3.17-46.69,3.17
			c-27.97,0-54.24-3.22-77.14-8.92c-22.9-5.75-42.54-13.89-57.02-23.78c-0.93-0.63-1.8-1.22-2.68-1.85
			c-3.22-2.34-6.19-4.73-8.82-7.26c-15.16-12.91-28.12-27.48-39.23-43.13c-78.9-111.01-63.79-275.87-63.79-275.87h496.53
			C1339.19,347.31,1358.25,555.84,1241.29,661.78z"/>
		<path class="st16" d="M863.75,667.62c-86.91-132.45-69.72-320.32-69.72-320.32h104.87c-7.94,23.68-16.91,36.84-16.91,36.84
			l27.36,267.6C912.02,677.75,878.1,689.48,863.75,667.62z"/>
		<path class="st12" d="M906.45,623.18c-78.9-111.01-63.79-275.87-63.79-275.87h56.24c-7.94,23.68-16.91,36.84-16.91,36.84
			L906.45,623.18z"/>
		<path class="st14" d="M1388.75,339.81c0,58.92-81.53,109.06-195.66,128.12c-31.72,5.31-65.98,8.19-101.7,8.19
			c-164.23,0-297.36-61.01-297.36-136.3s133.14-136.3,297.36-136.3c117.49,0,219.05,31.24,267.34,76.56
			C1377.98,298.09,1388.75,318.36,1388.75,339.81z"/>
		<path class="st16" d="M1388.75,339.81c0,52.53-64.8,98.08-159.74,120.85c-29.88,7.16-60.37-12.16-65.12-42.51
			c-0.51-3.28-0.77-6.58-0.77-9.92c0-52.56,64.84-98.17,159.85-120.93c28.47-6.82,58.14,10.28,64.32,38.9
			C1388.26,330.67,1388.75,335.21,1388.75,339.81z"/>
		<path class="st15" d="M1343.68,339.81c0,9.45-3.02,18.62-8.72,27.34c-28.95,44.54-127.04,77.34-243.56,77.34
			c-116.52,0-214.62-32.8-243.56-77.34c-5.7-8.72-8.72-17.88-8.72-27.34c0-57.8,112.96-104.68,252.29-104.68
			C1230.72,235.13,1343.68,282.01,1343.68,339.81z"/>
		<path class="st12" d="M1304.61,338.52c20.71,13.56,20.71,43.68,0,57.24c-44.72,29.28-123.51,48.72-213.22,48.72
			c-89.71,0-168.5-19.44-213.22-48.72c-20.71-13.56-20.71-43.68,0-57.24c44.72-29.28,123.51-48.72,213.22-48.72
			C1181.1,289.81,1259.89,309.25,1304.61,338.52z"/>
		<path class="st7" d="M911.46,483.19c-8.25-10.22-24.75-2.57-22.34,10.34c4.96,26.61,18.4,79.77,50.47,113.26
			C973.78,642.51,942.09,521.15,911.46,483.19z"/>
	</g>
	<g>
		<g>
			<path class="st6" d="M2052.95,1700.41c0,44.67-69.32,81.67-160.04,88.49c-9.77,0.71-19.82,1.1-30.06,1.1
				c-80.34,0-149.05-23.49-176.89-56.7c-8.53-10.18-13.21-21.25-13.21-32.89c0-45.38,71.71-82.92,164.62-88.81
				c8.32-0.5,16.85-0.78,25.48-0.78c80.64,0,149.56,23.67,177.16,57.05C2048.37,1677.99,2052.95,1688.95,2052.95,1700.41z"/>
			<path class="st14" d="M2096.95,1375.18l-4.21,67.48l-2.93,47.08l-8.75,139.49l-1.47,23.83h-0.05c0,38.11-44.26,71.29-109.86,88.9
				c-22.08,5.88-46.55,10.03-72.57,11.96c-11.13,0.82-22.59,1.25-34.27,1.25c-91.58,0-169.88-26.77-201.63-64.63
				c-9.71-11.62-15.07-24.21-15.07-37.48l-1.47-23.73l-8.7-139.54l-2.93-47.12l-4.21-67.48H2096.95z"/>
			<path class="st8" d="M2089.8,1489.74l-8.75,139.49c-19.2,24.21-56.12,44.38-103.31,57.01c-23.78,6.37-50.08,10.8-78.07,12.88
				c-11.96,0.87-24.28,1.35-36.83,1.35c-98.5,0-182.71-28.8-216.84-69.51c-0.46-0.53-0.92-1.06-1.33-1.64l-8.7-139.54
				c47.65,35.36,131.4,58.8,226.87,58.8c14.48,0,28.68-0.53,42.47-1.54c32.25-2.41,62.58-7.52,89.98-14.86
				C2033.72,1521.91,2066.2,1507.25,2089.8,1489.74z"/>
			<path class="st6" d="M2096.95,1375.18l-4.21,67.48l-2.93,47.08l-8.75,139.49l-1.47,23.83h-0.05c0,27.54-23.09,52.48-60.61,70.86
				c-22.13,10.8-47.05-7.81-44.94-33.38l0.27-3.42l12.87-152.85l13.42-159.08H2096.95z"/>
			<path class="st4" d="M2096.95,1375.18l-4.21,67.48c-26.57,25.76-71.97,46.3-127.73,57.78c-19.43,4-40.13,6.95-61.76,8.54
				c-13.15,0.92-26.62,1.5-40.41,1.5c-100.98,0-188.34-27.64-229.81-67.82l-4.21-67.48H2096.95z"/>
			<path class="st6" d="M2118.37,1263.77v90.11c0,49.36-63.05,91.81-153.36,110.4c-19.43,3.99-40.15,6.92-61.76,8.53
				c-13.14,0.93-26.61,1.49-40.4,1.49c-107.96,0-200.33-31.58-237.74-76.23c-11.49-13.67-17.78-28.57-17.78-44.18v-90.11h86.15
				c37.05-15.49,83.65-25.98,135.14-29.24c11.17-0.68,22.62-1.06,34.23-1.06c18.18,0,35.92,0.89,53.05,2.63
				c44.02,4.37,83.9,14.09,116.35,27.67H2118.37z"/>
			<path class="st4" d="M2118.37,1263.77v90.11c0,37.95-37.26,71.81-95.52,93.88c-35.87,13.59-75.95-3.42-92.12-39.76
				c-14.53-32.66-22.64-69.11-22.64-107.52c0-22.24,2.74-43.8,7.82-64.39c44.02,4.37,83.9,14.09,116.35,27.67H2118.37z"/>
			<path class="st14" d="M2118.36,1263.75c0,60.04-93.17,109.78-215.11,118.93c-13.14,0.95-26.63,1.48-40.4,1.48
				c-107.98,0-200.34-31.57-237.75-76.2c-11.46-13.69-17.76-28.56-17.76-44.21c0-60.99,96.39-111.45,221.27-119.36
				c11.19-0.67,22.65-1.05,34.24-1.05c108.39,0,201.02,31.81,238.12,76.68C2112.2,1233.61,2118.36,1248.35,2118.36,1263.75z"/>
			<path class="st4" d="M2107.6,1245.86c0,32.98-29.35,62.73-76.4,83.74c-35.03,15.66-79.82,26.49-129.65,30.22
				c-12.58,0.89-25.52,1.4-38.7,1.4c-103.45,0-191.9-30.22-227.74-73c-0.73-0.85-1.41-1.7-2.1-2.55
				c-9.64-12.39-14.92-25.76-14.92-39.81c0-5.73,0.93-11.38,2.66-16.89h-0.04l16.45-57.55h38.9c2.66-1.49,5.44-2.93,8.26-4.37
				c37.61-18.93,88.49-31.83,145.7-35.48c10.72-0.64,21.69-1.02,32.82-1.02c65.19,0,124.45,12.01,168.28,31.66
				c6.57,2.89,12.74,5.98,18.59,9.21h38.86l16.41,57.55h-0.04C2106.68,1234.48,2107.6,1240.13,2107.6,1245.86z"/>
			<path class="st6" d="M1702.23,1208.72c0,22.92-15.26,44.15-41.25,61.55c-18.15,12.15-42.72-1.34-42.89-23.99
				c0-0.14,0-0.28,0-0.42c0-5.73,0.93-11.38,2.66-16.89h-0.04l16.45-57.55h38.9c2.66-1.49,5.44-2.93,8.26-4.37
				c0.85,0.89,1.65,1.83,2.42,2.76C1696.75,1181.89,1702.23,1195.01,1702.23,1208.72z"/>
			<path class="st6" d="M2090.27,1184.65c0,53.44-82.93,97.71-191.46,105.86c-11.69,0.85-23.71,1.32-35.96,1.32
				c-96.11,0-178.31-28.1-211.61-67.83c-10.2-12.18-15.8-25.42-15.8-39.35c0-54.29,85.79-99.19,196.94-106.24
				c9.96-0.59,20.16-0.93,30.48-0.93c96.47,0,178.92,28.31,211.94,68.25C2084.78,1157.83,2090.27,1170.94,2090.27,1184.65z"/>
			<path class="st5" d="M2107.6,1245.86c0,23.12-14.42,44.65-39.25,62.69c-22.09,16.06-50.78,17.47-74.12,3.5
				c-13.48-8.08-24.55-17.09-32.7-26.8c-10.2-12.18-15.8-25.42-15.8-39.39c0-33.83,33.34-64.01,85.39-83.66
				c6.57,2.89,12.74,5.98,18.59,9.21h38.86l16.41,57.55h-0.04C2106.68,1234.48,2107.6,1240.13,2107.6,1245.86z"/>
			<path class="st4" d="M2090.27,1184.65c0,49.31-70.62,90.82-166.81,103.34c-20.79,2.71-39.91-13.93-40.09-35.99
				c0-0.14,0-0.27,0-0.41c0-49.28,70.66-90.82,166.8-103.34c20.79-2.71,39.91,13.93,40.09,35.98
				C2090.27,1184.37,2090.27,1184.51,2090.27,1184.65z"/>
			<path class="st14" d="M1848.17,1117.76c0,50.24-73.32,92.38-172.27,104.01c-21.06,2.48-40.29-14.39-40.47-36.7
				c0-0.14,0-0.28,0-0.42c0-50.2,73.35-92.37,172.27-104.01c21.06-2.48,40.29,14.39,40.47,36.7
				C1848.17,1117.48,1848.17,1117.62,1848.17,1117.76z"/>
			<path class="st4" d="M2017.5,1184.65c0,8.49-3.63,16.6-10.28,24.07c-10.6,11.88-28.83,22.2-52.13,29.71
				c-25.76,8.28-57.69,13.16-92.24,13.16c-40.96,0-78.17-6.88-105.83-18.12c-16.81-6.83-30.08-15.28-38.5-24.74
				c-6.65-7.47-10.28-15.58-10.28-24.07c0-27.16,37.41-50.51,91.15-60.99c19.35-3.82,40.84-5.9,63.46-5.9
				c53.62,0,100.87,11.8,128.61,29.71C2007.9,1158.12,2017.5,1170.9,2017.5,1184.65z"/>
			<path class="st6" d="M2017.5,1184.65c0,8.49-3.63,16.6-10.28,24.07c-10.6,11.88-28.83,22.2-52.13,29.71
				c-6.33-4.12-11.65-8.49-15.84-13.2c-6.65-7.47-10.28-15.58-10.28-24.07c0-18.98,18.27-36.08,47.57-48.24
				c10.05-4.17,21.68-1.8,29.33,6.23C2013.36,1167.02,2017.5,1175.62,2017.5,1184.65z"/>
			<path class="st5" d="M1848.17,1172.38c0,8.49-3.63,16.6-10.28,24.07c-14.63,16.47-43.86,29.8-80.87,37.01
				c-16.81-6.83-30.08-15.28-38.5-24.74c-6.65-7.47-10.28-15.58-10.28-24.07c0-23.74,28.58-44.57,71.67-56.44
				c13.35-3.68,27.54-1.9,39.51,5.33C1837.53,1144.49,1848.17,1157.89,1848.17,1172.38z"/>
			<path class="st6" d="M1975.28,1186.8c18.04,8.26,18.04,35.57,0,43.83c-28.19,12.91-68.14,20.96-112.43,20.96
				c-44.29,0-84.23-8.05-112.4-20.96c-18.03-8.26-18.03-35.56,0-43.82c28.18-12.91,68.11-20.96,112.4-20.96
				C1907.14,1165.85,1947.09,1173.9,1975.28,1186.8z"/>
			<path class="st12" d="M2089.8,1489.74l-8.75,139.49c-19.2,24.21-56.12,44.38-103.31,57.01c-1.15,0.29-2.34,0.63-3.48,0.87
				l12.87-152.85c2.75-0.68,5.45-1.35,8.15-2.07C2033.72,1521.91,2066.2,1507.25,2089.8,1489.74z"/>
		</g>
		<path class="st12" d="M1998.77,1260.17c12.88-4.24,38.64-14.62,61.19-35.31c6.6-6.06,2.61-17.13-6.33-17.83l-23.33-1.84
			c-3.14-0.25-6.23,1.08-8.13,3.59c-4.83,6.41-16.01,19-33.96,26.56c-4.71,1.98-6.7,7.6-4.56,12.24l3.42,7.45
			C1989.1,1259.47,1994.13,1261.7,1998.77,1260.17z"/>
	</g>
	<g>
		<path class="st13" d="M2674.27,1713.97l46.87-20.74c14.72-6.52,32-1.28,40.63,12.32l88.92,140.12
			c7.37,11.61,4.15,26.97-7.25,34.65l-11.07,7.46c-8.3,5.59-19.57,3.3-25.03-5.09l-76.34-117.29l-38.59,15.35L2674.27,1713.97z"/>
		<ellipse class="st13" cx="2545.45" cy="2075.36" rx="245.59" ry="127.52"/>
		<path class="st16" d="M2817.84,1955.75c0,125.95-104.74,193.86-239.35,202.39c-9.65,0.61-19.48,0.91-29.43,0.91
			c-148.46,0-268.79-68.3-268.79-203.3s120.33-285.62,268.79-285.62c54.15,0,104.53,20.04,146.73,52.07
			C2769.27,1777.95,2817.84,1870.01,2817.84,1955.75z"/>
		<path class="st13" d="M2772.69,1948.83c0,106.22-89.55,162.83-203.73,168.63c-6.58,0.35-13.2,0.52-19.91,0.52
			c-123.53,0-223.64-56.83-223.64-169.15c0-8.22,0.52-16.53,1.6-24.84c37.7,44.97,122.71,76.31,221.61,76.31
			c5.71,0,11.38-0.09,17.01-0.3c92.24-3.38,170.23-34.02,205.38-76.87C2772.13,1931.73,2772.69,1940.3,2772.69,1948.83z"/>
		<path class="st15" d="M2817.84,1955.75c0,110.5-80.62,176.33-191.3,196.57c-28.02,5.13-54.9-14.1-59.33-42.24
			c-10.24-65-3.51-140.45,22.92-215.8c17.17-48.96,40.86-92.75,68.68-129.59c19.43-25.72,57.47-27.67,79.07-3.74
			C2787.24,1815.66,2817.84,1887.7,2817.84,1955.75z"/>
		<path class="st12" d="M2772.04,1917.58c0,45.79-91.33,83.23-206.89,86.35c-5.15,0.13-10.39,0.22-15.63,0.22
			c-122.88,0-222.52-38.74-222.52-86.57c0-47.83,99.64-86.57,222.52-86.57c22.94,0,45.01,1.34,65.83,3.85
			C2706.08,1845.77,2772.04,1878.66,2772.04,1917.58z"/>
		<path class="st12" d="M2772.69,1948.83c0,106.22-89.55,162.83-203.73,168.63c-0.74-2.38-1.34-4.8-1.73-7.36
			c-5.41-34.32-6.1-71.55-1.6-110.11c92.24-3.38,170.23-34.02,205.38-76.87C2772.13,1931.73,2772.69,1940.3,2772.69,1948.83z"/>
		<path class="st8" d="M2772.04,1917.58c0,45.79-91.33,83.23-206.89,86.35c3.81-35.71,12.03-72.67,24.97-109.64
			c7.27-20.78,15.76-40.64,25.23-59.43C2706.08,1845.77,2772.04,1878.66,2772.04,1917.58z"/>
		<path class="st12" d="M2744.56,1768.03c-11.73,27.83-37.57,59.17-93.4,77.22c-28.7,9.31-65.27,15.11-112.02,15.11
			c-92.11,0-165.08-47.22-186.81-62.98c-3.81-2.73-6.02-4.5-6.54-4.93c-10.26-8.27-11.82-23.24-3.55-33.46
			c8.22-10.21,23.2-11.82,33.41-3.59c0.39,0.26,17.79,14.07,46.14,28c0.56,0.3,1.17,0.56,1.77,0.87c0.48,0.22,0.91,0.43,1.39,0.65
			c29.3,14.07,69.43,27.83,114.18,27.83c87,0,144.35-22.46,161.53-63.24c5.11-12.12,19.04-17.79,31.16-12.68
			C2743.95,1741.93,2749.67,1755.91,2744.56,1768.03z"/>
		<path class="st13" d="M2744.14,1769.02c-10,23.14-29.84,48.56-68.56,66.68c-14.91,6.98-31.25,10.31-47.71,10.57
			c-2.44,0.04-4.89,0.06-7.35,0.06c-86.95,0-162.22-25.62-198.71-62.93c0.56,0.3,1.17,0.56,1.77,0.87
			c29.43,14.28,70.12,28.48,115.56,28.48c87,0,144.35-22.46,161.53-63.24c5.35-12.7,20.4-18.32,32.89-11.87
			C2744.78,1743.42,2749.15,1757.43,2744.14,1769.02z"/>
		<path class="st8" d="M2424.96,1784.91c-17.79,8.01-39.86,12.73-63.8,12.73c-0.41,0-0.82,0-1.23,0
			c-5.15-0.04-10.15-1.88-14.12-5.18c-0.01,0-0.01-0.01-0.02-0.01c-10.26-8.27-11.82-23.24-3.55-33.46
			c8.22-10.21,23.2-11.82,33.41-3.59c0.39,0.26,17.79,14.07,46.14,28c0.56,0.3,1.17,0.56,1.77,0.87
			C2424.05,1784.48,2424.48,1784.7,2424.96,1784.91z"/>
		<path class="st15" d="M2591.64,1658.62l-264.89-0.04l31.43,56.8l-44.91,17.07c2.51,1.05,92.06,54.47,92.06,54.47v-0.1
			c30.65,21.82,83.51,36.27,143.72,36.27c8.92,0,17.57-0.3,25.88-0.87c75.66-5.28,126.9-33.8,145.13-72.2l48.13-91.41H2591.64z"/>
		<path class="st17" d="M2768.19,1658.62l-48.13,91.41c-14.47,30.48-49.76,54.74-101.55,66.09c-21.66,4.74-41.59-13.29-39.34-35.35
			l12.47-122.15H2768.19z"/>
		<path class="st16" d="M2547.47,1535.6c-124.03,0-224.57,46.47-224.57,103.79c0,6.55,1.32,12.96,3.84,19.18
			c3.4,8.4,2.41,17.95-2.02,25.85l-16.78,29.96c-5.39,9.62,2.73,21.2,13.61,19.41l55.3-9.06c17.3-2.84,35.07-2.1,51.91,2.76
			c34.44,9.94,75.12,15.69,118.72,15.69c124.03,0,224.57-46.47,224.57-103.79C2772.04,1582.07,2671.49,1535.6,2547.47,1535.6z"/>
		<path class="st17" d="M2545.94,1562.82c-101.34,0-183.5,37.97-183.5,84.81c0,5.35,1.08,10.59,3.13,15.67
			c2.78,6.86,1.97,14.66-1.65,21.12l-13.71,24.48c-4.4,7.86,2.23,17.32,11.12,15.86l45.18-7.41c14.14-2.32,28.66-1.72,42.42,2.26
			c28.14,8.12,61.38,12.82,97,12.82c101.34,0,183.5-37.97,183.5-84.81C2729.44,1600.79,2647.28,1562.82,2545.94,1562.82z"/>
		<path class="st16" d="M2363.7,1973.47c4.63,20.32,15.07,46.89,38.54,68.85c10.55,9.87,27.64,0.09,24.75-14.07
			c-4.41-21.62-14.83-49.28-39.16-69.68C2376.92,1949.44,2360.54,1959.59,2363.7,1973.47z"/>
	</g>
</g>
<text transform="matrix(1 0 0 1 413.8743 1359.885)" class="st0 st18 st19">Latte</text>
<text transform="matrix(1 0 0 1 348.6633 2318.2356)" class="st0 st18 st19">Machiatto</text>
<text transform="matrix(1 0 0 1 956.8567 2810.8093)" class="st0 st18 st19">Cappuccino</text>
<text transform="matrix(1 0 0 1 1761.7993 2810.8093)" class="st0 st18 st19">Americano</text>
<text transform="matrix(1 0 0 1 2426.4475 2305.8264)" class="st0 st18 st19">Coffee Pot</text>
<text transform="matrix(1 0 0 1 2421.8652 1419.6067)" class="st0 st18 st19">Cold Brew</text>
<text transform="matrix(1 0 0 1 1071.8751 1890.4021)" class="st0 st18 st19">Frappe</text>
<text transform="matrix(1 0 0 1 1623.6473 1890.4021)" class="st0 st18 st19">Take Away Coffee</text>
<text transform="matrix(1 0 0 1 985.6051 880.6438)" class="st0 st18 st19">Espresso</text>
<text transform="matrix(1 0 0 1 1811.0438 940.7732)" class="st0 st18 st19">Mocha</text>
</svg>
