<svg xmlns="http://www.w3.org/2000/svg" width="200" height="143" viewBox="0 0 200 143">
  <defs>
    <style>
      .cls-1 {
        fill: #3e3c3b;
        fill-rule: evenodd;
      }

      .cls-2 {
        font-size: 54.567px;
        fill: #fff;
        font-family: RakeslyRg;
        font-weight: 700;
      }
    </style>
  </defs>
  <path id="_1" data-name="1" class="cls-1" d="M100.37,22.766a48.763,48.763,0,1,0,48.716,48.765A48.74,48.74,0,0,0,100.37,22.766Zm0.327,91.347A42.968,42.968,0,0,1,60.762,86.968H71.449a1.834,1.834,0,0,0,0-3.666H59.5a42.746,42.746,0,0,1-1.155-5.014h8.093a1.834,1.834,0,0,0,0-3.666H57.89q-0.14-1.733-.143-3.5c0-.54.013-1.077,0.033-1.612h3.579a1.834,1.834,0,0,0,0-3.666H58.07a42.947,42.947,0,0,1,85.254,0h-3.7a1.834,1.834,0,0,0,0,3.666h3.99c0.02,0.535.033,1.072,0.033,1.612q0,1.769-.142,3.5h-8.96a1.834,1.834,0,0,0,0,3.666h8.5a42.724,42.724,0,0,1-1.154,5.014h-12.36a1.834,1.834,0,0,0,0,3.666h11.1A42.962,42.962,0,0,1,100.7,114.113Z"/>
  <path id="_2" data-name="2" class="cls-1" d="M157.554,104l11.7-8.02-18.5-3.78v19.274l14.344,2.983ZM42.389,104l-11.7-8.02,18.5-3.78v19.274l-14.344,2.983Zm106.4,7.517V91.634H51.965v19.883h96.826Z"/>
  <path id="_3" data-name="3" class="cls-1" d="M89.88,75.232h21.272l0.628-17.283H89.195Zm13.907-16.745-0.177,16.35H98.054l-0.193-16.35h5.926Zm9.539-2.016,0.788-3.773H86.857l0.79,3.773h25.679Zm-7.848-8.781a5.588,5.588,0,0,0-3.87,2.669,6.542,6.542,0,0,1,4.2-1.935C106.41,48.225,106.277,47.625,105.478,47.69Zm2,4.507a1.718,1.718,0,0,0,1.8-1.6c-0.132-.669-1.067-1-2.069-0.869a17.171,17.171,0,0,0-5.4,1.669C102.474,51.4,106.344,52.2,107.478,52.2Zm-1.832-9.152c-0.571-.369-1.461.069-2.061,0.88a17.231,17.231,0,0,0-2.564,5.043c0.465-.478,3.733-2.7,4.521-3.515A1.718,1.718,0,0,0,105.646,43.045ZM94.657,48.425a6.539,6.539,0,0,1,4.2,1.935,5.584,5.584,0,0,0-3.867-2.669C94.192,47.625,94.057,48.225,94.657,48.425ZM92.99,52.2c1.134,0,5-.8,5.668-0.8a17.185,17.185,0,0,0-5.4-1.669c-1-.133-1.934.2-2.067,0.869A1.717,1.717,0,0,0,92.99,52.2Zm7.1-3.3a17.225,17.225,0,0,0-2.725-4.956c-0.628-.793-1.53-1.2-2.089-0.815a1.722,1.722,0,0,0,.181,2.406C96.27,46.317,99.609,48.429,100.088,48.893Z"/>
  <text id="AWESOME_GIFT" data-name="AWESOME GIFT" class="cls-2" transform="translate(-1684.632 -2136.835) scale(0.238 0.238)">AWESOME GIFT</text>
</svg>
