<?xml version="1.0" ?><svg id="Capa_1" style="enable-background:new 0 0 512 512;" version="1.1" viewBox="0 0 512 512" xml:space="preserve" xmlns="http://www.w3.org/2000/svg" xmlns:xlink="http://www.w3.org/1999/xlink"><style type="text/css">
	.st0{fill:#fff;}
</style><g><path class="st0" d="M300,206.5c6,2.6,13-0.2,15.6-6.2c3.4-8,5.2-16.6,5.2-25.4c0-35.7-29-64.7-64.7-64.7s-64.7,29-64.7,64.7   s29,64.7,64.7,64.7c9.2,0,18.1-1.9,26.4-5.6c6-2.7,8.7-9.7,6-15.7c-2.7-6-9.7-8.7-15.7-6c-5.3,2.4-10.9,3.6-16.7,3.6   c-22.6,0-41-18.4-41-41s18.4-41,41-41s41,18.4,41,41c0,5.6-1.1,11-3.3,16.1C291.1,196.9,293.9,203.9,300,206.5z"/><path class="st0" d="M256,0C159.6,0,81.2,78.4,81.2,174.8c0,5.9,0.8,16.9,0.9,17.7c2.6,25.8,10.7,50.1,24.1,72.4l17.3,28.5   c38.9,64.2,79.1,130.5,114.5,197.9l7.5,14.3c2,3.9,6.1,6.4,10.5,6.4s8.5-2.4,10.5-6.4l7.5-14.3c18.9-36.1,40.8-74.8,68.8-122   c3.3-5.6,1.5-12.9-4.1-16.3s-12.9-1.5-16.3,4.1c-26.8,45.1-48,82.6-66.4,117.4c-35-66.1-74.2-130.8-112.2-193.5l-17.3-28.5   c-11.6-19.2-18.6-40.2-20.8-62.2c-0.2-2.9-0.8-11.4-0.8-15.6c0-83.3,67.8-151.1,151.1-151.1s151.1,67.8,151.1,151.1   c0,4.2-0.6,12.7-0.8,15.3c-2.2,22.3-9.3,43.3-20.8,62.5l-17.6,29.2c-7.1,11.7-14.2,23.4-21.2,35.1c-3.4,5.6-1.6,12.9,4,16.3   c5.6,3.4,12.9,1.6,16.3-4c7.1-11.7,14.1-23.4,21.2-35.1l17.7-29.2c13.4-22.2,21.5-46.6,24.2-72.6c0-0.5,0.9-11.5,0.9-17.4   C430.8,78.4,352.4,0,256,0z"/></g></svg>