<?xml version="1.0" ?><svg viewBox="0 0 64 64" xmlns="http://www.w3.org/2000/svg"><title/><g data-name="Layer 4" id="Layer_4"><path d="M64,.987a1,1,0,0,0-.047-.28.862.862,0,0,0-.039-.095A.9.9,0,0,0,63.866.5c-.013-.023-.032-.04-.046-.061s-.042-.058-.066-.086a.914.914,0,0,0-.147-.138C63.582.2,63.56.176,63.533.159a.984.984,0,0,0-.272-.124h-.009A1.013,1.013,0,0,0,63,0H37a1,1,0,0,0-.865.5l-36,62A1,1,0,0,0,1,64H63a1,1,0,0,0,1-1V1ZM37.576,2h5.56L8.3,62H2.737Zm8,0h7.56L18.3,62h-7.56Zm10,0h5.56L26.3,62h-5.56ZM28.737,62,62,4.714V62Z"/><path d="M21,54V51a1,1,0,0,1,1-1,3,3,0,0,0,3-3V44a1,1,0,0,1,1-1,3,3,0,0,0,3-3V37a1,1,0,0,1,1-1,3,3,0,0,0,3-3V30a1,1,0,0,1,1-1,3,3,0,0,0,3-3V23a1,1,0,0,1,1-1,3,3,0,0,0,3-3V16a1,1,0,0,1,1-1,3,3,0,0,0,3-3V9a1,1,0,0,1,1-1,3,3,0,0,0,3-3,1,1,0,0,0-2,0,1,1,0,0,1-1,1,3,3,0,0,0-3,3v3a1,1,0,0,1-1,1,3,3,0,0,0-3,3v3a1,1,0,0,1-1,1,3,3,0,0,0-3,3v3a1,1,0,0,1-1,1,3,3,0,0,0-3,3v3a1,1,0,0,1-1,1,3,3,0,0,0-3,3v3a1,1,0,0,1-1,1,3,3,0,0,0-3,3v3a1,1,0,0,1-1,1,3,3,0,0,0-3,3v3a1,1,0,0,1-1,1,3,3,0,0,0-3,3v1a1,1,0,0,0,2,0V58a1,1,0,0,1,1-1A3,3,0,0,0,21,54Z"/></g></svg>