<?xml version="1.0" encoding="UTF-8" standalone="no"?>
<!-- Created with Inkscape (http://www.inkscape.org/) -->

<svg
   width="64pt"
   height="64pt"
   viewBox="0 0 22.577778 22.577778"
   version="1.1"
   id="svg831"
   inkscape:version="1.1.1 (3bf5ae0d25, 2021-09-20)"
   sodipodi:docname="#1.svg"
   inkscape:export-filename="C:\Users\User\Desktop\Done Januari II\E\13 - Menu.png"
   inkscape:export-xdpi="576"
   inkscape:export-ydpi="576"
   xmlns:inkscape="http://www.inkscape.org/namespaces/inkscape"
   xmlns:sodipodi="http://sodipodi.sourceforge.net/DTD/sodipodi-0.dtd"
   xmlns="http://www.w3.org/2000/svg"
   xmlns:svg="http://www.w3.org/2000/svg"
   xmlns:rdf="http://www.w3.org/1999/02/22-rdf-syntax-ns#"
   xmlns:cc="http://creativecommons.org/ns#"
   xmlns:dc="http://purl.org/dc/elements/1.1/">
  <defs
     id="defs825">
    <pattern
       id="EMFhbasepattern"
       patternUnits="userSpaceOnUse"
       width="6"
       height="6"
       x="0"
       y="0" />
    <pattern
       id="EMFhbasepattern-9"
       patternUnits="userSpaceOnUse"
       width="6"
       height="6"
       x="0"
       y="0" />
    <pattern
       id="EMFhbasepattern-0"
       patternUnits="userSpaceOnUse"
       width="6"
       height="6"
       x="0"
       y="0" />
    <pattern
       id="EMFhbasepattern-7"
       patternUnits="userSpaceOnUse"
       width="6"
       height="6"
       x="0"
       y="0" />
    <pattern
       id="EMFhbasepattern-2"
       patternUnits="userSpaceOnUse"
       width="6"
       height="6"
       x="0"
       y="0" />
    <pattern
       id="EMFhbasepattern-98"
       patternUnits="userSpaceOnUse"
       width="6"
       height="6"
       x="0"
       y="0" />
    <pattern
       id="EMFhbasepattern-6"
       patternUnits="userSpaceOnUse"
       width="6"
       height="6"
       x="0"
       y="0" />
    <pattern
       id="EMFhbasepattern-01"
       patternUnits="userSpaceOnUse"
       width="6"
       height="6"
       x="0"
       y="0" />
    <pattern
       id="EMFhbasepattern-07"
       patternUnits="userSpaceOnUse"
       width="6"
       height="6"
       x="0"
       y="0" />
    <pattern
       id="EMFhbasepattern-8"
       patternUnits="userSpaceOnUse"
       width="6"
       height="6"
       x="0"
       y="0" />
    <pattern
       id="EMFhbasepattern-4"
       patternUnits="userSpaceOnUse"
       width="6"
       height="6"
       x="0"
       y="0" />
    <pattern
       id="EMFhbasepattern-40"
       patternUnits="userSpaceOnUse"
       width="6"
       height="6"
       x="0"
       y="0" />
    <pattern
       id="EMFhbasepattern-08"
       patternUnits="userSpaceOnUse"
       width="6"
       height="6"
       x="0"
       y="0" />
    <pattern
       id="EMFhbasepattern-04"
       patternUnits="userSpaceOnUse"
       width="6"
       height="6"
       x="0"
       y="0" />
    <pattern
       id="EMFhbasepattern-014"
       patternUnits="userSpaceOnUse"
       width="6"
       height="6"
       x="0"
       y="0" />
    <pattern
       id="EMFhbasepattern-27"
       patternUnits="userSpaceOnUse"
       width="6"
       height="6"
       x="0"
       y="0" />
    <pattern
       id="EMFhbasepattern-09"
       patternUnits="userSpaceOnUse"
       width="6"
       height="6"
       x="0"
       y="0" />
    <pattern
       id="EMFhbasepattern-5"
       patternUnits="userSpaceOnUse"
       width="6"
       height="6"
       x="0"
       y="0" />
    <pattern
       id="EMFhbasepattern-018"
       patternUnits="userSpaceOnUse"
       width="6"
       height="6"
       x="0"
       y="0" />
  </defs>
  <sodipodi:namedview
     id="base"
     pagecolor="#ffffff"
     bordercolor="#666666"
     borderopacity="1.0"
     inkscape:pageopacity="0.0"
     inkscape:pageshadow="2"
     inkscape:zoom="3.2460938"
     inkscape:cx="42.666667"
     inkscape:cy="42.666667"
     inkscape:document-units="pt"
     inkscape:current-layer="layer1"
     showgrid="false"
     units="pt"
     inkscape:window-width="1920"
     inkscape:window-height="1001"
     inkscape:window-x="-9"
     inkscape:window-y="41"
     inkscape:window-maximized="1"
     inkscape:pagecheckerboard="true"
     inkscape:showpageshadow="false"
     inkscape:object-paths="true"
     inkscape:snap-intersection-paths="true"
     inkscape:snap-smooth-nodes="true"
     inkscape:snap-midpoints="true"
     showguides="true"
     inkscape:snap-bbox="true"
     inkscape:bbox-nodes="true"
     inkscape:snap-nodes="false"
     inkscape:snap-global="true">
    <inkscape:grid
       type="xygrid"
       id="grid1378" />
    <sodipodi:guide
       position="0.97013831,21.607643"
       orientation="78.000048,0"
       id="guide1380"
       inkscape:locked="false" />
    <sodipodi:guide
       position="0.97013831,0.97013129"
       orientation="0,78.000005"
       id="guide1382"
       inkscape:locked="false" />
    <sodipodi:guide
       position="21.607639,0.97013129"
       orientation="-78.000048,0"
       id="guide1384"
       inkscape:locked="false" />
    <sodipodi:guide
       position="21.607639,21.607643"
       orientation="0,-78.000005"
       id="guide1386"
       inkscape:locked="false" />
  </sodipodi:namedview>
  <metadata
     id="metadata828">
    <rdf:RDF>
      <cc:Work
         rdf:about="">
        <dc:format>image/svg+xml</dc:format>
        <dc:type
           rdf:resource="http://purl.org/dc/dcmitype/StillImage" />
      </cc:Work>
    </rdf:RDF>
  </metadata>
  <g
     inkscape:label="Icon"
     inkscape:groupmode="layer"
     id="layer1"
     transform="translate(0,-274.42223)">
    <path
       id="path1225"
       style="color:#000000;display:inline;fill:#000000;stroke-width:1;stroke-linecap:round;stroke-linejoin:round;-inkscape-stroke:none"
       d="m 10.650418,278.84463 c -1.1479831,0.0742 -2.2954612,0.51406 -3.4280106,1.30344 l -0.3012909,-0.0614 c -0.2442159,-0.0512 -0.4551012,0.17597 -0.3859913,0.41573 0.4722394,1.66827 -0.158784,3.52883 -0.8359895,5.43361 -0.5660479,-0.70816 -0.8328114,-1.45899 -1.0991345,-2.26681 -0.3175773,-0.96329 -0.6279512,-2.00512 -1.4592628,-3.00323 -0.107325,-0.12915 -0.294352,-0.1575 -0.4351306,-0.0659 l -1.5853403,1.03382 c -0.17453763,0.11386 -0.20164932,0.35885 -0.056249,0.50818 1.6049838,1.65455 1.5211628,3.12788 1.5413757,4.77219 0.019961,1.62477 0.1655334,3.40582 2.1943893,5.17564 0.5486719,1.71149 1.8297526,2.79978 2.7543031,3.06917 2.1917476,0.64706 4.4549494,0.54729 6.8275694,0.005 0.03441,-0.008 0.06736,-0.0208 0.09763,-0.0388 0.692944,-0.42214 1.243813,-0.86966 1.671334,-1.34223 l 0.287707,0.10997 c -0.245991,0.46536 -0.40782,0.93081 -0.433835,1.36422 -0.01176,0.18296 0.127348,0.34065 0.310344,0.35173 0.181969,0.01 0.338038,-0.12842 0.349138,-0.31034 0.01559,-0.25974 0.130973,-0.61195 0.316809,-0.99052 2.614193,0.60813 4.200569,-2.22445 3.729949,-4.07004 -0.01593,-0.20468 -0.09556,-0.33734 -0.288367,-0.37178 0,0 -0.383909,-0.0738 -0.913574,-0.0608 1.230433,-1.60977 2.042648,-3.59587 2.096116,-5.33986 0.03049,-0.99461 -0.192029,-1.92417 -0.769396,-2.62693 -0.577366,-0.70276 -1.498646,-1.14504 -2.744607,-1.20905 -0.0041,-8e-5 -0.0081,-8e-5 -0.01226,0 v -6.7e-4 c -1.087972,-0.0225 -2.052233,0.52335 -2.818961,1.35646 -0.01917,-0.5076 0.02705,-1.00316 0.162932,-1.48318 0.06848,-0.23953 -0.142139,-0.46601 -0.385992,-0.41509 -0.09972,0.0206 -0.19955,0.0403 -0.299353,0.0594 -1.11718,-0.79057 -2.263206,-1.23568 -3.424775,-1.30408 l 6.61e-4,-0.0892 c 0.193132,-0.0878 0.351372,-0.24712 0.463577,-0.42866 0.170972,-0.27663 0.261201,-0.627 0.261205,-1.00667 4e-6,-0.37969 -0.09023,-0.72746 -0.261205,-1.0041 -0.170976,-0.27664 -0.448737,-0.50108 -0.793966,-0.50108 -0.345227,0 -0.625576,0.22444 -0.796549,0.50108 -0.170976,0.27664 -0.2618581,0.62441 -0.2618544,1.0041 3.8e-6,0.37967 0.090883,0.73004 0.2618544,1.00667 0.112104,0.18138 0.270607,0.34074 0.464222,0.42866 z m 0.332318,-2.36958 c 0.05575,0 0.137725,0.0397 0.229525,0.18815 0.0918,0.14854 0.16358,0.38583 0.163577,0.65495 -3e-6,0.26911 -0.07178,0.50901 -0.163577,0.65754 -0.0918,0.14853 -0.173776,0.18815 -0.229525,0.18815 -0.05575,0 -0.140315,-0.0397 -0.232111,-0.18815 -0.0918,-0.14853 -0.164224,-0.38843 -0.164226,-0.65754 -4e-6,-0.26912 0.07243,-0.50641 0.164226,-0.65495 0.0918,-0.14854 0.176357,-0.18815 0.232111,-0.18815 z m 2.78729,3.83469 c -1.840144,0.26471 -3.69668,0.27408 -5.575204,0.004 0.9478983,-0.54945 1.873115,-0.81477 2.801393,-0.81501 0.928281,-2.5e-4 1.845926,0.26761 2.773811,0.81177 z m 2.934666,9.72347 c -1.077757,-0.30215 -2.298013,0.17834 -3.182964,0.83534 -0.138403,0.0989 -0.227385,0.25364 -0.173923,0.43254 0,0 0.614842,1.75931 2.051502,2.30237 -0.331014,0.3142 -0.737341,0.62188 -1.225212,0.92327 -2.260937,0.50947 -4.3642197,0.5902 -6.3879139,0.002 -0.5779818,-0.2198 -0.8928477,-0.59484 -1.2109878,-0.91357 2.4076812,0.71731 4.7879967,0.82363 7.1295067,0.39244 0.179138,-0.0328 0.298161,-0.20408 0.266378,-0.3834 -0.03274,-0.18033 -0.205766,-0.29975 -0.385987,-0.26637 -2.560046,0.47142 -5.1475457,0.27609 -7.7973972,-0.70151 -0.8465161,-1.38466 -0.514572,-3.27065 -0.1151234,-4.59373 0.9387549,-2.52993 1.9182735,-4.85667 1.5478302,-7.23426 0.2436441,0.0141 0.5200284,0.0418 0.7442371,0.0776 v 3.29288 c 0,0.54963 0.4525126,1.00216 1.002152,1.00216 0.5496419,0 1.0040949,-0.45253 1.0040949,-1.00216 0,-0.19184 0.1475974,-0.33944 0.3394394,-0.33944 0.191836,0 0.340084,0.14761 0.340084,0.33944 v 1.68363 h -0.425429 c -0.08101,-4e-5 -0.159227,0.0297 -0.219829,0.0834 l -0.7551711,0.67176 c -0.070115,0.0629 -0.1100887,0.15277 -0.1099136,0.24698 v 2.34827 c 0,0.36428 0.3029787,0.66724 0.6672414,0.66724 h 2.3482703 c 0.364264,0 0.667239,-0.30296 0.667239,-0.66724 v -2.34827 c 1.75e-4,-0.0942 -0.0398,-0.18404 -0.109914,-0.24698 l -0.75517,-0.67176 c -0.06061,-0.0538 -0.138816,-0.0834 -0.219826,-0.0834 h -0.425432 v -1.68363 c 0,-0.54964 -0.452512,-1.0015 -1.00215,-1.0015 -0.5496427,0 -1.0015072,0.45186 -1.0015072,1.0015 0,0.19184 -0.1501907,0.34009 -0.3420271,0.34009 -0.1918378,0 -0.3400841,-0.14825 -0.3400841,-0.34009 v -3.20365 c 2.0283384,0.2627 4.2773684,0.14571 6.1318824,-0.16681 -0.03925,0.22318 -0.06562,0.4469 -0.07952,0.67112 -1.665888,0.3164 -3.33764,0.42606 -5.028221,0.30969 -0.1820025,-0.0113 -0.3392822,0.12581 -0.3517224,0.30776 -0.011761,0.18201 0.1257958,0.33929 0.3077582,0.35172 1.7046182,0.11736 3.3903982,0.0139 5.0657192,-0.29353 0.06819,2.75252 1.641759,5.12729 2.032097,7.85753 z m 1.366656,-8.69873 c 1.096884,0.0183 1.803677,0.38038 2.250804,0.9246 0.448121,0.54546 0.647771,1.30387 0.620689,2.18729 -0.05317,1.73458 -1.003301,3.90061 -2.390295,5.4834 -0.344646,0.0863 -0.693834,0.22698 -1.007326,0.44935 -0.05161,-0.0283 -0.103983,-0.0558 -0.157761,-0.0821 -0.0081,-0.19552 -0.02619,-0.39157 -0.05107,-0.58771 1.354341,-1.12842 2.356692,-2.82309 2.665725,-4.34159 0.160342,-0.78787 0.135842,-1.54173 -0.185559,-2.14526 -0.321403,-0.60354 -0.96279,-1.00558 -1.723603,-1.03808 -0.760811,-0.0325 -1.330404,0.30845 -1.785873,0.80339 -0.26579,0.28882 -0.499024,0.6335 -0.696982,1.01315 -0.103082,-0.36966 -0.189937,-0.73529 -0.251505,-1.09591 0.710944,-0.97287 1.615878,-1.58876 2.71276,-1.57051 z m -15.3114407,0.0208 c 0.5930733,0.80903 0.9210019,1.64 1.2116362,2.52155 0.3035645,0.92078 0.6487566,1.88629 1.4734873,2.77758 -0.4739177,1.38144 -0.9509671,2.96426 -0.8683145,4.29245 -1.2410487,-1.38185 -1.291548,-2.65089 -1.3086194,-4.03966 -0.018637,-1.51718 -0.1005475,-3.19043 -1.5349106,-4.8821 z m 15.3319657,1.49761 c 0.557209,0.0179 0.924553,0.27696 1.140195,0.68191 0.216447,0.40645 0.261008,1.0095 0.120261,1.70108 -0.249378,1.22537 -1.06912,2.68516 -2.149133,3.70667 -0.261646,-1.20196 -0.748363,-2.40953 -1.164435,-3.59935 -0.04447,-0.12717 -0.08812,-0.25367 -0.130606,-0.38017 0.222699,-0.60277 0.533872,-1.14675 0.885127,-1.52845 0.360036,-0.39123 0.741383,-0.59962 1.298594,-0.58169 z m -7.739526,3.69289 h 1.258188 l 0.549568,0.4888 v 0.8625 H 9.8021331 v -0.8625 z m -0.5502139,2.68771 v -0.67434 h 2.3579699 v 0.67434 z m 10.2665699,1.2653 c 0.225815,1.46635 -0.985895,3.40434 -2.75559,3.22435 0.496189,-0.69376 1.131731,-1.4513 1.838785,-1.86013 0.160201,-0.0895 0.217046,-0.2922 0.126727,-0.45194 -0.09819,-0.17868 -0.292164,-0.21061 -0.449355,-0.12737 -0.851727,0.56171 -1.288903,0.98566 -1.993958,1.95647 0.06611,-2.08346 1.709266,-2.78429 3.233391,-2.74138 z m -3.039432,0.36077 c -0.2088,0.23796 -0.383797,0.48883 -0.522411,0.74419 l -0.876723,-0.23471 c -0.176179,-0.0474 -0.357484,0.0567 -0.405387,0.23277 -0.04724,0.17676 0.05788,0.35834 0.234699,0.40538 l 0.787497,0.21207 c -0.100568,0.28918 -0.101744,0.62091 -0.103445,0.89354 -0.939202,-0.11423 -1.64527,-0.99631 -2.069606,-1.82134 1.122962,-0.67009 1.867097,-0.86728 2.955379,-0.4319 z"
       sodipodi:nodetypes="cccccsccccscccccccccccccsscccccccccsssssssccscssscsssccccccccccccccccccsssscccccsssscccccsssssccccccccccccccssccccscccscccscccscsscccccccccccsccccccccccccsccccc" />
  </g>
</svg>
