<svg width="24" height="21" viewBox="0 0 24 21" fill="none" xmlns="http://www.w3.org/2000/svg">
<path fill-rule="evenodd" clip-rule="evenodd" d="M11.9996 18.0225C7.35982 15.3882 4.76416 12.7625 3.50744 10.4738C2.22425 8.13692 2.3302 6.15446 3.05171 4.73895C4.52988 1.83897 8.73571 0.911128 11.2936 4.14622L11.9995 5.03906L12.7055 4.14626C15.2638 0.911056 19.4699 1.83903 20.948 4.73895C21.6695 6.15444 21.7754 8.13689 20.4921 10.4738C19.2353 12.7625 16.6395 15.3882 11.9996 18.0225ZM11.9996 2.24505C8.5199 -1.1439 3.33722 0.215176 1.44802 3.92152C0.419533 5.93927 0.400427 8.55521 1.92965 11.3402C3.44655 14.1027 6.47805 17.0306 11.5642 19.8418L11.9996 20.0824L12.4349 19.8418C17.5213 17.0306 20.5529 14.1027 22.0699 11.3402C23.5992 8.55523 23.5802 5.93929 22.5517 3.92152C20.6625 0.215111 15.4796 -1.14385 11.9996 2.24505Z" fill="#262F56"/>
</svg>
