<svg width="547" height="395" viewBox="0 0 547 395" fill="none" xmlns="http://www.w3.org/2000/svg">
<path opacity="0.6" d="M317.818 69.5496C282.751 68.3301 249.325 57.0018 217.456 44.6102C185.586 32.2187 153.999 18.4866 119.753 11.9205C97.7341 7.69252 72.5528 7.09788 54.8151 18.9099C37.7422 30.2735 32.2275 49.8914 29.2612 68.0933C27.0301 81.79 25.7358 96.2023 31.8347 109.027C36.0803 117.927 43.6145 125.41 48.827 133.936C66.9575 163.603 54.1403 200.188 34.4888 229.179C25.2725 242.785 14.5805 255.731 7.4693 270.198C0.358105 284.666 -2.9356 301.24 3.28921 315.995C9.45862 330.609 24.1544 341.605 40.079 349.33C72.4219 365.007 110.531 369.492 147.694 372.062C229.956 377.691 312.661 375.252 395.14 372.813C425.665 371.906 456.325 370.994 486.352 366.262C503.027 363.637 520.245 359.474 532.353 349.426C547.718 336.666 551.531 315.068 541.232 299.068C523.957 272.239 476.198 265.572 464.121 236.778C457.479 220.929 464.303 203.272 473.962 188.572C494.676 157.042 529.406 129.376 531.235 93.33C532.494 68.572 515.798 43.7838 489.983 32.0675C462.928 19.7767 425.408 21.3288 405.449 41.6421C384.896 62.5702 348.776 70.623 317.818 69.5496Z" fill="#587EEC"/>
<path d="M122.004 365.36C122.004 365.36 94.3044 344.407 89.0718 317.754C86.9498 306.56 81.258 296.356 72.85 288.672C68.8278 285.058 64.4836 281.819 59.8716 278.997" stroke="#9AB1F3" stroke-width="2" stroke-miterlimit="10"/>
<path d="M56.4822 262.206C58.9097 265.492 60.0076 279.415 60.0076 279.415C60.0076 279.415 47.0291 274.301 44.5966 271.02C43.4286 269.443 42.9345 267.466 43.223 265.525C43.5115 263.583 44.5591 261.836 46.1352 260.667C47.7113 259.498 49.6869 259.004 51.6273 259.292C53.5678 259.581 55.3141 260.629 56.4822 262.206Z" fill="#587EEC"/>
<path d="M79.7599 273.131C80.0117 277.208 73.3789 289.494 73.3789 289.494C73.3789 289.494 65.2554 278.135 64.9986 274.059C64.9009 272.115 65.5725 270.211 66.8679 268.76C68.1633 267.308 69.9781 266.426 71.9191 266.304C73.8601 266.182 75.771 266.83 77.2377 268.108C78.7044 269.386 79.6087 271.191 79.7548 273.131H79.7599Z" fill="#587EEC"/>
<path d="M102.322 304.536C100.489 308.185 88.5581 315.441 88.5581 315.441C88.5581 315.441 87.2839 301.533 89.1171 297.884C90.0195 296.169 91.5591 294.876 93.4044 294.284C95.2497 293.693 97.2533 293.85 98.9841 294.722C100.715 295.594 102.034 297.111 102.659 298.946C103.283 300.782 103.162 302.789 102.322 304.536Z" fill="#587EEC"/>
<path d="M114.051 332.131C112.858 336.037 102.327 345.203 102.327 345.203C102.327 345.203 98.7161 331.713 99.9097 327.802C100.483 325.926 101.778 324.354 103.51 323.434C105.242 322.513 107.268 322.318 109.144 322.892C111.019 323.466 112.59 324.762 113.51 326.494C114.43 328.227 114.625 330.255 114.051 332.131Z" fill="#587EEC"/>
<path d="M61.3724 299.371C65.4014 299.915 78.138 294.16 78.138 294.16C78.138 294.16 67.3907 285.251 63.3415 284.707C61.3981 284.445 59.4305 284.967 57.8717 286.158C56.3128 287.348 55.2903 289.109 55.0292 291.054C54.7681 292.998 55.2897 294.967 56.4792 296.527C57.6688 298.087 59.4289 299.11 61.3724 299.371Z" fill="#587EEC"/>
<path d="M75.499 331.476C79.528 330.786 89.938 321.488 89.938 321.488C89.938 321.488 77.0149 316.207 72.991 316.897C72.0276 317.055 71.1049 317.403 70.2764 317.92C69.4479 318.436 68.7298 319.112 68.1637 319.908C67.5976 320.704 67.1946 321.604 66.978 322.556C66.7614 323.509 66.7354 324.495 66.9017 325.458C67.068 326.42 67.4231 327.34 67.9467 328.165C68.4702 328.989 69.1518 329.702 69.952 330.261C70.7523 330.821 71.6554 331.216 72.6092 331.425C73.563 331.633 74.5486 331.651 75.5091 331.476H75.499Z" fill="#587EEC"/>
<path d="M93.5036 360.8C97.588 360.8 109.423 353.397 109.423 353.397C109.423 353.397 97.583 346.004 93.4986 346.004C91.5378 346.004 89.6573 346.784 88.2708 348.171C86.8843 349.558 86.1053 351.44 86.1053 353.402C86.1053 355.364 86.8843 357.245 88.2708 358.633C89.6573 360.02 91.5378 360.8 93.4986 360.8H93.5036Z" fill="#587EEC"/>
<path d="M391.091 184.133C391.091 184.133 408.164 153.872 433.899 145.154C444.705 141.563 454.057 134.563 460.551 125.203C463.596 120.729 466.225 115.984 468.402 111.028" stroke="#9AB1F3" stroke-width="2" stroke-miterlimit="10"/>
<path d="M484.559 105.485C481.627 108.327 467.984 111.27 467.984 111.27C467.984 111.27 471.333 97.7141 474.264 94.8669C475.679 93.5415 477.558 92.825 479.495 92.8716C481.433 92.9183 483.274 93.7243 484.624 95.1162C485.973 96.5081 486.723 98.3746 486.711 100.314C486.698 102.253 485.926 104.11 484.559 105.485Z" fill="#587EEC"/>
<path d="M476.843 129.991C472.814 130.787 459.785 125.838 459.785 125.838C459.785 125.838 469.958 116.264 473.962 115.483C474.924 115.269 475.918 115.25 476.887 115.426C477.856 115.603 478.78 115.971 479.604 116.509C480.429 117.048 481.138 117.746 481.689 118.562C482.241 119.378 482.624 120.297 482.816 121.263C483.007 122.229 483.004 123.225 482.807 124.19C482.609 125.155 482.221 126.071 481.664 126.884C481.108 127.697 480.395 128.391 479.567 128.924C478.739 129.458 477.813 129.82 476.843 129.991Z" fill="#587EEC"/>
<path d="M448.761 156.538C444.903 155.202 436.135 144.338 436.135 144.338C436.135 144.338 449.733 141.223 453.601 142.559C454.53 142.867 455.389 143.357 456.127 144.001C456.866 144.644 457.469 145.427 457.903 146.306C458.336 147.184 458.591 148.14 458.652 149.118C458.713 150.096 458.579 151.076 458.259 152.002C457.938 152.927 457.437 153.78 456.785 154.511C456.132 155.241 455.341 155.834 454.457 156.256C453.574 156.678 452.615 156.921 451.637 156.969C450.66 157.017 449.682 156.871 448.761 156.538Z" fill="#587EEC"/>
<path d="M422.955 171.837C418.926 171.172 408.471 161.925 408.471 161.925C408.471 161.925 421.359 156.553 425.383 157.218C427.319 157.537 429.05 158.612 430.195 160.208C431.339 161.804 431.803 163.789 431.484 165.727C431.166 167.665 430.091 169.397 428.496 170.541C426.901 171.686 424.917 172.151 422.98 171.832L422.955 171.837Z" fill="#587EEC"/>
<path d="M448.409 115.241C448.403 119.328 455.812 131.185 455.812 131.185C455.812 131.185 463.21 119.343 463.21 115.261C463.236 114.274 463.064 113.291 462.704 112.371C462.344 111.451 461.804 110.613 461.115 109.906C460.426 109.198 459.603 108.636 458.693 108.252C457.784 107.868 456.806 107.67 455.819 107.67C454.832 107.67 453.855 107.868 452.946 108.252C452.036 108.636 451.213 109.198 450.524 109.906C449.835 110.613 449.295 111.451 448.935 112.371C448.575 113.291 448.403 114.274 448.429 115.261L448.409 115.241Z" fill="#587EEC"/>
<path d="M418.478 133.513C419.697 137.414 430.293 146.509 430.293 146.509C430.293 146.509 433.818 132.994 432.59 129.094C431.952 127.287 430.639 125.798 428.926 124.94C427.214 124.082 425.235 123.923 423.408 124.496C421.58 125.069 420.046 126.329 419.128 128.011C418.211 129.693 417.981 131.665 418.488 133.513H418.478Z" fill="#587EEC"/>
<path d="M391.851 155.268C392.395 159.299 401.299 170.068 401.299 170.068C401.299 170.068 407.046 157.344 406.502 153.297C406.394 152.317 406.091 151.368 405.611 150.506C405.131 149.645 404.484 148.888 403.708 148.28C402.931 147.672 402.041 147.226 401.09 146.968C400.138 146.709 399.145 146.644 398.168 146.775C397.191 146.907 396.25 147.232 395.401 147.733C394.551 148.234 393.811 148.899 393.222 149.69C392.634 150.482 392.209 151.383 391.974 152.341C391.738 153.298 391.697 154.294 391.851 155.268Z" fill="#587EEC"/>
<path opacity="0.25" d="M484.559 105.485C481.627 108.327 467.984 111.27 467.984 111.27C467.984 111.27 471.333 97.7141 474.264 94.8669C475.679 93.5415 477.558 92.825 479.495 92.8716C481.433 92.9183 483.274 93.7243 484.624 95.1162C485.973 96.5081 486.723 98.3746 486.711 100.314C486.698 102.253 485.926 104.11 484.559 105.485Z" fill="black"/>
<path opacity="0.25" d="M476.843 129.991C472.814 130.787 459.785 125.838 459.785 125.838C459.785 125.838 469.958 116.264 473.962 115.483C474.924 115.269 475.918 115.25 476.887 115.426C477.856 115.603 478.78 115.971 479.604 116.509C480.429 117.048 481.138 117.746 481.689 118.562C482.241 119.378 482.624 120.297 482.816 121.263C483.007 122.229 483.004 123.225 482.807 124.19C482.609 125.155 482.221 126.071 481.664 126.884C481.108 127.697 480.395 128.391 479.567 128.924C478.739 129.458 477.813 129.82 476.843 129.991Z" fill="black"/>
<path opacity="0.25" d="M448.761 156.538C444.903 155.202 436.135 144.338 436.135 144.338C436.135 144.338 449.733 141.223 453.601 142.559C454.53 142.867 455.389 143.357 456.127 144.001C456.866 144.644 457.469 145.427 457.903 146.306C458.336 147.184 458.591 148.14 458.652 149.118C458.713 150.096 458.579 151.076 458.259 152.002C457.938 152.927 457.437 153.78 456.785 154.511C456.132 155.241 455.341 155.834 454.457 156.256C453.574 156.678 452.615 156.921 451.637 156.969C450.66 157.017 449.682 156.871 448.761 156.538Z" fill="black"/>
<path opacity="0.25" d="M422.955 171.837C418.926 171.172 408.471 161.925 408.471 161.925C408.471 161.925 421.359 156.553 425.383 157.218C427.319 157.537 429.05 158.612 430.195 160.208C431.339 161.804 431.803 163.789 431.484 165.727C431.166 167.665 430.091 169.397 428.496 170.541C426.901 171.686 424.917 172.151 422.98 171.832L422.955 171.837Z" fill="black"/>
<path opacity="0.25" d="M448.409 115.241C448.403 119.328 455.812 131.185 455.812 131.185C455.812 131.185 463.21 119.343 463.21 115.261C463.236 114.274 463.064 113.291 462.704 112.371C462.344 111.451 461.804 110.613 461.115 109.906C460.426 109.198 459.603 108.636 458.693 108.252C457.784 107.868 456.806 107.67 455.819 107.67C454.832 107.67 453.855 107.868 452.946 108.252C452.036 108.636 451.213 109.198 450.524 109.906C449.835 110.613 449.295 111.451 448.935 112.371C448.575 113.291 448.403 114.274 448.429 115.261L448.409 115.241Z" fill="black"/>
<path opacity="0.25" d="M418.478 133.513C419.697 137.414 430.293 146.509 430.293 146.509C430.293 146.509 433.818 132.994 432.59 129.094C431.952 127.287 430.639 125.798 428.926 124.94C427.214 124.082 425.235 123.923 423.408 124.496C421.58 125.069 420.046 126.329 419.128 128.011C418.211 129.693 417.981 131.665 418.488 133.513H418.478Z" fill="black"/>
<path opacity="0.25" d="M391.851 155.268C392.395 159.299 401.299 170.068 401.299 170.068C401.299 170.068 407.046 157.344 406.502 153.297C406.394 152.317 406.091 151.368 405.611 150.506C405.131 149.645 404.484 148.888 403.708 148.28C402.931 147.672 402.041 147.226 401.09 146.968C400.138 146.709 399.145 146.644 398.168 146.775C397.191 146.907 396.25 147.232 395.401 147.733C394.551 148.234 393.811 148.899 393.222 149.69C392.634 150.482 392.209 151.383 391.974 152.341C391.738 153.298 391.697 154.294 391.851 155.268Z" fill="black"/>
<path d="M392.073 183.533C392.073 183.533 395.427 148.943 415.401 130.55C423.825 122.884 429.54 112.693 431.688 101.504C432.666 96.1844 433.153 90.7865 433.143 85.3781" stroke="#9AB1F3" stroke-width="2" stroke-miterlimit="10"/>
<path d="M445.664 73.7071C444.153 77.4966 432.851 85.7207 432.851 85.7207C432.851 85.7207 430.424 71.9685 431.95 68.179C432.685 66.3594 434.112 64.9063 435.917 64.1394C437.722 63.3724 439.758 63.3546 441.577 64.0896C443.395 64.8247 444.848 66.2525 445.614 68.059C446.38 69.8654 446.398 71.9026 445.664 73.7222V73.7071Z" fill="#587EEC"/>
<path d="M448.539 99.2663C445.2 101.615 431.265 102.386 431.265 102.386C431.265 102.386 436.694 89.5153 440.033 87.167C440.825 86.574 441.728 86.146 442.688 85.9083C443.648 85.6707 444.646 85.6283 445.623 85.7835C446.6 85.9388 447.536 86.2886 448.375 86.8123C449.214 87.3359 449.94 88.0227 450.509 88.8321C451.078 89.6414 451.48 90.5569 451.689 91.5241C451.898 92.4914 451.911 93.4909 451.728 94.4633C451.544 95.4358 451.167 96.3615 450.62 97.1857C450.072 98.0098 449.365 98.7156 448.539 99.2612V99.2663Z" fill="#587EEC"/>
<path d="M433.602 134.934C429.533 135.277 417.113 128.887 417.113 128.887C417.113 128.887 428.294 120.522 432.363 120.179C434.317 120.015 436.257 120.634 437.754 121.9C439.252 123.167 440.186 124.977 440.351 126.932C440.515 128.887 439.896 130.828 438.631 132.326C437.365 133.825 435.556 134.76 433.602 134.924V134.934Z" fill="#587EEC"/>
<path d="M416.222 159.37C412.268 160.378 398.952 156.21 398.952 156.21C398.952 156.21 408.557 146.076 412.51 145.048C414.408 144.556 416.424 144.838 418.114 145.832C419.804 146.827 421.03 148.453 421.522 150.352C422.015 152.251 421.733 154.268 420.739 155.959C419.745 157.65 418.12 158.877 416.222 159.37Z" fill="#587EEC"/>
<path d="M416.574 97.311C418.226 101.045 429.78 108.901 429.78 108.901C429.78 108.901 431.744 95.0735 430.092 91.3394C429.269 89.5924 427.795 88.2367 425.987 87.5622C424.178 86.8876 422.177 86.9476 420.412 87.7293C418.647 88.5111 417.257 89.9526 416.54 91.7458C415.823 93.539 415.835 95.5418 416.574 97.3261V97.311Z" fill="#587EEC"/>
<path d="M396.611 126.146C399.305 129.215 412.671 133.236 412.671 133.236C412.671 133.236 410.415 119.454 407.721 116.385C407.085 115.639 406.307 115.028 405.433 114.585C404.558 114.143 403.605 113.879 402.628 113.809C401.651 113.738 400.67 113.863 399.741 114.175C398.813 114.488 397.955 114.982 397.219 115.629C396.483 116.275 395.883 117.062 395.453 117.943C395.024 118.824 394.773 119.781 394.716 120.76C394.66 121.738 394.798 122.718 395.123 123.643C395.448 124.568 395.954 125.418 396.611 126.146Z" fill="#587EEC"/>
<path d="M381.054 156.845C383.189 160.322 395.684 166.546 395.684 166.546C395.684 166.546 395.79 152.582 393.67 149.1C392.614 147.492 390.974 146.359 389.098 145.94C387.221 145.522 385.256 145.852 383.618 146.859C381.98 147.867 380.799 149.473 380.325 151.337C379.851 153.201 380.122 155.177 381.079 156.845H381.054Z" fill="#587EEC"/>
<path d="M366.388 48.0723C367.224 45.0034 368.231 41.9194 368.936 38.8101C368.09 41.9194 367.078 45.0135 366.388 48.0723Z" fill="url(#paint0_linear_21_22)"/>
<path d="M362.641 77.6327C362.57 77.5117 362.52 77.3908 362.465 77.2799C362.465 77.2295 362.414 77.1892 362.394 77.1388C362.284 77.1906 362.172 77.2361 362.057 77.2749C361.835 77.3606 361.609 77.4412 361.377 77.5067C361.145 77.5722 361.05 77.6075 360.873 77.6478C360.727 77.6982 360.577 77.7369 360.425 77.7637L360.465 77.8544C360.652 77.8141 360.833 77.7788 361.019 77.7284L361.07 78.3533C361.281 78.3533 361.478 78.3231 361.669 78.3231C361.76 78.3181 361.85 78.3181 361.941 78.3231C362.334 78.3231 362.676 78.3231 362.948 78.3231C362.842 78.0963 362.732 77.8594 362.641 77.6327ZM464.877 240.467C462.51 237.277 457.786 203.04 457.786 203.04C457.786 203.04 448.494 178.695 451.027 168.98C453.56 159.264 444.107 134.405 444.107 134.405C444.107 134.405 437.862 131.689 437.525 127.658C437.525 127.658 412.026 119.595 410.833 113.548C409.866 108.589 394.052 105.031 388.371 103.907C386.639 96.9129 384.896 90.3871 383.612 86.8243C383.264 85.7157 382.937 84.7582 382.635 84.0023C380.464 78.4591 373.756 77.9552 368.891 78.3986C368.68 77.4539 368.289 76.5589 367.738 75.7631C367.657 75.4895 367.498 75.2458 367.279 75.0626C367.175 74.9736 367.064 74.8927 366.947 74.8208C366.859 74.6574 366.743 74.5108 366.605 74.3874C366.466 74.2628 366.314 74.1546 366.151 74.0649C366.034 74.0015 365.913 73.946 365.789 73.8986C365.497 73.7874 365.195 73.7047 364.887 73.6516C364.529 73.5778 364.165 73.5307 363.799 73.5106C364.688 73.1215 365.481 72.5417 366.121 71.8123C366.557 71.3002 366.881 70.703 367.073 70.0586C367.232 69.5228 367.304 68.9646 367.284 68.4058C367.154 68.636 367.002 68.8537 366.831 69.0558C367.043 66.8234 365.864 64.5557 365.189 62.3334C364.372 59.4403 364.22 56.3993 364.746 53.4391C365.421 48.9743 367.093 44.4591 368.226 39.9137C368.229 39.8886 368.229 39.8632 368.226 39.8381C368.82 37.5808 369.188 35.2697 369.324 32.9393C369.521 28.2377 368.317 23.5461 366.383 19.2628C364.666 15.4682 362.132 11.7341 358.254 10.1921C355.374 9.02799 352.145 9.21444 349.043 9.02295C342.083 8.58957 335.445 6.14048 328.828 3.91312C322.21 1.68576 315.401 -0.340025 308.436 0.0479989C301.471 0.436023 294.304 3.79722 291.126 9.96529C290.119 11.8903 289.54 14.032 288.336 15.8411C286.08 19.2527 282.041 20.961 278.672 23.3143C275.302 25.6677 272.336 29.0087 271.117 32.9948C270.452 35.1423 270.358 37.4265 270.845 39.6214C270.955 40.1171 271.096 40.6052 271.268 41.0828C271.746 42.4143 272.492 43.6337 273.459 44.6657C274.188 45.4285 275.027 46.0789 275.947 46.5958C277.102 47.2366 278.339 47.718 279.623 48.0269C279.578 48.1781 279.533 48.3394 279.482 48.4956C279.402 48.7526 279.331 48.9995 279.256 49.2767C279.09 49.8965 278.933 50.5264 278.802 51.1614C278.797 51.2066 278.797 51.2522 278.802 51.2974C278.184 54.1637 277.873 57.088 277.876 60.0204C277.875 61.4072 277.945 62.7932 278.087 64.1728C280.102 84.6221 296.973 100.753 317.818 101.801C318.533 101.836 319.254 101.856 319.984 101.856C320.316 101.856 320.644 101.856 320.991 101.856C321.319 102.29 321.641 102.733 321.948 103.167C322.255 103.6 322.537 104.044 322.804 104.477L322.074 103.721L321.344 103.051C321.146 103.323 320.925 103.577 320.684 103.812C320.208 103.644 319.722 103.506 319.228 103.398C317.138 102.935 313.956 102.764 309.765 104.028C305.913 105.182 301.204 107.556 295.694 112.066L268.846 128.192L254.321 137.031L249.089 149.83C249.089 149.83 245.155 165.039 240.779 182.465C240.608 182.515 240.441 182.565 240.275 182.626C239.921 182.586 239.564 182.565 239.207 182.565C236.668 182.56 234.226 183.538 232.392 185.297C230.559 187.055 229.478 189.455 229.377 191.994C220.674 202.576 220.18 213.159 222.225 218.017C222.41 218.472 222.643 218.906 222.92 219.312C224.26 221.247 226.763 226.236 229.301 231.552C229.236 231.991 229.195 232.359 229.175 232.636C229.171 232.726 229.171 232.817 229.175 232.908C229.175 232.908 230.686 255.741 225.65 262.287C224.547 263.713 224.713 265.588 225.65 267.664C229.024 275.132 242.365 285.105 242.365 285.105C242.365 285.105 258.365 285.019 267.28 284.046C267.254 284.943 267.234 285.835 267.214 286.707C267.013 295.516 267.013 302.898 267.013 302.898L266.68 312.135C266.68 312.135 263.658 331.602 262.148 336.969C261.196 340.335 262.294 371.503 263.251 394.417H420.895C422.749 380.861 420.135 339.675 420.135 339.675C420.135 339.675 417.652 329.027 417.561 319.745C417.556 319.734 417.554 319.723 417.554 319.712C417.554 319.701 417.556 319.689 417.561 319.679C417.561 318.868 417.561 318.077 417.592 317.301L418.735 317.26L420.79 317.19H420.976C420.976 317.19 421.026 316.998 421.142 316.686C421.414 315.908 421.785 315.167 422.245 314.484C423.121 313.189 424.491 311.919 426.551 311.833C427.689 311.788 429.452 310.865 431.441 309.505C431.454 309.508 431.468 309.508 431.482 309.505C436.835 305.882 443.911 299.194 445.628 298.096C447.99 296.584 459.302 286.506 459.302 286.506C459.302 286.506 460.989 284.369 462.787 281.794L462.852 281.703C465.088 278.478 467.466 274.623 466.881 273.408C465.874 271.232 467.556 266.026 467.556 266.026C472.809 256.406 467.244 243.657 464.877 240.467ZM367.491 85.4688C367.539 85.6192 367.57 85.7748 367.582 85.9324C367.456 85.7661 367.33 85.5897 367.204 85.4284L367.083 85.2672L366.997 85.1462L367.189 84.8842C367.189 84.8842 367.189 84.8842 367.189 84.9195C367.322 85.0828 367.424 85.2689 367.491 85.4688ZM365.799 81.004C365.25 81.1148 364.817 81.2156 364.535 81.2912C364.177 80.6562 363.835 80.0213 363.527 79.3763C364.335 79.845 365.095 80.39 365.799 81.004ZM364.852 81.8002C364.85 81.7901 364.85 81.7799 364.852 81.7699L364.892 81.8002C365.099 81.9362 365.3 82.0672 365.486 82.2033C365.653 82.3242 365.804 82.4401 365.955 82.5611C365.854 82.7375 365.743 82.9189 365.633 83.065C365.456 82.7878 365.29 82.5208 365.129 82.2436C365.028 82.1328 364.938 81.9816 364.852 81.8002ZM361.83 75.5817C362.803 75.4856 363.783 75.4856 364.756 75.5817C364.892 75.5817 365.013 75.6069 365.134 75.627C365.407 75.6693 365.675 75.7385 365.935 75.8337C366.53 76.6668 366.896 77.6416 366.997 78.6607L366.725 78.701L366.458 78.7514C365.955 78.8371 365.451 78.9227 365.058 79.0034L364.555 79.1092C363.885 79.2553 363.497 79.3662 363.482 79.3712C363.417 79.2352 363.351 79.1092 363.281 78.9782C363.17 78.7615 363.054 78.5397 362.953 78.3231C362.853 78.1064 362.722 77.8594 362.616 77.6327C362.545 77.5117 362.495 77.3908 362.44 77.2799C362.44 77.2295 362.389 77.1892 362.369 77.1388C362.34 77.0854 362.314 77.0298 362.293 76.9725C361.986 76.3477 361.704 75.7228 361.432 75.108C361.402 75.0475 361.377 74.982 361.352 74.9215L361.734 74.8963V75.0274L361.83 75.5817ZM241.67 388.188C241.63 380.685 241.086 372.566 239.575 364.947C238.93 361.707 238.266 358.466 237.591 355.282C237.42 354.485 237.253 353.699 237.087 352.913L235.536 353.12H235.395C231.165 333.159 226.743 315.572 226.743 315.572C226.743 315.572 217.959 282.016 218.977 279.34C219.108 278.992 218.942 278.055 218.569 276.679C216.444 269.049 207.57 248.026 204.467 240.84C204.467 240.809 204.442 240.774 204.432 240.749C203.928 239.545 203.566 238.733 203.455 238.496L204.185 227.773L204.226 227.128L204.321 225.757L204.281 225.722L204.321 225.087C204.321 225.087 196.656 218.798 183.673 214.257C183.169 214.076 182.635 213.9 182.106 213.728C182.756 209.39 183.617 204.491 184.74 199.719C184.846 199.24 184.962 198.777 185.083 198.308C185.189 197.84 185.309 197.386 185.43 196.927C185.622 196.182 185.828 195.446 186.04 194.72C186.74 194.498 187.43 194.252 188.11 193.99L188.372 193.889C196.747 190.628 203.658 184.44 207.825 176.472C211.992 168.504 213.132 159.296 211.035 150.551C209.839 145.592 207.63 140.933 204.548 136.869C204.316 136.557 204.07 136.244 203.823 135.937C203.576 135.63 203.279 135.287 203.002 134.975C204.457 131.664 206.175 128.514 206.316 125.294C206.341 124.886 206.341 124.477 206.316 124.07V124.019C206.129 121.948 205.213 119.852 203.077 117.65C199.96 114.419 195.523 112.782 191.086 111.995C186.649 111.209 182.127 111.189 177.664 110.66C170.266 109.773 163.059 107.49 155.661 106.79C146.548 105.946 137.374 107.509 129.055 111.325C123.55 113.845 117.975 118.249 117.642 124.291C117.37 129.285 120.845 134.073 119.969 139.006C119.098 143.854 114.162 147.669 114.595 152.572C114.762 154.487 115.744 156.2 116.973 157.727C117.396 158.231 117.844 158.735 118.307 159.239C120.1 161.139 122.074 162.963 123.076 165.356C123.117 165.457 123.157 165.558 123.192 165.659C124.043 168.022 123.661 171.01 121.556 172.366C121.567 172.375 121.576 172.387 121.581 172.401C121.611 172.442 121.641 172.472 121.666 172.512C121.669 172.504 121.669 172.495 121.666 172.487C122.413 173.372 123.419 174 124.542 174.281L124.97 174.412C124.623 174.79 124.295 175.183 123.963 175.596L123.746 175.883C123.191 176.63 122.687 177.413 122.235 178.227C121.979 178.68 121.732 179.134 121.525 179.587C120.835 180.97 120.335 182.439 120.04 183.956C119.501 187.292 120.261 190.769 119.445 194.035C118.438 198.066 115.25 201.16 113.452 204.905C110.048 211.96 111.977 220.239 112.662 228.03C113.593 238.612 112.082 249.24 110.576 259.752C109.777 265.342 108.978 270.938 108.179 276.538C106.165 290.594 104.15 304.65 102.136 318.707C101.4 323.857 100.529 329.289 97.0995 333.265H97.1347C97.1347 333.265 97.1347 333.295 97.0995 333.305C98.1291 333.756 99.224 334.038 100.343 334.142C104.82 334.59 109.564 332.423 113.593 330.055C116.784 328.21 119.806 326.087 122.623 323.711C122.21 325.222 121.767 326.87 121.294 328.644C121.295 328.661 121.295 328.678 121.294 328.694C115.608 350.363 106.462 390.088 106.462 390.088C106.462 390.088 105.631 391.816 104.553 394.391H246.575C244.914 392.376 243.367 390.446 242.159 388.889L241.67 388.188ZM136.513 187.826C136.548 187.766 136.574 187.711 136.609 187.655C136.609 187.816 136.609 187.973 136.609 188.124C136.609 188.275 136.609 188.411 136.609 188.552C136.609 188.693 136.609 188.678 136.609 188.749C136.609 188.819 136.609 188.749 136.609 188.749C136.609 188.955 136.564 189.162 136.528 189.369C136.528 189.369 136.528 189.394 136.528 189.414L137.032 189.6L137.616 189.842C141.068 191.206 144.563 192.441 148.102 193.546C148.464 193.662 148.832 193.773 149.2 193.879L149.275 194.504C149.366 195.144 149.451 195.794 149.532 196.444C149.532 196.444 149.532 196.474 149.532 196.494C149.759 198.293 149.98 200.087 150.177 201.841C150.177 201.841 140.93 198.313 141.046 203.67C141.041 203.766 141.041 203.862 141.046 203.957C141.036 204.085 141.036 204.213 141.046 204.34C141.131 208.513 142.436 210.987 142.698 212.257C142.682 212.309 142.654 212.358 142.617 212.398C142.394 212.884 142.317 213.426 142.396 213.955C142.387 214.857 142.458 215.757 142.607 216.646C142.335 216.812 142.068 216.979 141.801 217.15C141.6 217.276 141.408 217.417 141.212 217.558C139.977 213.27 138.36 209.101 136.382 205.101C134.997 202.249 133.441 199.276 133.456 196.146C133.456 195.945 133.456 195.738 133.481 195.532C133.538 194.625 133.71 193.729 133.995 192.866C134.111 192.538 134.237 192.216 134.378 191.898C134.707 191.144 135.075 190.407 135.481 189.691C135.743 189.217 136.02 188.749 136.287 188.275C136.372 188.134 136.453 187.988 136.533 187.847L136.513 187.826ZM362.641 77.6327C362.57 77.5117 362.52 77.3908 362.465 77.2799C362.465 77.2295 362.414 77.1892 362.394 77.1388C362.284 77.1906 362.172 77.2361 362.057 77.2749C361.835 77.3606 361.609 77.4412 361.377 77.5067C361.145 77.5722 361.05 77.6075 360.873 77.6478L360.425 77.7637L360.465 77.8544C360.652 77.8141 360.833 77.7788 361.019 77.7284L361.07 78.3533C361.281 78.3533 361.478 78.3231 361.669 78.3231H361.941C362.334 78.3231 362.676 78.3231 362.948 78.3231C362.842 78.0963 362.732 77.8594 362.641 77.6327Z" fill="url(#paint1_linear_21_22)"/>
<path d="M252.599 151.65L249.577 152.985C249.577 152.985 229.88 229.552 229.88 235.74C229.88 241.928 271.646 276.362 271.646 276.362L278.163 232.348C278.163 232.348 268.806 131.417 252.599 151.65Z" fill="#E8F5FF"/>
<path d="M344.213 127.295L326.763 118.184C325.785 114.014 324.051 110.06 321.646 106.518C319.092 102.829 315.698 99.2058 311.468 97.316C300.776 92.5187 356.693 67.3374 356.693 67.3374C357.574 70.3624 358.611 73.3396 359.8 76.2569C362.681 83.3724 367.461 92.5741 373.62 95.1945C384.09 99.6543 344.213 127.295 344.213 127.295Z" fill="#FFB0B1"/>
<path opacity="0.1" d="M359.8 76.2569C357.411 84.6649 352.443 92.1095 345.596 97.5393C338.75 102.969 330.372 106.11 321.646 106.518C319.092 102.829 315.698 99.2058 311.468 97.316C300.776 92.5186 356.693 67.3374 356.693 67.3374C357.574 70.3624 358.611 73.3396 359.8 76.2569Z" fill="black"/>
<path d="M361.372 63.5429C361.374 71.789 358.932 79.8505 354.355 86.7078C349.777 93.5651 343.271 98.9102 335.657 102.067C328.044 105.224 319.666 106.051 311.583 104.443C303.5 102.835 296.075 98.8645 290.247 93.0339C284.419 87.2034 280.451 79.7745 278.843 71.6869C277.235 63.5992 278.06 55.2161 281.214 47.5977C284.368 39.9794 289.709 33.4681 296.562 28.8873C303.414 24.3065 311.471 21.862 319.712 21.863C325.19 21.8377 330.618 22.8984 335.683 24.984C340.749 27.0695 345.351 30.1386 349.225 34.0139C353.098 37.8893 356.166 42.494 358.251 47.5624C360.336 52.6307 361.397 58.0621 361.372 63.5429Z" fill="#FFB0B1"/>
<path d="M367.385 121.943L356.023 148.47L346.001 166.077H313.92L304.563 142.004L308.355 117.04H332.857L348.675 116.148L354.019 114.364L357.464 116.319L367.385 121.943Z" fill="#575A89"/>
<path opacity="0.1" d="M363.472 86.5824C363.472 86.5824 370.558 88.0942 364.212 93.2997C357.867 98.5053 335.974 115.059 335.974 115.059C335.974 115.059 343.664 121.913 342.073 129.94L367.551 115.73L372.084 92.9923C372.084 92.9923 372.593 86.1591 363.472 86.5824Z" fill="black"/>
<path opacity="0.1" d="M340.985 115.059L324.778 117.735C324.778 117.735 328.122 130.107 326.45 133.619C326.4 133.728 326.358 133.841 326.325 133.957L319.712 151.841L324.668 165.886L341.821 142.478L335.974 133.619C335.974 133.619 342.153 125.425 345.83 122.583C349.506 119.741 340.985 115.059 340.985 115.059Z" fill="black"/>
<path d="M340.985 114.369L324.778 117.04C324.778 117.04 328.122 129.411 326.45 132.924C326.4 133.033 326.358 133.146 326.325 133.261L319.712 151.146L324.668 165.19L341.821 141.768L335.974 132.908C335.974 132.908 342.153 124.715 345.83 121.872C349.506 119.03 340.985 114.369 340.985 114.369Z" fill="#DCE6F2"/>
<path d="M364.152 85.247C364.152 85.247 371.238 86.7588 364.887 91.9643C358.536 97.1699 335.974 115.059 335.974 115.059C335.974 115.059 344.329 120.577 342.743 128.6L368.221 114.394L372.754 91.6569C372.754 91.6569 373.257 84.8237 364.152 85.247Z" fill="#575A89"/>
<path opacity="0.1" d="M322.759 108.095C322.759 108.095 324.305 110.988 331.129 116.203C331.129 116.203 319.768 122.25 324.114 130.752L306.734 126.216L304.059 117.856L322.759 108.095Z" fill="black"/>
<path d="M322.089 107.43C322.089 107.43 323.635 110.322 330.459 115.538C330.459 115.538 319.097 121.555 323.444 130.081L306.069 125.546L303.394 117.191L322.089 107.43Z" fill="#575A89"/>
<path opacity="0.1" d="M367.385 121.943L356.023 148.47L346.021 166.077H313.92L304.563 142.004L308.35 117.04H315.164C315.053 122.865 317.179 129.709 317.043 132.253C316.811 136.436 323.278 159.002 323.278 159.002C323.278 159.002 336.81 137.101 342.153 135.151C345.513 133.926 352.629 123.737 357.459 116.319L367.385 121.943Z" fill="black"/>
<path d="M412.142 261.536L410.989 262.987C410.989 262.987 419.344 304.949 417.033 314.479C416.64 316.196 416.415 317.948 416.363 319.709V319.785C415.955 329.481 418.881 342.064 418.881 342.064C418.881 342.064 421.218 379.153 419.888 394.407H263.452C262.535 371.851 261.548 342.628 262.445 339.388C263.956 334.041 266.977 314.645 266.977 314.645L267.31 305.453C267.31 305.453 267.31 296.569 267.582 286.672C267.698 282.222 267.869 277.551 268.116 273.409C268.433 268.198 268.876 263.809 269.485 261.652C269.861 260.017 270.077 258.35 270.13 256.673C270.13 256.517 270.13 256.356 270.16 256.194C270.16 255.69 270.211 255.146 270.231 254.587C270.231 254.431 270.231 254.274 270.231 254.083C270.326 250.838 270.291 246.988 270.185 242.997C270.185 242.78 270.185 242.558 270.185 242.336C270.1 239.343 269.974 236.289 269.833 233.387C269.395 224.316 268.826 216.646 268.826 216.646L249.612 152.95L254.79 140.19L269.158 131.382L295.724 115.332C308.683 104.673 317.214 105.953 320.467 107.123C320.783 107.23 321.093 107.357 321.394 107.501C321.495 107.551 321.575 107.591 321.651 107.637C321.754 107.686 321.854 107.743 321.948 107.808C321.057 108.237 320.283 108.875 319.692 109.667C319.026 110.569 318.551 111.598 318.297 112.691C318.127 113.368 318.007 114.057 317.939 114.752C317.874 115.483 317.849 116.239 317.849 117C317.884 118.668 318.027 120.333 318.277 121.983C318.277 122.014 318.277 122.054 318.277 122.094C318.443 123.273 318.649 124.427 318.851 125.511C318.849 125.529 318.849 125.548 318.851 125.566C319.082 126.831 319.314 128 319.47 129.008C319.5 129.19 319.526 129.356 319.551 129.512C319.662 130.178 319.714 130.853 319.707 131.528C319.764 133.158 319.983 134.779 320.362 136.365C320.493 137.031 320.644 137.741 320.81 138.482C321.037 139.49 321.283 140.588 321.55 141.707C321.696 142.322 321.852 142.957 322.014 143.587C322.074 143.839 322.139 144.091 322.2 144.348L322.301 144.746C323.373 149.014 324.537 153.262 325.252 155.832C325.675 157.344 325.942 158.276 325.942 158.276C325.942 158.276 333.526 146.006 339.58 139.021C339.671 138.92 339.751 138.825 339.837 138.734C340.436 138.044 341.025 137.414 341.589 136.859C342.823 135.63 343.931 134.753 344.823 134.43C345.013 134.361 345.196 134.275 345.372 134.173C347.85 132.767 351.848 127.663 355.59 122.316C355.958 121.812 356.315 121.263 356.678 120.744C357.509 119.544 358.315 118.34 359.075 117.186C359.66 116.304 360.219 115.447 360.747 114.631C363.266 110.711 365.038 107.788 365.038 107.788L368.533 107.632L369.143 107.601H369.551L385.42 106.866C385.42 106.866 386.105 106.981 387.233 107.208C387.293 107.208 387.354 107.208 387.419 107.249C393.05 108.367 408.693 111.91 409.649 116.823C410.818 122.84 436.049 130.868 436.049 130.868C436.382 134.899 442.561 137.555 442.561 137.555C442.561 137.555 451.919 162.298 449.416 171.993C446.943 181.568 455.852 205.252 456.089 205.918L454.381 208.074L412.142 261.536Z" fill="#E8F5FF"/>
<path opacity="0.1" d="M363.467 84.8238C363.467 84.8238 378.913 80.4396 382.423 89.465C385.934 98.4903 393.785 134.939 393.785 134.939C393.785 134.939 373.398 138.784 368.055 134.939C364.921 132.657 361.041 131.642 357.192 132.097L345.664 139.953L342.259 138.946C342.259 138.946 360.702 111.512 364.711 102.189C368.72 92.8665 370.074 88.699 363.467 84.8238Z" fill="black"/>
<path d="M362.797 82.808C362.797 82.808 378.253 78.4239 381.779 87.4492C385.304 96.4745 393.141 132.924 393.141 132.924C393.141 132.924 372.759 136.769 367.41 132.924C364.278 130.642 360.4 129.626 356.552 130.081L345.014 137.938L341.61 136.93C341.61 136.93 360.052 109.496 364.061 100.173C368.07 90.8507 369.405 86.6933 362.797 82.808Z" fill="#E8F5FF"/>
<path opacity="0.1" d="M259.116 228.216C259.116 228.216 270.644 231.058 272.82 237.579C274.995 244.1 264.298 244.266 264.298 244.266C264.298 244.266 257.781 232.731 259.116 228.216Z" fill="black"/>
<path opacity="0.1" d="M302.055 276.362C302.055 276.362 273.822 334.207 280.339 339.725C286.856 345.243 302.055 276.362 302.055 276.362Z" fill="black"/>
<path opacity="0.1" d="M340.985 233.734C340.985 233.734 363.542 289.922 359.03 298.6C354.517 307.278 368.72 298.6 368.72 298.6L340.985 233.734Z" fill="black"/>
<path d="M372.396 289.237C372.396 289.237 296.208 292.916 318.433 316.656C340.658 340.396 386.266 317.663 386.266 317.663L372.396 289.237Z" fill="#FFB0B1"/>
<path opacity="0.1" d="M361.372 63.5428C361.379 69.0105 360.306 74.4256 358.214 79.477C357.514 79.5576 356.814 79.608 356.139 79.6382C355.132 77.426 355.671 74.8711 355.691 72.4371C355.711 70.0031 354.815 67.1408 352.473 66.4857C347.804 65.1705 344.581 73.9035 339.978 72.3262C336.453 71.1269 337.374 65.7752 335.345 62.6861C333.738 60.2421 330.52 59.5517 328.017 58.0197C322.694 54.7492 322.855 49.5185 320.382 44.5699C317.793 39.3845 312.324 40.9164 307.575 43.9753C303.969 46.3034 300.856 49.4227 296.999 51.2772C293.66 52.8897 289.908 53.4743 286.206 53.56C283.927 53.6483 281.647 53.4073 279.437 52.8444C282.037 43.0651 288.102 34.5658 296.503 28.9314C304.904 23.297 315.065 20.9121 325.094 22.2216C335.122 23.5311 344.332 28.4455 351.006 36.0484C357.68 43.6512 361.362 53.4235 361.367 63.5428H361.372Z" fill="black"/>
<path d="M307.59 42.64C303.979 44.9681 300.872 48.0824 297.014 49.9469C293.675 51.5545 289.923 52.139 286.221 52.2247C281.688 52.3255 276.808 51.5293 273.711 48.2537C270.866 45.2302 270.186 40.5789 271.389 36.613C272.593 32.6471 275.479 29.3565 278.868 26.9729C282.258 24.5893 286.191 22.9415 288.437 19.5299C289.626 17.7258 290.2 15.5992 291.187 13.6793C294.345 7.53641 301.446 4.21048 308.31 3.79726C315.174 3.38404 321.978 5.42999 328.516 7.64727C335.053 9.86455 341.64 12.3036 348.54 12.7621C351.612 12.9536 354.805 12.7621 357.655 13.9262C361.488 15.4833 364.001 19.2074 365.713 22.9969C367.632 27.2702 368.826 31.9366 368.624 36.6029C368.201 46.5656 361.624 56.3418 364.515 65.8862C365.28 68.431 366.716 71.0414 365.95 73.5862C364.832 77.3001 360.042 78.1467 356.17 78.3231C355.162 76.1109 355.701 73.5509 355.721 71.122C355.742 68.6931 354.845 65.8257 352.508 65.1706C347.835 63.8654 344.611 72.5834 340.018 71.0111C336.518 69.8067 337.425 64.4601 335.39 61.371C333.783 58.9219 330.56 58.2366 328.062 56.7046C322.739 53.4341 322.9 48.2034 320.427 43.2548C317.819 38.0442 312.344 39.5761 307.59 42.64Z" fill="#575A89"/>
<path d="M233.713 234.399L229.87 235.74C229.87 235.74 231.381 258.477 226.345 264.998C221.309 271.519 242.884 287.73 242.884 287.73C242.884 287.73 272.457 287.564 273.293 285.21C274.129 282.857 271.782 243.082 271.782 243.082C271.782 243.082 255.908 236.894 257.242 227.032C257.242 227.032 252.397 250.268 245.216 249.265C238.034 248.263 229.88 242.261 233.713 234.399Z" fill="#E8F5FF"/>
<path opacity="0.1" d="M246.53 256.3C252.129 256.3 256.668 252.147 256.668 247.023C256.668 241.899 252.129 237.746 246.53 237.746C240.931 237.746 236.392 241.899 236.392 247.023C236.392 252.147 240.931 256.3 246.53 256.3Z" fill="black"/>
<path d="M257.615 235.07C257.615 235.07 255.601 173.55 238.064 187.257C220.528 200.964 220.357 217.357 223.696 222.199C227.035 227.042 237.742 251.286 237.742 251.286C239.417 252.257 241.298 252.818 243.231 252.921C245.164 253.025 247.094 252.669 248.863 251.882C250.632 251.095 252.189 249.901 253.408 248.396C254.626 246.89 255.471 245.118 255.873 243.223L257.615 235.07Z" fill="#FFB0B1"/>
<path opacity="0.1" d="M367.007 79.2402C366.926 78.9699 366.768 78.7286 366.554 78.5448C365.688 77.7536 363.824 77.4764 361.014 77.7183L361.13 79.0487C364.877 78.7262 365.617 79.472 365.713 79.598V79.724L365.829 79.8903C366.296 80.5185 366.627 81.2375 366.8 82.0011C366.974 82.7648 366.986 83.5562 366.836 84.3248C366.015 88.4318 360.974 91.7023 360.924 91.7376L360.803 91.8082L360.727 91.9241C358.551 95.1542 346.248 104.27 343.03 106.629L342.748 106.306C341.307 107.556 328.646 118.647 327.961 122.895C327.518 125.561 324.517 126.594 323.429 126.882C322.28 126.01 318.554 123.042 316.615 119.716C314.797 116.586 322.114 110.479 322.759 108.095L321.752 107.062C321.646 107.445 312.248 116.234 314.862 120.724C316.957 124.327 320.785 127.411 322.124 128.429C321.696 132.319 319.032 155.162 314.938 160.574C309.851 167.302 305.575 201.206 306.049 213.043C306.467 223.56 303.722 243.425 294.556 251.956C292.969 253.498 291.055 254.661 288.956 255.359C286.857 256.057 284.627 256.272 282.434 255.988H282.323H282.212C282.081 255.988 268.785 257.348 257.615 247.925C248.474 240.23 243.297 227.672 242.219 210.589H241.998L241.907 205.615C244.385 205.228 246.617 203.895 248.134 201.896C249.651 199.897 250.334 197.387 250.04 194.894C249.746 192.402 248.498 190.12 246.558 188.529C244.619 186.937 242.138 186.16 239.637 186.361C237.137 186.561 234.812 187.724 233.15 189.604C231.488 191.484 230.619 193.935 230.726 196.443C230.833 198.951 231.906 201.319 233.722 203.051C235.537 204.783 237.953 205.744 240.461 205.731H240.572L240.663 210.675L240.22 210.705C241.328 228.342 246.767 241.389 256.336 249.447C263.609 255.477 272.899 258.519 282.328 257.958C282.997 258.031 283.669 258.068 284.342 258.069C288.664 258.091 292.823 256.418 295.926 253.408C305.58 244.413 308.516 223.817 308.058 212.942C307.554 200.399 312.042 167.715 316.544 161.763C320.956 155.923 323.63 133.165 324.098 128.756C325.695 128.308 329.306 126.892 329.92 123.213C330.364 120.552 338.819 112.353 344.022 107.813L343.866 107.631C346.666 105.586 355.374 99.1353 359.69 94.993C361.029 93.708 362.359 92.4229 363.749 91.1984C365.421 89.7168 367.546 87.3635 368.105 84.5818C368.296 83.6636 368.297 82.7161 368.108 81.7975C367.919 80.8789 367.545 80.0086 367.007 79.2402Z" fill="black"/>
<path d="M321.953 128.111C321.742 127.965 316.726 124.372 314.213 120.048C311.604 115.558 321.001 106.775 321.102 106.392L322.109 107.425C321.47 109.803 314.152 115.916 315.97 119.04C318.262 122.986 323.086 126.438 323.137 126.473L321.953 128.111Z" fill="#353146"/>
<path d="M342.375 107.606L341.59 106.523C341.751 106.407 357.57 94.9578 360.063 91.2539L360.143 91.143L360.259 91.0675C360.309 91.0322 365.351 87.7667 366.172 83.6547C366.323 82.8869 366.311 82.0959 366.138 81.3329C365.964 80.5699 365.633 79.8518 365.164 79.2252L365.048 79.0538V78.9329C364.948 78.8019 364.207 78.0611 360.46 78.3836L360.345 77.0482C363.16 76.8063 365.018 77.0835 365.884 77.8746C366.1 78.0603 366.259 78.3031 366.343 78.5751C366.887 79.3413 367.269 80.211 367.465 81.1305C367.661 82.0501 367.666 83 367.481 83.9218C366.922 86.7085 364.802 89.0618 363.125 90.5383C361.74 91.7629 360.405 93.058 359.07 94.3329C354.009 99.1857 342.929 107.208 342.375 107.606Z" fill="#E8F5FF"/>
<path d="M241.257 203.861L239.923 203.885L240.071 212.002L241.406 211.978L241.257 203.861Z" fill="#E8F5FF"/>
<path d="M239.812 205.091C245.194 205.091 249.557 200.725 249.557 195.34C249.557 189.955 245.194 185.589 239.812 185.589C234.43 185.589 230.067 189.955 230.067 195.34C230.067 200.725 234.43 205.091 239.812 205.091Z" fill="#587EEC"/>
<path d="M239.812 203.438C244.282 203.438 247.905 199.813 247.905 195.34C247.905 190.868 244.282 187.242 239.812 187.242C235.342 187.242 231.719 190.868 231.719 195.34C231.719 199.813 235.342 203.438 239.812 203.438Z" fill="#E8F5FF"/>
<path d="M283.708 257.419C283.035 257.42 282.362 257.385 281.693 257.313C272.265 257.869 262.977 254.827 255.701 248.802C246.132 240.739 240.703 227.707 239.585 210.055L241.6 209.929C242.677 227.012 247.855 239.575 257.001 247.265C268.171 256.663 281.462 255.328 281.593 255.328H281.703H281.814C284.008 255.611 286.238 255.395 288.338 254.697C290.437 253.999 292.353 252.837 293.941 251.296C303.102 242.765 305.847 222.9 305.429 212.383C304.926 200.536 309.201 166.631 314.293 159.909C318.75 154.018 321.515 127.466 321.545 127.199L321.621 126.443L322.366 126.312C322.411 126.312 326.763 125.486 327.307 122.23C328.012 117.987 340.653 106.896 342.088 105.641L343.402 107.153C338.18 111.688 329.724 119.892 329.301 122.558C328.687 126.247 325.076 127.658 323.484 128.101C322.98 132.515 320.326 155.268 315.93 161.108C311.427 167.06 306.94 199.744 307.444 212.287C307.877 223.162 304.971 243.762 295.316 252.752C292.208 255.77 288.039 257.446 283.708 257.419Z" fill="#353146"/>
<g opacity="0.1">
<path opacity="0.1" d="M365.663 51.63C366.489 48.5762 367.486 45.5022 368.181 42.4081C367.35 45.5173 366.348 48.5762 365.663 51.63Z" fill="black"/>
<path opacity="0.1" d="M357.237 75.627C356.23 73.4148 356.769 70.8549 356.789 68.4259C356.809 65.997 355.913 63.1548 353.576 62.4745C348.902 61.1694 345.679 69.8923 341.086 68.3151C337.561 67.1107 338.492 61.764 336.458 58.6749C334.851 56.2258 331.633 55.5405 329.135 54.0086C323.806 50.7381 323.968 45.5073 321.5 40.5587C318.906 35.3683 313.442 36.9002 308.688 39.9641C305.077 42.2922 301.969 45.4115 298.112 47.271C294.772 48.8786 291.02 49.4631 287.319 49.5488C282.811 49.6546 277.906 48.8534 274.809 45.5778C272.422 43.0582 271.56 39.3644 272.054 35.9024C271.968 36.1393 271.893 36.3761 271.817 36.613C270.609 40.5789 271.314 45.2402 274.139 48.2537C277.236 51.5292 282.142 52.3254 286.649 52.2246C290.356 52.139 294.103 51.5544 297.447 49.9469C301.315 48.0824 304.422 44.9681 308.023 42.6399C312.777 39.5761 318.246 38.0441 320.835 43.2346C323.303 48.1832 323.147 53.4139 328.47 56.6844C330.988 58.1962 334.186 58.9017 335.798 61.3508C337.812 64.4499 336.921 69.7865 340.426 70.9909C345.014 72.5632 348.237 63.8452 352.911 65.1504C355.248 65.8055 356.149 68.6779 356.124 71.1018C356.099 73.5257 355.575 76.0907 356.572 78.3029C360.445 78.1265 365.235 77.295 366.358 73.566C366.512 73.0308 366.584 72.475 366.569 71.9181C364.933 74.7452 360.722 75.4708 357.237 75.627Z" fill="black"/>
</g>
<path opacity="0.1" d="M448.257 199.795L454.105 205.983C454.105 205.983 458.783 240.084 461.12 243.274C463.457 246.464 468.977 259.152 463.794 268.682C463.794 268.682 462.122 273.867 463.124 276.039C464.127 278.211 455.61 289.081 455.61 289.081C455.61 289.081 444.415 299.109 442.073 300.616C439.731 302.122 427.372 314.156 423.197 314.322C419.022 314.489 417.657 319.674 417.657 319.674L394.098 320.511C394.098 320.511 381.084 319.83 378.254 321.67C378.254 321.67 379.764 301.775 365.225 288.733L383.768 282.046C383.768 282.046 390.789 279.022 392.959 275.863C394.325 273.926 396.262 272.465 398.499 271.685C398.499 271.685 403.677 268.006 403.843 266.001C404.009 263.995 410.173 261.536 410.173 261.536L406.683 231.729L408.521 182.243C408.521 182.243 414.369 140.78 426.733 143.123C439.097 145.466 448.257 199.795 448.257 199.795Z" fill="black"/>
<path d="M450.272 199.795L456.119 205.983C456.119 205.983 460.798 240.084 463.134 243.274C465.471 246.464 470.991 259.152 465.809 268.682C465.809 268.682 464.142 273.867 465.144 276.039C466.146 278.211 457.625 289.081 457.625 289.081C457.625 289.081 446.429 299.109 444.087 300.616C441.745 302.122 429.386 314.156 425.211 314.322C421.036 314.489 419.672 319.674 419.672 319.674L396.112 320.511C396.112 320.511 383.088 319.83 380.268 321.67C380.268 321.67 381.779 301.775 367.239 288.733L385.783 282.046C385.783 282.046 392.803 279.022 394.974 275.863C396.339 273.926 398.276 272.465 400.514 271.685C400.514 271.685 405.691 268.006 405.857 266.001C406.023 263.995 412.188 261.536 412.188 261.536L408.698 231.729L410.536 182.243C410.536 182.243 416.383 140.78 428.747 143.123C441.111 145.466 450.272 199.795 450.272 199.795Z" fill="#E8F5FF"/>
<path opacity="0.1" d="M428.535 249.784C428.535 249.784 445.744 245.249 450.257 250.792C454.769 256.336 428.535 249.784 428.535 249.784Z" fill="black"/>
<path opacity="0.1" d="M424.527 257.389C430.374 261.486 448.419 261.652 448.419 261.652L424.527 257.389Z" fill="black"/>
<path opacity="0.1" d="M433.38 277.868C433.884 278.035 445.785 290.744 450.781 286.899C455.776 283.054 433.38 277.868 433.38 277.868Z" fill="black"/>
<path opacity="0.1" d="M273.107 171.207C273.107 171.207 276.602 195.285 274.879 205.091C273.157 214.898 279.442 227.047 279.442 227.047L273.107 171.207Z" fill="black"/>
<path d="M195.73 180.998C191.701 184.158 188.759 191.636 186.629 199.855C182.912 214.192 181.699 230.817 181.699 230.817C181.699 230.817 149.618 223.459 151.954 220.118C153.425 218.017 151.451 202.183 149.804 190.704C148.822 183.921 147.946 178.655 147.946 178.655C147.946 178.655 206.759 172.301 195.73 180.998Z" fill="#FFB0B1"/>
<path opacity="0.1" d="M195.73 180.328C191.701 183.493 188.759 190.966 186.629 199.185C180.237 201.127 173.439 201.302 166.956 199.692C160.473 198.082 154.546 194.746 149.804 190.039C148.822 183.251 147.946 177.985 147.946 177.985C147.946 177.985 206.759 171.635 195.73 180.328Z" fill="black"/>
<path d="M212.974 162.318C212.977 171.083 209.881 179.566 204.234 186.267C198.588 192.967 190.754 197.453 182.119 198.93C173.485 200.407 164.607 198.78 157.056 194.337C149.505 189.894 143.769 182.921 140.862 174.653C137.955 166.385 138.065 157.354 141.173 149.159C144.281 140.965 150.185 134.134 157.842 129.877C165.499 125.619 174.415 124.21 183.01 125.897C191.606 127.584 199.328 132.26 204.81 139.097C210.092 145.682 212.972 153.873 212.974 162.318Z" fill="#FFB0B1"/>
<path opacity="0.1" d="M242.224 394.407H231.648L230.757 375.716L229.825 356.37C229.825 356.37 232.227 356.012 236.055 355.478L237.601 355.271H237.727C238.563 359.197 239.389 363.229 240.184 367.255C241.509 374.403 242.198 381.654 242.244 388.924C242.244 389.428 242.244 389.932 242.244 390.405C242.274 391.751 242.244 393.096 242.224 394.407Z" fill="black"/>
<path d="M240.195 394.407H107.56C108.134 393.101 108.517 392.31 108.517 392.31C108.517 392.31 119.128 345.858 124.522 326.205C124.524 326.188 124.524 326.171 124.522 326.155C125.196 323.485 126.009 320.852 126.959 318.268C127.021 318.092 127.1 317.924 127.196 317.764C129.865 313.42 133.209 308.739 128.531 302.052C123.852 295.365 125.509 265.94 125.509 265.94C125.509 265.94 131.19 240.86 137.203 227.486C138.116 225.414 139.411 223.533 141.021 221.942C141.544 221.43 142.103 220.955 142.693 220.521C143.141 220.184 143.609 219.873 144.093 219.589L144.188 219.529C146.715 218.096 149.52 217.224 152.413 216.974C154.468 216.759 156.542 216.816 158.582 217.145C168.332 218.576 176.138 220.97 182.343 223.696C199.159 231.089 204.251 240.996 204.352 241.203L204.392 241.288C205.067 242.865 214.938 265.925 218.493 276.684C219.415 279.486 219.919 281.456 219.717 281.995C218.71 284.666 227.402 318.102 227.402 318.102C227.402 318.102 231.431 334.228 235.46 353.13C235.637 353.916 235.803 354.702 235.964 355.498C236.684 358.93 237.399 362.427 238.089 365.92C239.426 373.117 240.116 380.419 240.149 387.74C240.223 390.021 240.238 392.243 240.195 394.407Z" fill="#EB5569"/>
<path opacity="0.1" d="M151.622 205.474C151.622 205.474 142.471 201.947 142.582 207.298C142.693 212.65 144.813 215.21 144.143 215.991C143.473 216.772 144.476 221.454 144.476 221.454C144.476 221.454 156.84 221.454 162.52 224.014C168.201 226.574 189.142 231.703 191.816 233.266C194.491 234.828 204.407 241.832 204.407 241.832L205.298 228.569C205.298 228.569 195.05 220.098 178.234 215.754C161.418 211.41 151.622 205.474 151.622 205.474Z" fill="black"/>
<path d="M151.622 204.804C151.622 204.804 142.471 201.276 142.582 206.628C142.693 211.98 144.813 214.54 144.143 215.321C143.473 216.102 144.476 220.783 144.476 220.783C144.476 220.783 156.84 220.783 162.52 223.348C168.201 225.913 189.142 231.038 191.816 232.595C194.491 234.153 204.407 241.162 204.407 241.162L205.308 227.939C205.308 227.939 195.06 219.468 178.244 215.124C161.428 210.78 151.622 204.804 151.622 204.804Z" fill="#EB5569"/>
<path opacity="0.1" d="M179.246 236.723C179.246 236.723 196.732 255.665 195.84 260.911C194.949 266.157 179.246 236.723 179.246 236.723Z" fill="black"/>
<path opacity="0.1" d="M150.841 305.151C150.841 305.151 138.024 316.968 134.247 317.638C130.47 318.309 137.143 320.536 141.484 318.757C145.825 316.978 155.082 312.297 155.082 312.297L150.841 305.151Z" fill="black"/>
<path d="M245.402 394.407H215.512C211.332 390.778 207.378 387.417 204.86 385.396C200.831 382.161 197.925 377.399 196.072 373.569C195.654 372.697 195.291 371.881 194.984 371.14C194.434 369.864 193.95 368.561 193.534 367.235L215.668 354.082C216.891 355.123 218.041 356.248 219.108 357.449L219.375 357.756C220.603 359.207 221.686 360.855 221.782 362.206C221.893 363.778 226.264 369.86 230.731 375.701C235.264 381.642 239.907 387.321 240.215 387.704C240.215 387.704 240.98 388.748 242.229 390.35C243.11 391.509 244.198 392.9 245.402 394.407Z" fill="#FFB0B1"/>
<path opacity="0.1" d="M204.81 139.097C203.747 141.495 202.795 143.985 202.654 146.656C202.257 154.366 202.901 171.605 194.37 175.475C190.144 177.38 185.622 173.198 180.988 173.097C177.654 173.026 174.597 175.143 172.563 177.788C170.528 180.434 169.264 183.573 167.788 186.567C166.445 189.284 164.898 191.895 163.16 194.378C162.641 195.137 162.069 195.86 161.448 196.539C156.246 194.343 151.613 190.987 147.904 186.728C144.194 182.469 141.505 177.419 140.041 171.962C138.577 166.506 138.378 160.787 139.458 155.241C140.538 149.696 142.868 144.47 146.272 139.963C149.676 135.455 154.063 131.784 159.1 129.23C164.136 126.676 169.689 125.306 175.334 125.225C180.98 125.143 186.57 126.352 191.678 128.76C196.786 131.167 201.277 134.71 204.81 139.117V139.097Z" fill="black"/>
<path d="M201.985 145.295C201.582 153.005 202.231 170.244 193.695 174.11C189.469 176.014 184.947 171.837 180.314 171.736C176.98 171.66 173.928 173.782 171.888 176.423C169.848 179.063 168.594 182.208 167.114 185.206C165.77 187.923 164.223 190.534 162.485 193.017C161.448 194.488 160.299 195.965 158.703 196.791C155.923 198.243 152.554 197.426 149.572 196.494C145.704 195.274 141.894 193.9 138.14 192.372C138.226 191.805 138.27 191.232 138.271 190.659C138.16 190.87 138.039 191.067 137.918 191.278L137.682 191.692C137.254 192.447 136.836 193.203 136.453 193.979C136.307 194.277 136.166 194.584 136.04 194.892C135.533 196.035 135.215 197.254 135.098 198.5C134.841 201.861 136.498 205.051 137.969 208.074C143.624 219.77 147.12 233.447 142.864 245.718C141.021 251.054 137.828 255.796 135.496 260.951C131.42 270.082 130.22 280.238 132.056 290.068C133.22 296.176 135.551 302.223 134.977 308.416C133.97 319.074 124.784 327.006 115.583 332.459C110.612 335.392 104.528 338.002 99.25 335.684C102.614 331.753 103.48 326.316 104.206 321.186C106.19 307.193 108.179 293.194 110.174 279.188C110.969 273.615 111.763 268.042 112.556 262.468C114.036 251.997 115.537 241.409 114.611 230.872C113.936 223.106 112.032 214.862 115.396 207.832C117.174 204.108 120.342 201.024 121.329 197.013C122.14 193.753 121.384 190.286 121.918 186.965C122.21 185.454 122.705 183.989 123.389 182.611C124.259 180.74 125.396 179.006 126.763 177.461C125.413 177.068 124.154 176.528 123.389 175.4C125.554 173.989 125.882 170.809 124.9 168.42C123.918 166.032 121.953 164.212 120.186 162.328C118.418 160.443 116.716 158.246 116.494 155.676C116.066 150.783 120.951 146.993 121.812 142.166C122.684 137.252 119.239 132.475 119.516 127.501C119.838 121.489 125.358 117.12 130.807 114.586C139.03 110.777 148.114 109.212 157.137 110.05C164.48 110.746 171.586 113.018 178.908 113.9C183.325 114.404 187.802 114.455 192.189 115.231C196.576 116.007 200.972 117.644 204.059 120.865C212.198 129.356 202.448 136.345 201.985 145.295Z" fill="#575A89"/>
<path opacity="0.1" d="M195.175 373.574C192.607 372.46 187.933 373.126 179.91 370.682C171.888 368.238 170.342 357.191 170.342 357.191V357.156C170.246 356.904 169.501 355.261 164.454 349.507C158.879 343.152 146.827 311.057 146.827 311.057C146.827 311.057 136.14 299.572 136.478 295.339C136.815 291.106 134.579 279.844 134.801 267.245C135.022 254.647 158.859 246.292 158.859 246.292C204.754 238.154 193.947 291.096 192.723 295.108C191.499 299.119 197.85 309.953 197.85 309.953C196.953 314.67 201.526 321.972 201.526 321.972C201.526 321.972 202.634 328.432 202.861 330.886C202.873 331 202.899 331.111 202.936 331.219C203.672 333.532 209.665 335.628 212.102 336.903C214.666 338.244 222.91 349.945 222.91 349.945C224.688 358.537 197.734 374.703 195.175 373.574Z" fill="black"/>
<path d="M196.51 371.558C193.947 370.44 189.268 371.11 181.25 368.661C173.233 366.212 171.681 355.176 171.681 355.176V355.14C171.591 354.883 170.84 353.246 165.794 347.491C160.219 341.136 148.167 309.036 148.167 309.036C148.167 309.036 137.48 297.557 137.813 293.324C138.145 289.091 135.919 277.828 136.141 265.24C136.362 252.652 160.184 244.302 160.184 244.302C206.079 236.163 195.271 289.106 194.047 293.117C192.824 297.128 199.174 307.963 199.174 307.963C198.278 312.679 202.851 319.981 202.851 319.981C202.851 319.981 203.959 326.442 204.19 328.896C204.199 329.009 204.223 329.121 204.261 329.228C204.996 331.542 210.989 333.638 213.432 334.913C215.99 336.248 224.24 347.954 224.24 347.954C226.028 356.531 199.074 372.697 196.51 371.558Z" fill="#EB5569"/>
<path opacity="0.1" d="M161.09 271.942C161.09 271.942 181.139 293.107 186.372 293.107C191.605 293.107 161.09 271.942 161.09 271.942Z" fill="black"/>
<path d="M196.51 371.558C193.947 370.44 189.268 371.11 181.25 368.661C173.232 366.212 171.681 355.176 171.681 355.176V355.141C176.995 351.613 190.451 341.65 195.755 338.007C199.486 335.452 202.533 331.698 204.316 329.208C205.052 331.521 211.045 333.618 213.487 334.893C216.046 336.228 224.295 347.934 224.295 347.934C226.027 356.531 199.073 372.697 196.51 371.558Z" fill="#FF748E"/>
<g opacity="0.1">
<path opacity="0.1" d="M123.419 175.455C123.444 175.495 123.479 175.531 123.51 175.571C123.661 175.379 123.817 175.188 123.978 175.007C123.806 175.174 123.619 175.324 123.419 175.455Z" fill="black"/>
<path opacity="0.1" d="M135.103 198.555C135.315 195.758 136.81 193.294 138.21 190.835C137.294 190.482 136.377 190.124 135.471 189.752C135.557 189.186 135.601 188.615 135.602 188.043C134.186 190.563 132.645 193.042 132.429 195.879C132.172 199.246 133.829 202.43 135.299 205.454C140.96 217.145 144.45 230.822 140.195 243.097C138.346 248.429 135.158 253.176 132.827 258.331C128.752 267.46 127.554 277.615 129.392 287.443C130.545 293.556 132.882 299.598 132.308 305.791C131.301 316.449 122.12 324.381 112.913 329.828C109.151 332.056 104.755 334.097 100.549 333.95C100.16 334.577 99.7258 335.175 99.25 335.739C104.533 338.073 110.612 335.447 115.583 332.504C124.794 327.062 133.995 319.15 135.002 308.472C135.576 302.279 133.24 296.236 132.081 290.124C130.243 280.297 131.437 270.143 135.506 261.012C137.823 255.862 141.046 251.11 142.874 245.778C147.13 233.503 143.634 219.826 137.979 208.135C136.513 205.091 134.846 201.921 135.103 198.555Z" fill="black"/>
<path opacity="0.1" d="M204.049 120.925C203.554 120.417 203.022 119.945 202.458 119.514C208.562 127.436 199.748 134.168 199.31 142.695C198.917 150.405 199.562 167.649 191.026 171.509C186.805 173.419 182.278 169.237 177.649 169.136C174.31 169.065 171.258 171.187 169.219 173.827C167.179 176.468 165.925 179.612 164.449 182.606C163.103 185.322 161.554 187.933 159.816 190.417C158.809 191.893 157.63 193.365 156.029 194.196C153.259 195.642 149.889 194.831 146.903 193.894C143.999 192.98 141.121 191.972 138.271 190.87C138.265 191.395 138.221 191.919 138.14 192.437C141.897 193.969 145.709 195.343 149.577 196.559C152.559 197.497 155.928 198.308 158.703 196.862C160.299 196.03 161.458 194.554 162.49 193.077C164.23 190.597 165.777 187.988 167.118 185.272C168.599 182.278 169.848 179.129 171.893 176.488C173.938 173.847 176.985 171.731 180.319 171.802C184.952 171.902 189.479 176.085 193.7 174.175C202.236 170.315 201.587 153.071 201.984 145.36C202.448 136.396 212.198 129.411 204.049 120.925Z" fill="black"/>
</g>
<path opacity="0.1" d="M137.687 191.697C137.259 192.453 136.841 193.208 136.458 193.984C136.312 194.282 136.171 194.589 136.045 194.897C133.406 192.236 126.98 185.912 123.394 183.951C124.266 182.081 125.402 180.347 126.768 178.801C126.768 178.801 135.315 183.321 137.687 191.697Z" fill="black"/>
<path d="M137.923 191.284C135.944 182.319 126.768 177.466 126.768 177.466C125.401 179.011 124.264 180.745 123.394 182.616C127.176 184.687 134.146 191.631 136.458 193.985L137.923 191.284Z" fill="#EB5569"/>
<defs>
<linearGradient id="paint0_linear_21_22" x1="367.662" y1="48.0723" x2="367.662" y2="38.8101" gradientUnits="userSpaceOnUse">
<stop stop-color="#808080" stop-opacity="0.25"/>
<stop offset="0.54" stop-color="#808080" stop-opacity="0.12"/>
<stop offset="1" stop-color="#808080" stop-opacity="0.1"/>
</linearGradient>
<linearGradient id="paint1_linear_21_22" x1="231049" y1="331838" x2="231049" y2="23136.5" gradientUnits="userSpaceOnUse">
<stop stop-color="#808080" stop-opacity="0.25"/>
<stop offset="0.54" stop-color="#808080" stop-opacity="0.12"/>
<stop offset="1" stop-color="#808080" stop-opacity="0.1"/>
</linearGradient>
</defs>
</svg>
