<?xml version="1.0" ?><!DOCTYPE svg  PUBLIC '-//W3C//DTD SVG 1.1//EN'  'http://www.w3.org/Graphics/SVG/1.1/DTD/svg11.dtd'><svg enable-background="new 0 0 512 512" id="Layer_1" version="1.1" viewBox="0 0 512 512" xml:space="preserve" xmlns="http://www.w3.org/2000/svg" xmlns:xlink="http://www.w3.org/1999/xlink"><g><path fill= '#fff' d="M256.8,5c74.3,0,148.6,0,222.9,0C498.9,5,511,17,511,36.1c0,147.3,0,294.6,0,441.9c0,18.8-12.1,31-30.8,31   c-148.8,0-297.6,0-446.4,0C15.3,509,3,496.8,3,478.4C3,330.8,3,183.2,3,35.5C3,17.1,15.3,5,33.8,5C108.1,5,182.5,5,256.8,5z    M257,495c74,0,148,0,222,0c12.3,0,18-5.7,18-18c0-146.7,0-293.3,0-440c0-12.3-5.7-18-18-18c-148,0-296,0-444,0   c-12.3,0-18,5.7-18,18c0,146.7,0,293.3,0,440c0,12.3,5.7,18,18,18C109,495,183,495,257,495z"/><path fill= '#fff' d="M289.9,256.8c0,65.1,0,129.2,0,194c-2,0.1-3.7,0.4-5.5,0.4c-25.7,0-51.3-0.1-77,0.1c-4.8,0-5.7-1.6-5.7-6   c0.1-60.5,0.1-121,0.1-181.5c0-2.1,0-4.2,0-6.8c-14.4,0-28.2,0-42.4,0c0-21.9,0-43.5,0-65.6c14,0,27.9,0,42.4,0c0-2.4,0-4.2,0-6   c0-16.8-0.2-33.7,0.1-50.5c0.3-21.9,7.4-40.8,25.3-54.6c12.6-9.7,27.4-15.2,42.9-16c27.8-1.4,55.6-1.3,83.4-1.8   c2.4,0,3.8,0.6,3.7,3.3c-0.1,21.2-0.1,42.3-0.2,63.5c0,0.3-0.2,0.6-0.7,1.6c-1.5,0-3.2,0-5,0c-13.7,0-27.3,0-41,0   c-12.4,0.1-20.2,8-20.2,20.2c0,13.1,0,26.3,0,40c22.4,0,44.3,0,67.5,0c-2.8,22.3-5.5,43.8-8.3,65.8   C329.3,256.8,309.9,256.8,289.9,256.8z"/></g></svg>