<?xml version="1.0" ?><!DOCTYPE svg  PUBLIC '-//W3C//DTD SVG 1.1//EN'  'http://www.w3.org/Graphics/SVG/1.1/DTD/svg11.dtd'><svg enable-background="new 0 0 512 512" id="Layer_1" version="1.1" viewBox="0 0 512 512" xml:space="preserve" xmlns="http://www.w3.org/2000/svg" xmlns:xlink="http://www.w3.org/1999/xlink"><g><path d="M256.5,509c-74,0-148,0-221.9,0C15,509,3,497.1,3,477.7C3,330.5,3,183.4,3,36.3C3,17.1,15,5,34.1,5C182.7,5,331.3,5,480,5   c18.8,0,31,12.1,31,30.8c0,147.5,0,294.9,0,442.4c0,18.5-12.2,30.8-30.6,30.8C405.8,509,331.1,509,256.5,509z M257,19   c-74,0-148,0-222,0c-12.3,0-18,5.7-18,18c0,146.7,0,293.3,0,440c0,12.3,5.7,18,18,18c148,0,296,0,444,0c12.3,0,18-5.7,18-18   c0-146.7,0-293.3,0-440c0-12.3-5.7-18-18-18C405,19,331,19,257,19z"/><path d="M429,256.8c0,24.3-0.5,48.7,0.1,73c1,43.8-27.8,77.7-64,91.6c-12.7,4.9-26,7.3-39.6,7.4c-45.5,0.1-91,0.4-136.5-0.1   c-34.4-0.3-63.2-13.3-84.8-40.6c-12.6-15.9-19-34.3-19-54.6C85,282.7,85,231.9,85.2,181c0.2-38.9,25.4-73.9,62.6-88.1   c14-5.3,28.5-8,43.5-7.9c44.7,0,89.3-0.3,134,0.1c34.6,0.3,63.5,13.5,85.1,41c12.3,15.7,18.5,33.8,18.6,53.7   C429.1,205.5,429,231.2,429,256.8z M403.5,257c0-25.2,0-50.3,0-75.5c0-13.4-3.6-25.8-11.2-36.7c-16.3-23.2-39.3-33.8-67.1-34   c-45.3-0.2-90.6-0.1-136-0.1c-14.4,0-28.2,3-40.7,10.2c-23.7,13.6-37.4,33.4-37.4,61.5c0,50,0,100,0,150c0,17.1,5.8,32,17.4,44.5   c16.4,17.8,37.2,26,61.1,26.1c43.8,0.2,87.6,0.2,131.5-0.1c9.1-0.1,18.4-0.9,27.1-3.2c31.5-8.2,56.1-34.9,55.5-69.8   C403.1,305.7,403.5,281.4,403.5,257z"/><path d="M257.6,330.2c-45,0-80.7-35.3-80.7-79.7c0-43.8,36.1-79.4,80.6-79.5c44.7,0,80.8,35.6,80.7,79.8   C338.1,294.9,302.3,330.1,257.6,330.2z M312.5,250.8c0.1-29.9-24.6-54.3-54.9-54.3s-55.1,24.3-55.1,54.2   c0,29.7,24.5,53.9,54.7,54.1C287.6,305,312.4,280.8,312.5,250.8z"/><path d="M364.4,165.1c-0.3,9.7-7.9,17.2-17.3,16.9c-9.4-0.2-17-8.6-16.6-18.2c0.4-9.6,8.1-17.1,17.4-16.9   C357.6,147.1,364.7,155,364.4,165.1z"/></g></svg>