<?xml version="1.0" ?><!DOCTYPE svg  PUBLIC '-//W3C//DTD SVG 1.1//EN'  'http://www.w3.org/Graphics/SVG/1.1/DTD/svg11.dtd'><svg enable-background="new 0 0 512 512" id="Layer_1" version="1.1" viewBox="0 0 512 512" xml:space="preserve" xmlns="http://www.w3.org/2000/svg" xmlns:xlink="http://www.w3.org/1999/xlink"><g><path fill= '#fff' d="M257.6,5c74,0,148,0,221.9,0C499,5,511,16.9,511,36.4c0,147.1,0,294.3,0,441.4c0,19.2-12,31.2-31.1,31.2   c-148.6,0-297.3,0-445.9,0c-18.8,0-31-12.1-31-30.9C3,330.7,3,183.2,3,35.8C3,17.3,15.2,5,33.6,5C108.3,5,182.9,5,257.6,5z M257,19   c-74,0-148,0-222,0c-12.3,0-18,5.7-18,18c0,146.7,0,293.3,0,440c0,12.3,5.7,18,18,18c148,0,296,0,444,0c12.3,0,18-5.7,18-18   c0-146.7,0-293.3,0-440c0-12.3-5.7-18-18-18C405,19,331,19,257,19z"/><path fill= '#fff' d="M200.2,430.8c0-76.8,0-152.9,0-229.5c23.3,0,46.5,0,70.1,0c0,9.1,0,18.3,0,28.7c4.1-4.9,7.4-9,10.9-13   c13-14.9,29.6-22.7,49-24.5c19.7-1.8,38.8,0.7,56.3,10.9c14.1,8.1,24.3,19.7,31.4,34.2c8.6,17.5,11.8,36.3,11.9,55.6   c0.2,44.2,0.1,88.3,0.1,132.5c0,1.5-0.1,3-0.2,4.9c-1.8,0.1-3.4,0.2-5,0.2c-20.2,0-40.3-0.1-60.5,0.1c-4.6,0.1-5.6-1.5-5.6-5.8   c0.1-40.5,0.2-81,0-121.5c0-7.4-1-15-2.7-22.2c-3-12.5-11.4-20.9-23.4-25.2c-12.3-4.4-25-5.3-36.9,0.6c-17.5,8.8-24.9,23.7-24.8,43   c0.2,40.8,0.1,81.7,0,122.5c0,10.2,0.1,8.2-8.3,8.3c-18.8,0.1-37.7,0-56.5,0C204.3,430.8,202.5,430.8,200.2,430.8z"/><path fill= '#fff' d="M155.5,430.8c-4.7,0-9,0-13.3,0c-17.2,0-34.3-0.1-51.5,0.1c-4.2,0.1-5.9-0.9-5.9-5.5c0.1-72.6,0.1-145.2,0.1-217.8   c0-3.1,0.2-5.4,4.4-5.4c20.8,0.1,41.6,0.1,62.5,0.1c1.1,0,2.3,0.3,3.7,0.5C155.5,278.6,155.5,354.3,155.5,430.8z"/><path fill= '#fff' d="M118.6,157c-21.1,0-35.9-15-35.8-36.3c0.1-20.8,15.3-35.7,36.6-35.6c21.8,0.1,36,14.8,36.2,36.1   C155.8,141.7,141.2,157.2,118.6,157z"/></g></svg>